<svg xmlns="http://www.w3.org/2000/svg" viewBox="0 0 191.99 193.55"><g id="Calque_2" data-name="Calque 2"><g id="Calque_1-2" data-name="Calque 1"><path d="M192,41.58c0-7-3.82-10.93-10.85-11-22.94-.12-45.87-.05-68.8-.12-3.83,0-5.65,1.4-5.52,5.45.19,6.58,0,13.15,0,19.75-15.54-1.07-24.5,4.7-24.61,16.52,0,4.2,2.21,8.9,4.65,12.55,4.7,7,12.48,5.85,19.79,5.41v18.54c-8.14,0-15.81-.09-23.48,0-4.58.08-5.4,2.23-3.36,6.21,1.39,2.71,2.72,6,2.42,8.91-.57,5.49-4,8.43-8.84,9.22s-8.86-.82-11.53-5c-2.81-4.38-2.33-8.66.68-12.9.84-1.18,1.6-3.51,1-4.36a6.37,6.37,0,0,0-4.52-2.11c-8-.19-16-.11-24-.06-5.58,0-6.09.53-6.09,6.09q0,33.47,0,66.92c0,7.78,3.83,11.8,11.49,11.81q70.18.08,140.38,0c7.18,0,11.13-4,11.13-11.17Q192,112,192,41.58ZM109,159c-1.27.75-2,3.25-2.08,5-.22,7.35-.09,14.71-.09,22.7H66.53c-8.62,0-17.24,0-25.86,0-3.12,0-5-1.09-5-4.52,0-22,0-44,0-66.34H54.17c-.94,7-1.53,14.52,4.93,19.27A26.06,26.06,0,0,0,71.58,140c6.07.54,12-2.33,14.6-7.91,2.27-4.83,2.48-10.62,3.72-16.54a8.68,8.68,0,0,1,1.56-.12c4.91,0,9.81,0,15.38,0,0,7.44,0,14.61,0,21.77,0,6.82,1.89,7.89,7.74,4.47a11.35,11.35,0,0,1,14.63,2.25,11.14,11.14,0,0,1-.17,14.39c-4.12,4.71-9.46,5.26-14.92,1.9C112.63,159.29,110.12,158.32,109,159Zm76.33,23c0,2.93-1.23,4.69-4.37,4.69q-32.76,0-65.53-.08c-.26,0-.53-.23-1-.47V168.19c9.23,2.28,16.71.06,21.69-8.11,3.76-6.18,3.78-12.67-.33-18.64-5.06-7.33-12.13-10.09-21.27-7.48V115.37c7,0,14.21.11,21.37-.08,2-.05,3.94-1,5.91-1.53-.53-1.91-.72-4-1.64-5.7-2.92-5.33-2.06-11.42,2.39-14.91a11.22,11.22,0,0,1,14.4.31c4.34,3.77,4.85,9.72,1.56,15-.87,1.41-1.93,4-1.32,4.75,1,1.26,3.31,2,5.09,2,7.5.21,15,.09,23.07.09Zm0-78.22v4.39h-18.1c-.08-16.72-6.75-25.07-19.19-24.32-11.18.68-17.57,10.33-16,24.43H113.94c0-7.31.13-14.47-.08-21.62-.06-2-.57-4.71-1.88-5.56-1.11-.73-3.88.39-5.54,1.34-5,2.85-11.06,2.08-14.68-2.21a11.6,11.6,0,0,1,0-14.46c3.64-4.3,9.7-5.06,14.65-2.19,1.67,1,4.42,2.09,5.62,1.36s2-3.59,2.06-5.54c.23-7,.09-14.11.09-21.58,1.73-.11,3.2-.28,4.68-.28q29.79,0,59.59,0c6.51,0,6.93.43,6.94,6.7Q185.38,74,185.36,103.74Z"/><path d="M82,20.33C65.58,13.9,49.2,7.31,32.73.94c-5.81-2.26-10-.43-12.32,5.28C13.75,22.73,7.28,39.32.63,55.84c-1.41,3.5-.47,5.44,3,6.72,4.38,1.61,8.65,3.5,13,5.28C12,78.66,14.45,87.4,22.78,91.13s15.93-.6,21.45-12.41C49,80.55,53.41,82.24,57.84,84c2.82,1.13,4.64.4,5.78-2.53,2.25-5.87,4.71-11.66,7-17.5,2-4.89.4-6.91-4.9-6.46-4.94.43-8.13-1.45-9.36-5.51a7.76,7.76,0,0,1,4.09-9.29c3.85-1.93,7.14-1,10.42,3C73.8,49.25,76.29,49.09,78,45c2.49-5.77,4.6-11.7,7-17.49C86.59,23.92,85.68,21.75,82,20.33ZM73.65,38C67.91,35,62,33,56.4,37.38c-2.65,2.08-5.38,4.92-6.46,8-3,8.65,1.53,15.51,12.72,19.92-.74,1.93-1.47,3.88-2.22,5.81s-1.45,3.65-2.26,5.7c-5.27-2-10.22-4.07-15.25-5.88s-6.67-.66-6.45,4.89c.21,5.3-1.75,8.43-6.1,9.39-4,.87-6.92-.81-8.8-4.27-2-3.66-.9-7.17,3-10.43S28.21,65,23.35,63c-5.09-2.1-10.24-4-15.71-6.17,4.59-11.61,9-22.86,13.5-34.1,1.69-4.28,3.54-8.5,5.09-12.84.95-2.65,2.55-3.27,5-2.3,15.54,6.18,31.07,12.38,47.08,18.76Z"/></g></g></svg>