<svg xmlns="http://www.w3.org/2000/svg" viewBox="0 0 102.73 123.86"><g id="Calque_2" data-name="Calque 2"><g id="Calque_1-2" data-name="Calque 1"><path d="M14.74,53.35c-4.26,0-8.53,0-12.8,0A2.37,2.37,0,0,1,0,52v-1.4a3,3,0,0,1,2.82-1.25c3.86,0,7.73,0,11.6,0,1.3,0,2.1.64,2.23,1.68A1.94,1.94,0,0,1,14.74,53.35Z"/><path d="M53.37,14.33c0,1.48-.74,2.33-2,2.33s-2-.85-2-2.33c0-3.94,0-7.88,0-11.82A2.49,2.49,0,0,1,50.77,0H52a2.49,2.49,0,0,1,1.42,2.51C53.34,6.45,53.37,10.39,53.37,14.33Z"/><path d="M77.41,67.57c-2.2,4-4.72,7.83-7.09,11.74a34.06,34.06,0,0,0-4.8,12.12c-.26,1.61-.33,3.25-.47,4.88-.11,1.36-1,2.26-2.09,2.19A2.14,2.14,0,0,1,61,96.13a36,36,0,0,1,5.69-18.62C69,73.72,71.43,70,73.63,66.12a28.32,28.32,0,0,0,3.78-17.43A25.6,25.6,0,0,0,63.77,28.3a25.3,25.3,0,0,0-12.38-3.15,26.27,26.27,0,0,0-25.89,22A28.91,28.91,0,0,0,29,66c2.19,3.9,4.63,7.66,7,11.49A36.7,36.7,0,0,1,41.2,90.81a54.54,54.54,0,0,1,.49,5.58,2,2,0,0,1-2,2.12,2,2,0,0,1-2-2c0-7.3-2.91-13.59-6.72-19.62A93.21,93.21,0,0,1,24,64.8c-4.72-10.89-4.06-21.54,3-31.32a28.72,28.72,0,0,1,21.84-12.2A30,30,0,0,1,81,45.29,31.84,31.84,0,0,1,77.41,67.57Z"/><path d="M63.08,104.08a3.74,3.74,0,0,1-.89.08H40.54c-1.37,0-2.24-.6-2.41-1.63a2,2,0,0,1,2.11-2.39c2.7,0,5.41,0,8.11,0h14a2.06,2.06,0,0,1,2.18,1.4A2,2,0,0,1,63.08,104.08Z"/><path d="M62.39,108.64a1.9,1.9,0,0,1-1.41,2,4.64,4.64,0,0,1-1.29.14H43.05a5.09,5.09,0,0,1-1.29-.13,1.91,1.91,0,0,1-1.42-1.94,1.86,1.86,0,0,1,1.41-1.85,5.05,5.05,0,0,1,1.29-.14c2.77,0,5.54,0,8.32,0s5.54,0,8.31,0a5,5,0,0,1,1.29.14A1.86,1.86,0,0,1,62.39,108.64Z"/><path d="M59,117a3.39,3.39,0,0,1-1.35.22c-2.14,0-4.28,0-6.42,0s-4.21,0-6.31,0c-1.47,0-2.38-.79-2.38-2a2.13,2.13,0,0,1,2.38-2q6.46,0,12.93,0a2.1,2.1,0,0,1,2.23,1.64A1.92,1.92,0,0,1,59,117Z"/><path d="M102.72,51.39a2,2,0,0,1-2.18,2q-6.17,0-12.33,0a2,2,0,0,1-2.14-2,1.91,1.91,0,0,1,2.12-2c2.1,0,4.21,0,6.31,0s4,0,6,0A2,2,0,0,1,102.72,51.39Z"/><path d="M95.16,28.36c-1.21.76-2.47,1.45-3.71,2.16-2.39,1.39-4.78,2.79-7.19,4.16a2,2,0,0,1-2.64-.36,1.92,1.92,0,0,1-.13-2.41,2.92,2.92,0,0,1,.9-.77q5.22-3,10.48-6.05a7.26,7.26,0,0,1,1-.41A2,2,0,0,1,96,26,1.9,1.9,0,0,1,95.16,28.36Z"/><path d="M96.12,75.64c-.06,1.79-1.38,2.72-2.62,2.26a11.32,11.32,0,0,1-1.5-.79l-9.7-5.6a2,2,0,0,1-1.15-2.05,1.79,1.79,0,0,1,1.49-1.68,2.65,2.65,0,0,1,1.61.27c3.6,2,7.19,4.08,10.73,6.21C95.56,74.6,95.89,75.36,96.12,75.64Z"/><path d="M34,21.29a1.91,1.91,0,0,1-2.75-.74c-2.15-3.65-4.28-7.31-6.35-11a2.17,2.17,0,0,1,1.87-3.14c.53.39,1.25.67,1.56,1.2,2.18,3.63,4.28,7.31,6.37,11A1.92,1.92,0,0,1,34,21.29Z"/><path d="M21.3,34a2,2,0,0,1-3,.56c-3.52-2-7-4.05-10.56-6.1a2,2,0,0,1-1.1-2.35,2.1,2.1,0,0,1,2.22-1.45,7.51,7.51,0,0,1,1,.43q5.21,3,10.39,6C21.59,31.86,21.94,32.94,21.3,34Z"/><path d="M20.64,71.37c-3.7,2.19-7.42,4.35-11.18,6.44-1.33.74-2.88-.35-3-2,.39-.51.68-1.18,1.18-1.49,3.64-2.16,7.31-4.27,11-6.36a1.94,1.94,0,0,1,2.7.69A1.9,1.9,0,0,1,20.64,71.37Z"/><path d="M77.85,9.41A28.8,28.8,0,0,1,76.43,12Q74,16.2,71.53,20.43a2,2,0,0,1-2.15,1.11,1.77,1.77,0,0,1-1.61-1.66,2.64,2.64,0,0,1,.34-1.5c2-3.54,4-7.07,6.12-10.56a5,5,0,0,1,1.34-1.19C77.5,6.62,78.48,8.06,77.85,9.41Z"/><path d="M61.94,57.63a12.31,12.31,0,0,1-4.81,4.58A12.26,12.26,0,0,1,41,57.89a1.87,1.87,0,0,1-.3-1.18c0-.26.52-.69.74-.65a1.91,1.91,0,0,1,1.18.68A10.5,10.5,0,0,0,48,61a10.23,10.23,0,0,0,11.91-4l.33-.5a1,1,0,0,1,1.44-.41A1,1,0,0,1,61.94,57.63Z"/><path d="M57.89,121.85a2,2,0,0,1-2.16,2H51.32c-1.47,0-2.94,0-4.4,0a2,2,0,1,1,0-4q4.45,0,8.91,0A2,2,0,0,1,57.89,121.85Z"/><path d="M61.57,49.94c-.66.36-1.14,0-1.48-.57-.45-.79-.9-1.56-1.43-2.47-.53.9-1,1.67-1.44,2.45s-.88,1-1.56.55-.55-1-.2-1.57c.75-1.27,1.46-2.55,2.21-3.81.57-.94,1.36-1,1.94,0,.78,1.28,1.51,2.59,2.26,3.89C62.22,49,62.22,49.58,61.57,49.94Z"/><path d="M47,49.93c-.65.37-1.14,0-1.49-.55L44.08,46.9,42.6,49.42c-.36.62-.88.87-1.5.49a1,1,0,0,1-.26-1.49c.75-1.3,1.48-2.61,2.26-3.89.6-1,1.39-1,2,0,.75,1.26,1.47,2.54,2.21,3.8C47.66,49,47.65,49.58,47,49.93Z"/></g></g></svg>