<svg xmlns="http://www.w3.org/2000/svg" viewBox="0 0 88.05 106.16"><g id="Calque_2" data-name="Calque 2"><g id="Calque_1-2" data-name="Calque 1"><path d="M12.64,45.73c-3.66,0-7.32,0-11,0A2,2,0,0,1,0,44.56v-1.2a2.55,2.55,0,0,1,2.41-1.07c3.32,0,6.64,0,10,0a1.69,1.69,0,0,1,1.91,1.44A1.66,1.66,0,0,1,12.64,45.73Z"/><path d="M45.74,12.28c0,1.27-.64,2-1.72,2s-1.71-.73-1.71-2c0-3.38,0-6.75,0-10.12A2.14,2.14,0,0,1,43.51,0h1a2.15,2.15,0,0,1,1.22,2.16C45.71,5.53,45.74,8.9,45.74,12.28Z"/><path d="M66.39,57.83c-1.84,3.36-4,6.57-5.94,9.85a29.82,29.82,0,0,0-4.29,10.68c-.22,1.38-.29,2.79-.4,4.19-.1,1.16-.82,1.93-1.79,1.88a1.83,1.83,0,0,1-1.67-2,30.77,30.77,0,0,1,4.88-16c2-3.23,4-6.4,5.88-9.68a24.39,24.39,0,0,0,3.29-15,22.52,22.52,0,0,0-22.3-20.18A22.53,22.53,0,0,0,21.86,40.4a25.52,25.52,0,0,0,3.55,17.14c1.75,3,3.63,5.9,5.43,8.86a31.27,31.27,0,0,1,4.47,11.43,44.89,44.89,0,0,1,.42,4.78,1.73,1.73,0,0,1-1.68,1.82,1.68,1.68,0,0,1-1.73-1.67c0-6.25-2.5-11.64-5.75-16.81a78.55,78.55,0,0,1-6-10.41c-4.05-9.33-3.48-18.46,2.58-26.84A24.62,24.62,0,0,1,41.9,18.24,25.75,25.75,0,0,1,69.4,38.82,27.23,27.23,0,0,1,66.39,57.83Z"/><path d="M54.07,89.21a3.3,3.3,0,0,1-.77.07H34.75a1.9,1.9,0,0,1-2-1.23,1.69,1.69,0,0,1,1.69-2.21c2.35,0,4.7,0,7.05,0h12A1.76,1.76,0,0,1,55.34,87,1.72,1.72,0,0,1,54.07,89.21Z"/><path d="M53.47,93.13a1.64,1.64,0,0,1-1.21,1.67,4.52,4.52,0,0,1-1.1.11H36.9a4.6,4.6,0,0,1-1.11-.11,1.64,1.64,0,0,1-1.21-1.67,1.59,1.59,0,0,1,1.21-1.58,3.68,3.68,0,0,1,1.1-.12c2.38,0,4.76,0,7.13,0s4.76,0,7.13,0a3.75,3.75,0,0,1,1.11.12A1.58,1.58,0,0,1,53.47,93.13Z"/><path d="M50.6,100.32a3,3,0,0,1-1.16.19c-1.81,0-3.61,0-5.42,0s-3.66,0-5.49,0c-1.26,0-2.05-.68-2.05-1.71a1.83,1.83,0,0,1,2.05-1.74H49.61a1.8,1.8,0,0,1,1.91,1.4A1.65,1.65,0,0,1,50.6,100.32Z"/><path d="M88.05,44a1.74,1.74,0,0,1-1.93,1.73H75.72a1.72,1.72,0,0,1-2-1.69c0-1.1.68-1.74,2-1.75,1.72,0,3.44,0,5.16,0s3.49,0,5.24,0C87.34,42.32,88.05,43,88.05,44Z"/><path d="M82.56,65a1.91,1.91,0,0,1-2.44,1.76,8.34,8.34,0,0,1-1.28-.69l-8.32-4.8a1.68,1.68,0,0,1-1-1.76,1.54,1.54,0,0,1,1.29-1.43,2.16,2.16,0,0,1,1.3.2c3.11,1.76,6.21,3.53,9.28,5.37A5.41,5.41,0,0,1,82.56,65Z"/><path d="M81.76,24.17a9.78,9.78,0,0,1-1.16.72c-2.73,1.57-5.43,3.17-8.18,4.69a2.41,2.41,0,0,1-1.76.25,2.27,2.27,0,0,1-1.08-1.38,1.45,1.45,0,0,1,.83-1.64l4.08-2.36c1.65-1,3.31-1.93,5-2.87a7.57,7.57,0,0,1,1-.43,1.74,1.74,0,0,1,1.82,1.09A1.6,1.6,0,0,1,81.76,24.17Z"/><path d="M29.19,18.25a1.66,1.66,0,0,1-2.37-.63c-1.84-3.13-3.67-6.27-5.44-9.43A1.86,1.86,0,0,1,23,5.49c.45.34,1.07.58,1.34,1,1.86,3.11,3.66,6.26,5.45,9.42A1.65,1.65,0,0,1,29.19,18.25Z"/><path d="M18.28,29.13a1.73,1.73,0,0,1-2.53.54q-4.53-2.59-9.06-5.23a1.7,1.7,0,0,1-1-2.07,1.74,1.74,0,0,1,1.8-1.22,5.6,5.6,0,0,1,.92.36q4.5,2.56,9,5.18A1.7,1.7,0,0,1,18.28,29.13Z"/><path d="M18.53,60c-.2.26-.47.9-1,1.18-3.09,1.85-6.21,3.64-9.35,5.42a1.7,1.7,0,1,1-1.69-3c3.11-1.82,6.23-3.63,9.36-5.4C17.11,57.6,18.5,58.39,18.53,60Z"/><path d="M66.77,8a8.78,8.78,0,0,1-.64,1.21c-1.59,2.77-3.2,5.54-4.8,8.31a1.71,1.71,0,0,1-1.83,1,1.51,1.51,0,0,1-1.41-1.39,2.35,2.35,0,0,1,.27-1.3c1.73-3,3.47-6.11,5.29-9.12a4,4,0,0,1,1.17-1C66.4,5.7,67.21,6.84,66.77,8Z"/><path d="M52.12,49.88a3.27,3.27,0,0,1-4.79,2.67c-.3-.16-.57-.38-.9-.6-1.8,1.32-3,1.32-4.83,0a3.47,3.47,0,0,1-3.3.86,3.29,3.29,0,0,1-2.37-3c0-.54.2-.91.74-1a.81.81,0,0,1,1,.82,1.54,1.54,0,0,0,3.08.12c.09-.57.3-1,.88-1s.81.38.88,1a1.54,1.54,0,0,0,3.07,0c.08-.58.33-.94.9-.94s.77.34.85.89c.16,1,.71,1.49,1.58,1.47s1.34-.48,1.5-1.45c.09-.6.38-1,1-.89S52.13,49.33,52.12,49.88Z"/><path d="M49.61,104.48a1.73,1.73,0,0,1-1.88,1.68H44c-1.26,0-2.52,0-3.77,0a1.72,1.72,0,1,1,0-3.43c2.52,0,5,0,7.55,0A1.74,1.74,0,0,1,49.61,104.48Z"/><path d="M53,40.21a2.44,2.44,0,0,1-2.44,2.46,2.39,2.39,0,0,1-2.41-2.47,2.36,2.36,0,0,1,2.42-2.36A2.43,2.43,0,0,1,53,40.21Z"/><path d="M40.3,42.54c-.55.32-1,.08-1.27-.45-.39-.69-.81-1.36-1.26-2.13l-1.21,2.09c-.31.53-.73.85-1.33.47s-.48-.83-.18-1.34c.63-1.08,1.24-2.18,1.88-3.25.51-.84,1.2-.84,1.72,0,.65,1.08,1.25,2.18,1.88,3.26C40.84,41.73,40.85,42.22,40.3,42.54Z"/></g></g></svg>