<svg xmlns="http://www.w3.org/2000/svg" viewBox="0 0 165.13 199.04"><g id="Calque_2" data-name="Calque 2"><g id="Calque_1-2" data-name="Calque 1"><path d="M165.13,81.29v2.26a4.29,4.29,0,0,1-4.24,2.26c-6.27-.07-12.54,0-18.82,0a3.41,3.41,0,0,1-3.57-2.18,3.1,3.1,0,0,1,3-4.25c6.81-.06,13.61,0,20.42,0C163.45,79.3,164.25,80.32,165.13,81.29Z"/><path d="M85.78,23c0,2.39-1.18,3.75-3.22,3.75S79.35,25.41,79.35,23c0-6.32.05-12.66,0-19A4,4,0,0,1,81.6,0h1.94a4,4,0,0,1,2.28,4C85.74,10.36,85.79,16.7,85.78,23Z"/><path d="M124.52,108.4c-3.44,6.31-7.39,12.33-11.13,18.48s-6.89,12.74-8.06,20c-.42,2.59-.54,5.23-.76,7.85-.18,2.2-1.49,3.64-3.33,3.56s-3.16-1.61-3.15-3.78c.08-10.88,3.53-20.74,9.13-29.94,3.69-6,7.54-12,11-18.15,5-8.76,7.4-18.28,6.15-28.32-2.09-16.69-11.14-28.34-26.68-34.84-4.86-2-10-2.79-16.62-2.86-19.23.13-36.61,14.76-40.06,35.16A44.4,44.4,0,0,0,45.64,104c2.67,5.13,5.78,10,8.84,15,4.4,7.08,8.84,14.16,10.7,22.39A119,119,0,0,1,67,154.7a3.08,3.08,0,0,1-2.35,3.42A2.92,2.92,0,0,1,61.25,157a3.1,3.1,0,0,1-.62-1.76c0-11.73-4.68-21.84-10.79-31.52-4-6.34-8.21-12.68-11.17-19.52C31,86.6,32.13,69.44,43.56,53.7c8.57-11.78,20.44-18.21,35-19.53a48.44,48.44,0,0,1,51.61,38.58C132.73,85.28,130.61,97.24,124.52,108.4Z"/><path d="M100.2,167.38c-5.9,0-11.81,0-17.72,0s-11.7,0-17.56,0c-2.37,0-3.78-1.41-3.66-3.51A3,3,0,0,1,64,161a10.87,10.87,0,0,1,1.28-.06q17.31,0,34.64,0c2.47,0,3.8,1,4,2.82C104.07,165.9,102.65,167.37,100.2,167.38Z"/><path d="M100.29,174.6A3.07,3.07,0,0,1,98,177.73a8,8,0,0,1-2.08.21H69.19a8,8,0,0,1-2.07-.21,3.07,3.07,0,0,1-2.27-3.13,3,3,0,0,1,2.28-3,7.44,7.44,0,0,1,2.06-.21c4.52,0,9,0,13.54,0s8.81,0,13.21,0a7.51,7.51,0,0,1,2.07.21A3,3,0,0,1,100.29,174.6Z"/><path d="M94.9,188.09a6.12,6.12,0,0,1-2.18.36c-3.39,0-6.77,0-10.16,0s-6.87,0-10.31,0c-2.36,0-3.83-1.27-3.83-3.2S70,182,72.25,182q10.4,0,20.79,0a3.35,3.35,0,0,1,3.58,2.62A3.09,3.09,0,0,1,94.9,188.09Z"/><path d="M26.79,82.5c0,2-1.39,3.27-3.73,3.28q-9.67,0-19.34,0C1.42,85.77,0,84.45,0,82.46s1.36-3.12,3.67-3.14c3.28,0,6.55,0,9.83,0s6.34,0,9.51,0C25.45,79.34,26.78,80.48,26.79,82.5Z"/><path d="M154.83,43.11c-.64.84-1.11,2-2,2.49-5.84,3.48-11.74,6.87-17.67,10.22a3.19,3.19,0,1,1-3.09-5.58c5.83-3.41,11.66-6.81,17.54-10.13C151.92,38.84,154.48,40.36,154.83,43.11Z"/><path d="M154.51,121.57c-.1,2.87-2.22,4.35-4.21,3.61a16.78,16.78,0,0,1-2.41-1.27l-15.61-9a3.17,3.17,0,0,1-1.84-3.29,2.88,2.88,0,0,1,2.41-2.69,4.18,4.18,0,0,1,2.58.43c5.79,3.26,11.56,6.56,17.26,10A7.28,7.28,0,0,1,154.51,121.57Z"/><path d="M54.65,34.26a3.08,3.08,0,0,1-4.32-1.18q-5.17-8.79-10.22-17.66c-1.26-2.26.32-4.8,3.08-5.12.84.65,2,1.14,2.47,2C49.12,18.09,52.47,24,55.8,29.82A3.11,3.11,0,0,1,54.65,34.26Z"/><path d="M34.3,54.6a3.23,3.23,0,0,1-4.61,1.12c-5.78-3.3-11.54-6.59-17.24-10a7.28,7.28,0,0,1-1.82-2.23c.1-3.28,2.68-4.59,5.08-3.24C19.86,42.58,24,45,28.11,47.37c1.58.91,3.17,1.8,4.73,2.74C34.67,51.22,35.21,52.94,34.3,54.6Z"/><path d="M34.76,112.55A7.14,7.14,0,0,1,33,114.78c-5.8,3.47-11.67,6.82-17.54,10.15a3.19,3.19,0,1,1-3.06-5.6q8.61-5,17.26-10C32,108,34.67,109.39,34.76,112.55Z"/><path d="M125.13,15.14c-.69,1.5-1.6,2.9-2.43,4.34q-3.86,6.69-7.72,13.36a3.14,3.14,0,0,1-3.46,1.77,2.84,2.84,0,0,1-2.59-2.67,4.31,4.31,0,0,1,.56-2.42c3.23-5.69,6.47-11.36,9.83-17a8.25,8.25,0,0,1,2.16-1.91C124.6,10.63,126.15,13,125.13,15.14Z"/><path d="M82.5,86.87A8.47,8.47,0,1,0,91,95.35,8.44,8.44,0,0,0,82.5,86.87Zm0,13.6a5.16,5.16,0,0,1-5.14-5.11,5.17,5.17,0,0,1,10.34-.12A5.18,5.18,0,0,1,82.54,100.47Z"/><path d="M93.05,195.92a3.22,3.22,0,0,1-3.4,3.11c-2.36,0-4.73,0-7.09,0s-4.72,0-7.08,0a3.21,3.21,0,1,1,0-6.41q7.08-.06,14.16,0A3.23,3.23,0,0,1,93.05,195.92Z"/><path d="M99.31,75.51A4.55,4.55,0,0,1,94.79,80a4.48,4.48,0,0,1-4.57-4.57A4.42,4.42,0,0,1,94.72,71,4.51,4.51,0,0,1,99.31,75.51Z"/><path d="M74.91,75.49A4.46,4.46,0,0,1,70.43,80a4.52,4.52,0,1,1-.1-9A4.42,4.42,0,0,1,74.91,75.49Z"/></g></g></svg>