<svg xmlns="http://www.w3.org/2000/svg" viewBox="0 0 121.72 146.75"><g id="Calque_2" data-name="Calque 2"><g id="Calque_1-2" data-name="Calque 1"><path d="M17.47,63.22c-5,.05-10.11,0-15.17,0A2.78,2.78,0,0,1,0,61.6V59.93a3.53,3.53,0,0,1,3.33-1.48c4.59.07,9.17,0,13.76,0,1.53,0,2.49.76,2.64,2A2.31,2.31,0,0,1,17.47,63.22Z"/><path d="M63.23,17c0,1.77-.88,2.77-2.37,2.77s-2.37-1-2.37-2.77c0-4.66,0-9.33,0-14a2.93,2.93,0,0,1,1.69-3h1.42a3,3,0,0,1,1.68,3C63.2,7.64,63.24,12.31,63.23,17Z"/><path d="M91.75,80c-2.6,4.75-5.58,9.29-8.39,13.93a40.45,40.45,0,0,0-5.74,14.45c-.31,1.87-.39,3.78-.54,5.67-.13,1.65-1,2.71-2.41,2.68s-2.38-1.18-2.37-2.85c.08-8,2.65-15.28,6.76-22.07,3-5,6.2-9.94,9-15.08A31.29,31.29,0,0,0,91.7,57.64C90.05,44.74,83,36,70.75,31.43a31.5,31.5,0,0,0-10.86-1.64c-14.18,0-27.27,11.07-29.66,26-1.35,8.47.57,16.36,4.85,23.7,2.43,4.17,5.07,8.22,7.58,12.34a43.3,43.3,0,0,1,6.16,15.81,58.35,58.35,0,0,1,.57,6.61A2.37,2.37,0,0,1,47,116.71a2.33,2.33,0,0,1-2.34-2.35c0-8.61-3.44-16-7.91-23.13-3-4.71-6.1-9.42-8.3-14.49-5.58-12.91-4.78-25.53,3.61-37.1,6.3-8.7,15-13.45,25.77-14.44A35.68,35.68,0,0,1,95.92,53.59,37.77,37.77,0,0,1,91.75,80Z"/><path d="M73.09,63.07H48.64c-1.71,0-2.15.59-1.65,2.2a14.56,14.56,0,0,0,27.73,0C75.22,63.67,74.79,63.07,73.09,63.07ZM60.93,73a12.16,12.16,0,0,1-11.2-7.39H72A12.11,12.11,0,0,1,60.93,73Z"/><path d="M76.57,120.86a2.39,2.39,0,0,1-2.63,2.55c-2.89,0-5.77,0-8.67,0-5.78,0-11.55,0-17.33,0-1.64,0-2.67-.82-2.78-2.15a2.28,2.28,0,0,1,2.5-2.61c3.08,0,6.17,0,9.26,0h3.92c4.35,0,8.7,0,13,0C75.54,118.64,76.51,119.48,76.57,120.86Z"/><path d="M73.92,128.77A2.21,2.21,0,0,1,72.31,131a5.11,5.11,0,0,1-1.52.17H51a6.19,6.19,0,0,1-1.29-.11,2.33,2.33,0,0,1,0-4.57,6.2,6.2,0,0,1,1.29-.12q9.91,0,19.83,0a4.9,4.9,0,0,1,1.53.17A2.2,2.2,0,0,1,73.92,128.77Z"/><path d="M70.81,137.88c-.35.9-1.28,1.08-2.21,1.07H60.88c-2.57,0-5.14,0-7.72,0-1.65,0-2.71-.94-2.72-2.33a2.52,2.52,0,0,1,2.79-2.43c5.11,0,10.22,0,15.32,0A2.27,2.27,0,0,1,71,135.55,3.81,3.81,0,0,1,70.81,137.88Z"/><path d="M121.72,60.8c0,1.47-1,2.44-2.74,2.44H104.72c-1.72,0-2.75-.93-2.75-2.41s1-2.34,2.79-2.35h7.12c2.38,0,4.75,0,7.13,0C120.71,58.5,121.69,59.36,121.72,60.8Z"/><path d="M113.85,90.45A2.18,2.18,0,0,1,112,92.37a2.74,2.74,0,0,1-1.69-.28q-6.5-3.68-13-7.45a2.26,2.26,0,0,1-1.12-2.73,2.48,2.48,0,0,1,2.52-1.73,7.15,7.15,0,0,1,1.11.45c4.21,2.41,8.42,4.85,12.63,7.28A2.36,2.36,0,0,1,113.85,90.45Z"/><path d="M114.11,31.82c-.48.61-.84,1.44-1.46,1.82-4.27,2.55-8.59,5-12.92,7.48a2.33,2.33,0,0,1-3.29-.85,2.29,2.29,0,0,1,1-3.25c4.27-2.49,8.54-5,12.83-7.4A2.58,2.58,0,0,1,114.11,31.82Z"/><path d="M40.33,25.23a2.29,2.29,0,0,1-3.27-.89q-3.78-6.45-7.47-12.93c-.94-1.67.17-3.55,2.19-3.82.63.47,1.47.81,1.84,1.43,2.58,4.31,5.07,8.66,7.55,13A2.28,2.28,0,0,1,40.33,25.23Z"/><path d="M25.27,40.27a2.39,2.39,0,0,1-3.5.74Q15.5,37.42,9.26,33.78a2.34,2.34,0,0,1-1.33-2.86,2.42,2.42,0,0,1,2.49-1.69,9.25,9.25,0,0,1,1.28.5q6.21,3.56,12.42,7.16C25.56,37.73,26,39,25.27,40.27Z"/><path d="M24.54,84.5c-.92.62-1.9,1.14-2.86,1.69-3.25,1.89-6.49,3.77-9.76,5.63a15.71,15.71,0,0,1-1.55.69A2.54,2.54,0,0,1,8,90.9a2.21,2.21,0,0,1,.56-2.5,3.58,3.58,0,0,1,.87-.61c4.07-2.36,8.13-4.73,12.23-7a3.56,3.56,0,0,1,2-.48,2.14,2.14,0,0,1,1.88,1.88A2.17,2.17,0,0,1,24.54,84.5Z"/><path d="M92.3,11a3.65,3.65,0,0,1-.25.53L84.77,24.19a2.35,2.35,0,0,1-2.54,1.34,2.12,2.12,0,0,1-1.94-2,3.32,3.32,0,0,1,.4-1.79c2.37-4.19,4.77-8.37,7.24-12.51a6.27,6.27,0,0,1,1.58-1.42C91.77,7.83,92.9,9.43,92.3,11Z"/><path d="M68.59,144.44a2.37,2.37,0,0,1-2.51,2.3c-1.74,0-3.48,0-5.22,0s-3.48,0-5.22,0a2.37,2.37,0,1,1,0-4.73c3.48,0,7,0,10.45,0A2.39,2.39,0,0,1,68.59,144.44Z"/><path d="M72.33,55.51l1.14,3.65-.27.29A16.61,16.61,0,0,1,71.1,58a1.47,1.47,0,0,0-2.32,0,20.34,20.34,0,0,1-2,1.41l-.35-.17a16,16,0,0,1,.72-2.44,1.43,1.43,0,0,0-.72-2.19,19.29,19.29,0,0,1-2-1.51c0-.14.11-.27.16-.4h1.86c2.06,0,2,0,2.7-2,.19-.57.41-1.12.61-1.69h.44c.31.95.64,1.88.91,2.84a1,1,0,0,0,1.17.86c1-.06,2,0,3,0,0,.12.11.25.16.38Z"/><path d="M54.48,56.61c.34.85.57,1.74.85,2.61l-.37.26c-.78-.56-1.6-1.08-2.33-1.7a1.13,1.13,0,0,0-1.73,0,27.2,27.2,0,0,1-2.33,1.65l-.33-.25c.38-1.23.77-2.47,1.16-3.72l-3.13-2.34c0-.14.11-.29.17-.43h2c1.91,0,1.9,0,2.52-1.89.19-.58.41-1.16.62-1.74l.38-.06a10.53,10.53,0,0,1,.77,2c.22,1.35.88,1.87,2.25,1.67a14.8,14.8,0,0,1,2.21,0c.06.12.11.25.17.38a21.21,21.21,0,0,1-2.25,1.68A1.25,1.25,0,0,0,54.48,56.61Z"/></g></g></svg>