<svg xmlns="http://www.w3.org/2000/svg" viewBox="0 0 299.97 198.4"><g id="Calque_2" data-name="Calque 2"><g id="Calque_1-2" data-name="Calque 1"><path d="M212.48,35.56c-3.31-10.48-7.73-20.5-15.67-28.46C187.5-2.24,177-2.35,167.42,6.69a60.17,60.17,0,0,0-5.08,5.51C128.62,53.47,83.71,68.65,32,68.14a35.15,35.15,0,0,0-9.72,1C7.37,73.3-1.64,87.27.25,102.88,2,117.3,14.77,128.76,29.86,129.29c4.8.17,9.6,0,14.82,0v6.07c0,14.4-.15,28.8,0,43.19.16,11.48,8.44,19.77,19,19.53s18.1-8.56,18.17-19.89c0-7.36-.1-14.72.1-22.07a6.86,6.86,0,0,1,1.93-4.09c3.42-3.61,7.08-7,11.59-11.4,19.81,6.77,39.26,17.14,55.46,32.91,6.15,6,11.4,12.92,17.63,18.81,8.43,8,18.8,8.16,26.7-.25a76.77,76.77,0,0,0,13.21-19.62c7.57-16.13,10.45-33.55,12-51.21C223,92.23,221.32,63.54,212.48,35.56ZM23,122.93C14.49,122,5.81,112.1,4.82,101.58c-1.25-13.17,6.09-24.2,18.5-27.88-.91,8.45-2.43,16.62-2.48,24.81S22.22,114.86,23,122.93Zm14,1.41c-7.75,1-7.72,1-9.55-6.06-3.95-15.4-2.59-30.54,1.89-45.62,1.55,0,2.77-.06,4,0,1.07.07,2.12.31,3.71.56C31.86,90.4,31.53,107.4,36.94,124.34Zm40.22,56.84c-.09,6.23-5.79,11.59-12.15,12.27a13.87,13.87,0,0,1-15.08-9.88,20.24,20.24,0,0,1-.74-5.07q-.07-22.47,0-45a31.71,31.71,0,0,1,.46-3.48l27.6,5C77.24,150.92,77.39,166.05,77.16,181.18Zm6.17-33.66L82.24,147V136.86l7.6,1.91Zm37.78-.7c-22.33-12.16-46.56-18.56-71.82-21.06-7.79-.78-7.88-.66-9.56-7.91a83.48,83.48,0,0,1,.15-38.12c1.64-7.15,1.81-7.15,9.31-7.43a168.85,168.85,0,0,0,50.29-10A146,146,0,0,0,150.25,32c.55-.52,1.15-1,2.52-2.13-14.23,46.86-14.23,92.58-.35,137.14C142.5,160.54,132.24,152.89,121.11,146.82Zm58.32-9.7-28.53,5.13a231.36,231.36,0,0,1-.37-84.32l28.52,3.75C167.42,86.91,167.41,111.68,179.43,137.12Zm1.49-68c2-2.36,4.51-5.9,6.85-5.93s5.42,3.25,6.82,5.82c5.11,9.43,5.82,19.9,6,30.4l1.31.31c-2.11,9.35-3.92,18.78-6.47,28-1,3.6-3.23,8.43-7.63,7.54-2.89-.58-6-4.37-7.37-7.45-5.07-11.33-6.21-23.45-5-35.7.59-6,2.1-11.94,3.37-17.86A11.79,11.79,0,0,1,180.92,69.08Zm34.63,54.25c-1.66,17.2-4.83,34-12.35,49.67a61.91,61.91,0,0,1-10.81,15.66c-6.36,6.7-13.95,6.52-20.83.34-8.7-7.82-12.62-18.42-16.22-29.12-1.38-4.1-2.28-8.38-3.54-13.08,11.58-2.07,22.26-4.39,33.07-5.78,7.21-.92,12-4.27,14.51-10.77,7.89-20.52,7.91-41.16.26-61.75-2.73-7.37-8-10.78-16.07-11.3-10.56-.68-21.06-2.38-32.21-3.71,3.78-15.84,7.63-31.06,18.76-43,7.55-8.13,16.24-7.85,24,.44,8.57,9.19,12.58,20.71,15.79,32.51C217,69.66,218.17,96.35,215.55,123.33Z"/><path d="M288,36.41a16.24,16.24,0,0,1-2.89,2c-15,6.11-30.06,12.2-45.16,18.15-1,.38-2.4-.44-3.62-.7.7-1.13,1.14-2.91,2.15-3.33q22.45-9.36,45.09-18.31c1.2-.48,2.93.36,4.41.59C288,35.34,288,35.88,288,36.41Z"/><path d="M288.21,160.89c-.1.64-.19,1.28-.28,1.91-1.59.06-3.36.61-4.73.1-6.57-2.45-13-5.2-19.54-7.83-8.1-3.27-16.24-6.44-24.26-9.87-1.27-.53-2-2.21-3-3.36,1.62-.28,3.51-1.24,4.82-.73,14.67,5.75,29.24,11.71,43.82,17.67A19,19,0,0,1,288.21,160.89Z"/><path d="M300,98.75c-1.48.74-3,2.07-4.45,2.12-7.8.21-15.61.1-23.42.1h0c-7.65,0-15.31.13-23-.1-1.49,0-2.94-1.47-4.4-2.26,1.5-.7,3-2,4.5-2q23.21-.23,46.4,0C297.1,96.64,298.53,98,300,98.75Z"/></g></g></svg>