<svg xmlns="http://www.w3.org/2000/svg" viewBox="0 0 146.32 173.89"><g id="Calque_2" data-name="Calque 2"><g id="Calque_1-2" data-name="Calque 1"><path d="M144,140.58c-7.46-13.39-15.12-26.69-22.8-40.17,4.91-3.65,4-8.54,3-13.24-1.47-6.46-1.06-12.07,4.92-16.25a26.87,26.87,0,0,0,4.32-4.4c3.1-3.5,3.1-7.15,0-10.67-2.65-3-5.58-5.71-8-8.82A8,8,0,0,1,123.74,42c.24-4,1.14-7.86,1.62-11.81.61-5-1.35-7.77-6.28-9a26.1,26.1,0,0,0-4.84-.9c-7.09-.32-11.36-3.7-14.56-10.27-5.62-11.51-6.29-11.68-17.77-6-6,3-10.78,3-16.73-.13C53.55-2.14,53.08-1.92,47.13,9.75c-2.85,5.59-6.22,9.27-12.84,9.34a18.63,18.63,0,0,0-7.21,1.44c-2,.86-4.26,2.4-5,4.22A11.31,11.31,0,0,0,21.91,32c2.79,8.92-.4,15.26-7.2,21C9,57.91,9.25,61.45,14.41,66.9c8.93,9.42,9.08,9.45,6.91,22.21-.74,4.36-.21,7.86,3.86,10.64-8.08,14.27-16,28.08-23.67,42-1,1.84-2,4.88-1.2,6.2s4,1.84,6.09,1.91q10.08.33,20.17,0c2.76-.09,4.25,1,5.5,3.25q4.84,8.83,10,17.51c2.22,3.75,4.87,3.68,7.07,0,4.66-7.91,9.27-15.85,13.92-23.77,3.23-5.5,6.49-11,10-16.89,8,13.9,15.69,27.2,23.4,40.47,2.74,4.71,5.29,4.67,7.93,0,3.29-5.86,6.7-11.65,9.82-17.6,1.21-2.32,2.71-3,5.19-2.9,6.45.16,12.91.24,19.35,0,2.55-.11,5.07-1.2,7.6-1.84C145.56,145.52,145.2,142.81,144,140.58ZM17.3,60.3c3.05-3.19,5.81-6.43,8.94-9.26,3.32-3,4.22-6.48,3.49-10.75S28.6,32,28,27.44c5.3-1,10.23-1.46,14.91-2.84A12.58,12.58,0,0,0,49.15,20c2.75-3.88,4.79-8.26,7.23-12.64,4.42,2.13,8.65,4,12.72,6.19a8.75,8.75,0,0,0,8.62.17c4.18-2,8.44-3.91,13.19-6.1,2.3,4.3,4.65,8.42,6.74,12.67a9.07,9.07,0,0,0,7.28,5.29c4.44.69,8.84,1.69,13.65,2.63-.61,4.88-1,9.49-1.82,14a9,9,0,0,0,2.51,8.63c3.27,3.31,6.34,6.82,9.71,10.48-3.39,3.54-6.5,7-9.85,10.21a8.5,8.5,0,0,0-2.77,7.76c.6,4.74,1,9.5,1.6,14.66-4.52.83-8.77,1.85-13.07,2.32a9.45,9.45,0,0,0-8,5.49c-2.06,4-4.35,7.88-6.73,12.17-4.18-2-8.15-3.85-12-5.9A10,10,0,0,0,68,108c-4,2.1-8.11,3.87-12.43,5.9-2.22-4.14-4.39-7.93-6.29-11.85-1.61-3.34-3.78-5.44-7.69-5.93-4.59-.57-9.11-1.72-14.18-2.73.68-4.85,1.72-9.54,1.86-14.25a13.52,13.52,0,0,0-2.18-7.81C24.33,67.4,20.77,64.1,17.3,60.3Zm119.34,82.78c-6.6,0-13.28.16-19.93-.07-3.48-.12-5.58,1.1-7.17,4.2-2.74,5.34-5.85,10.5-9.12,16.31-5.22-9-10.13-17.48-15-26-1.92-3.32-3.92-6.6-5.72-10-1.51-2.83-3.35-5.1-6.86-5s-5.29,2.38-6.85,5.14q-9.12,16.11-18.37,32.13c-.47.83-1,1.61-1.93,3.06-2.8-4.82-5.69-9.1-7.84-13.73s-5.35-6.59-10.62-6.16c-5.84.48-11.73.11-18.53.11,2.29-4.16,4.19-7.68,6.15-11.17,5-9,10-17.94,15.22-26.82.85-1.46,2.79-3.66,3.74-3.43,3.24.75,7.4-.6,9.47,3.54,1.83,3.68,3.88,7.25,5.86,10.85,2.35,4.3,5.42,5.43,9.9,3.61,1.77-.72,3.73-1.24,5.22-2.37,5.86-4.43,11.24-3.36,17.31,0C92,123.21,93.34,122.56,99,112.18a15.07,15.07,0,0,0,1.62-2.85c1.66-5.93,6.42-6.87,11.49-7.14a3.73,3.73,0,0,1,3,1.36c7.32,12.7,14.51,25.48,21.71,38.26C136.88,142,136.74,142.31,136.64,143.08Z"/><path d="M73,26.32a34.25,34.25,0,1,0,.11,68.5A34,34,0,0,0,107.3,60.59,34.36,34.36,0,0,0,73,26.32Zm-.06,61.81A27.45,27.45,0,1,1,100.6,60.7,27.8,27.8,0,0,1,72.91,88.13Z"/><path d="M87.54,55.23c-5.43,5.42-10.87,10.82-16.25,16.28-2.36,2.39-4.65,2.63-7.08.18C62,69.45,59.43,67.46,57.7,64.9c-.86-1.27-.19-3.58-.21-5.41,1.82.12,3.93-.27,5.4.52,1.72.91,2.87,2.85,4.71,4.83,5.22-5.3,9.93-10.06,14.61-14.84,1.87-1.92,3.87-3.45,6.3-1.07S89.41,53.36,87.54,55.23Z"/></g></g></svg>