<svg xmlns="http://www.w3.org/2000/svg" viewBox="0 0 169.14 166.48"><g id="Calque_2" data-name="Calque 2"><g id="Calque_1-2" data-name="Calque 1"><path d="M165.55,76.38a4.39,4.39,0,0,1-.69-2.26c-.16-2.9.08-5.86-.37-8.71C163,56.2,157.72,50,148.86,47.22s-16.49-.47-22.93,6.07a22.14,22.14,0,0,0-5,8.46,2.72,2.72,0,0,1-1.22,1.35,1.36,1.36,0,0,1-1.26-.39,3.82,3.82,0,0,1,0-2c3.28-11.07,15.28-18.73,26.77-17.14l3.35.45c0-4.46.5-8.87-.11-13.11-1.13-7.76-5.8-13.07-13.4-15.09s-14.36-.08-19.55,6.15c-.63.76-1.28,1.34-2.21.68-1.11-.79-.49-1.6.1-2.39a18.33,18.33,0,0,1,9.19-6.67c.86-.29,1.73-.61,2.57-.91C123.09,4,113.52-1.63,104.87.58c-7.93,2-13,8.81-13,17.5q0,62.66,0,125.32a28.45,28.45,0,0,0,.26,3.45A22.48,22.48,0,0,0,134,155.1a1.83,1.83,0,0,0-.42-.24c-.32-.08-.65-.14-1-.21a23,23,0,0,1-14.85-9c-.6-.78-1.21-1.64-.13-2.4s1.71-.12,2.36.7c5,6.46,11.64,9.07,19.74,8A20.45,20.45,0,0,0,157,133.09a4.22,4.22,0,0,1,1.19-2.52,23.06,23.06,0,0,0,5.84-8.68,20.77,20.77,0,0,0-.69-15.68c-.84.54-1.51,1-2.21,1.42-7.63,4.68-15.52,5.2-23.5,1.07a22,22,0,0,1-11.42-14.42c-.15-.55.52-1.32.81-2a9.34,9.34,0,0,1,1.72,1.14c.3.32.32.92.48,1.38a20.43,20.43,0,0,0,37.93,1.93,56.07,56.07,0,0,0,2-5.85V85C168.31,81.94,167.46,79,165.55,76.38Zm-37.66,61.88a2.18,2.18,0,0,1,1.61-.92c1.84-.14,3.76.22,5.53-.18a10.7,10.7,0,0,0,7.9-7.21c.36-1,.67-2.08,2-1.59s1,1.54.63,2.53a14.45,14.45,0,0,1-13.65,9.52l-2.91-.52C128,139.72,127.52,139.07,127.89,138.26ZM101.07,40.91c.23-1.08,1-1.23,2-1,5.29,1,10.12-1.06,12.47-5.21a11.58,11.58,0,0,0,1-2.26c.3-1,.75-1.83,1.91-1.45s1,1.43.74,2.34a13.45,13.45,0,0,1-6,7.55A15.39,15.39,0,0,1,105.41,43c-.81-.11-1.9-.23-3-.44C101.55,42.44,100.85,42,101.07,40.91Zm20.65,72.31A14.19,14.19,0,0,1,108.56,123c-1.14-.17-2.29-.27-3.41-.53-.89-.2-1.62-.83-1.14-1.76a2.06,2.06,0,0,1,1.74-.88,11.19,11.19,0,0,0,13.38-7.66c.27-.93.72-1.7,1.85-1.29S122,112.23,121.72,113.22Zm4.73-33.3c-.18.56-.94.92-1.45,1.36l-.27-.56a37.29,37.29,0,0,0-5.19.27,10.11,10.11,0,0,0-7.88,6.71c-.12.3-.21.62-.31.93-.3,1-.89,1.58-1.94,1.24s-1-1.15-.74-2c1.48-4.91,4.7-8.2,9.63-9.41,2.16-.52,4.55-.17,6.83-.13C126.09,78.32,126.77,79,126.45,79.92Zm25.26-8.59c-1.13.39-1.68-.43-2-1.41-2.08-5.79-7.13-8.73-13.08-7.57-1,.19-1.71.12-1.95-.89s.31-1.55,1.29-1.71l3.41-.49A14.35,14.35,0,0,1,152.43,69C152.75,70,152.84,70.94,151.71,71.33Z"/><path d="M77,15.94c-.61-6.7-3.9-11.66-10-14.4S55.08-.19,49.8,3.82a16.2,16.2,0,0,0-6,8.93A20.22,20.22,0,0,1,55.49,20c.63.81,1.34,1.72.32,2.58s-1.76.06-2.43-.77c-4.67-5.61-10.78-7.5-17.75-6.29-7.27,1.26-12.14,5.69-14.44,12.7-1.68,5.13-.69,10.45-1,15.82l3.63-.5c11.5-1.59,23.38,6,26.85,17.08A3,3,0,0,1,50.92,62a1.54,1.54,0,0,1-.85,1,2,2,0,0,1-1.45-.41A3,3,0,0,1,48,61.34,22.3,22.3,0,0,0,26.15,46.19c-10.26.42-18.88,7.16-21.1,17-.79,3.49-.5,7.2-.78,10.81a5,5,0,0,1-.71,2.43C.24,81-.56,86.07.35,91.48a20.62,20.62,0,0,0,19.12,17.13A20.27,20.27,0,0,0,40,94.68a4.18,4.18,0,0,1,.57-1.52c.38-.41,1.22-.92,1.52-.76a3,3,0,0,1,1,1.61c.1.28-.18.73-.29,1.09A23.25,23.25,0,0,1,8.32,107.85L5.85,106.3A20.46,20.46,0,0,0,9.48,129a11.19,11.19,0,0,1,3,6.07c1.59,8.63,6.82,14.38,15.31,16.53s15.7-.59,21.31-7.36c.66-.8,1.33-1.75,2.4-1s.36,1.86-.29,2.69A22.68,22.68,0,0,1,38,154.34l-2.86.65a22.41,22.41,0,0,0,30.24,8.75c8-4.49,11.81-11.53,11.81-20.66q0-62.34,0-124.67C77.16,17.59,77.11,16.77,77,15.94ZM34.42,61.43a1.86,1.86,0,0,1-1.55.94C26,61.5,22.14,63.65,19.41,70.1c-.38.9-1,1.6-2,1.21s-1-1.27-.71-2.22a14.37,14.37,0,0,1,13.64-9.83,17,17,0,0,1,3.21.63A1.79,1.79,0,0,1,34.42,61.43Zm5.26,78.68c-.86.13-1.73.23-2.23.29a14.24,14.24,0,0,1-13.71-9.28c-.11-.31-.34-.66-.27-.92a13,13,0,0,1,.76-1.76c.59.34,1.37.54,1.73,1,1.15,1.64,1.89,3.64,3.26,5,2.72,2.8,6.26,3.48,10.05,2.86,1-.16,1.84-.24,2.07.94S40.7,140,39.68,140.11Zm5.49-59.24c-.37.07-.82.25-1.13.11-.52-.23-1.28-.62-1.34-1a1.76,1.76,0,0,1,.84-1.49,25,25,0,0,1,3.69-.69,13.93,13.93,0,0,1,13,9.25c.11.31.34.68.26.93a19.7,19.7,0,0,1-.91,2,18.61,18.61,0,0,1-1.71-1.19c-.21-.18-.21-.6-.32-.91A10.94,10.94,0,0,0,45.17,80.87Zm18.41,41.72c-1,.18-2.06.29-3.09.43a14,14,0,0,1-13-9.71c-.31-1-.58-2,.74-2.44s1.59.61,1.93,1.53c2.18,5.87,6.78,8.54,13,7.45,1.12-.21,1.95,0,2.14,1.09S64.5,122.43,63.58,122.59Zm2.91-79.95c-1,.22-2.06.31-3.09.45A14.42,14.42,0,0,1,50,33.59c-.34-1-.81-2.16.6-2.64s1.64.64,2,1.62c2,5.53,7.27,8.46,13.3,7.33,1.11-.2,1.89-.08,2.15,1.07S67.36,42.46,66.49,42.64Z"/></g></g></svg>