<svg xmlns="http://www.w3.org/2000/svg" viewBox="0 0 144 143.97"><g id="Calque_2" data-name="Calque 2"><g id="Calque_1-2" data-name="Calque 1"><path d="M142,144H79.85c-2.58-1.62-2.08-4.05-1.53-6.37,1.6-6.79,5.92-11,12.63-12.69,2.4-.62,4.81-1.17,7.21-1.77,1.53-.37,2-1.53,1-2.76a20.44,20.44,0,0,1-3.59-7.23c-.1-.4-.25-.93-.54-1.09-2.35-1.27-3-3.4-3.22-5.86-.11-1.49-.34-3-.43-4.46a4.7,4.7,0,0,1,1.75-4,2.09,2.09,0,0,0,.68-2.07,35.46,35.46,0,0,1,.06-6,8.93,8.93,0,0,1,7.21-8c4.13-.94,8.14-2.2,12.22-3.27a16.93,16.93,0,0,1,10.49.61,11,11,0,0,1,6.48,6.43,7.2,7.2,0,0,1-1.37,8,3.59,3.59,0,0,0,0,4.51c1.72,1.71,1.76,3.82,1.46,6a21.07,21.07,0,0,1-.59,4,20.43,20.43,0,0,1-2,3.56,8.69,8.69,0,0,0-1.15,1.78,20.74,20.74,0,0,1-3.67,7.2c-1.09,1.39-.82,2.25.84,2.67,2.67.68,5.38,1.24,8,2,6.93,2,10.9,6.76,12.07,13.85C144.21,141,144,142.85,142,144Z"/><path d="M87.55,66.82a14.6,14.6,0,0,0-8.24-6.2,14.93,14.93,0,0,0-12.68,1.86c-.4-.45-.73-.85-1.09-1.21L34.64,30.36c-1.52-1.52-3.61-2.82-4.37-4.67s-.19-4.24-.21-6.39c-.08-6.5.72-4.71-3.87-9.37-3-3-6-6-8.94-8.94A3,3,0,0,0,13.91.23,2.85,2.85,0,0,0,12,3.06c0,2.43,0,4.86,0,7.3,0,.5,0,1-.07,1.62-2.74,0-5.36.06-8,0A3.8,3.8,0,0,0,0,14.08v2c.38.46.72,1,1.14,1.39,3.8,3.81,7.57,7.66,11.46,11.39a5,5,0,0,0,3,1.19c2.9.16,5.81.1,8.71,0a3.05,3.05,0,0,1,2.46,1q17.36,17.42,34.76,34.8c.29.29.57.6.85.9-4.91,8.2-1.61,16.33,3.48,20.16A15,15,0,0,0,87.55,66.82ZM81.67,80.94a9.05,9.05,0,0,1-12,1.32c-3.91-2.84-4.53-8.15-2.68-10.93,1.76,1.77,3.48,3.54,5.24,5.25a5.51,5.51,0,0,0,1.81,1.27,2.94,2.94,0,0,0,3.43-1.22,3.05,3.05,0,0,0-.4-3.75c-1.48-1.56-3-3.07-4.56-4.58a12.74,12.74,0,0,0-1.33-1c2.1-1.89,7.32-1.57,10.23,1.55A9.05,9.05,0,0,1,81.67,80.94Z"/><path d="M138,74.9c0,2.48-1.37,4-3.39,3.91a2.74,2.74,0,0,1-2.73-3.07,53.2,53.2,0,0,0-3.26-19.54C120.71,35.53,106,22.8,84.09,18.88c-14.16-2.54-27.41.44-39.61,8.08l-.72.44a3.08,3.08,0,0,1-4.42-.86,3,3,0,0,1,1.14-4.24,59.75,59.75,0,0,1,21.9-9c4.17-.77,8.42-1.09,12.18-1.55C101.78,13.27,121.3,25.56,132.74,50A59.22,59.22,0,0,1,138,74.9Z"/><path d="M72.82,135a2.94,2.94,0,0,1-2.76,2.74,61.42,61.42,0,0,1-28.2-9.33c-14.48-9.25-24.1-22.17-28.1-38.93C9.6,72.14,12.57,55.84,22.13,40.74c1.17-1.84,2.81-2.33,4.38-1.37s1.91,2.81.71,4.65a56.47,56.47,0,0,0,1.27,63.6,55.82,55.82,0,0,0,33.22,22.66,79.93,79.93,0,0,0,8,1.34C71.76,131.91,73,133.16,72.82,135Z"/><path d="M83.67,113c-2.94.5-5.91.84-7.4,1C56,113.75,40.41,100.9,36.68,82.46a37.82,37.82,0,0,1,2.8-23.56c1-2.14,2.59-2.93,4.32-2.12S46,59.26,45,61.32a31.48,31.48,0,0,0-2.91,15.4c.91,12.71,7,22.08,18.33,27.91,7,3.59,14.38,4.1,22,2.46a3,3,0,1,1,1.24,5.9Z"/><path d="M113.57,69.5A3.18,3.18,0,0,1,111,72.82a2.93,2.93,0,0,1-3.33-2.16,70.26,70.26,0,0,0-1.93-7.15c-4.94-12.3-14.08-19.42-27.17-21.24a30.5,30.5,0,0,0-16.71,2.54l-.77.35c-1.94.81-3.63.27-4.36-1.41s0-3.24,2-4.15c23-10.73,50.35,3.6,54.63,28.64C113.42,68.75,113.52,69.25,113.57,69.5Z"/></g></g></svg>