<svg xmlns="http://www.w3.org/2000/svg" viewBox="0 0 186.08 184.89"><g id="Calque_2" data-name="Calque 2"><g id="Calque_1-2" data-name="Calque 1"><path d="M147.27,115.58c-2.46,30.09-17.85,51.27-45.22,63.63-10.88,4.91-22.5,6.4-34.41,5.37a72.21,72.21,0,0,1-48-23.36A71.43,71.43,0,0,1,.75,121.68,73.67,73.67,0,0,1,50.16,41.27a72,72,0,0,1,31.69-3.39,73.91,73.91,0,0,1,29.64,9.91c.56.32,1.34.75,1.45,1.25a3.59,3.59,0,0,1-.29,2.51c-.62,1-1.7.92-2.74.37-3-1.56-5.9-3.27-9-4.59A69.34,69.34,0,1,0,52.81,177.22a70.59,70.59,0,0,0,20.93,3.29A69.46,69.46,0,0,0,142,124.11c3.2-16.78.39-32.67-8.05-47.54-.35-.62-.74-1.23-1-1.87a1.93,1.93,0,0,1,.83-2.76,2,2,0,0,1,2.84.55,25,25,0,0,1,1.57,2.63C145,87.73,148.44,101.21,147.27,115.58Z"/><path d="M84.45,161.71A51.69,51.69,0,0,1,60.56,61.16c13.09-3.48,25.68-1.82,37.69,4.41,1.62.85,2.11,1.94,1.5,3.16s-1.92,1.57-3.55.7A46.38,46.38,0,0,0,69.29,64,47,47,0,0,0,27.61,100.7c-4.77,22,5.7,43.54,25.74,53.18a47.24,47.24,0,0,0,66.65-33c.66-3.24.89-6.56,1.32-9.84a50.61,50.61,0,0,0-5.6-21.8,11.2,11.2,0,0,1-.56-1.09,2.14,2.14,0,0,1,1-3,2,2,0,0,1,2.82,1,82.45,82.45,0,0,1,4,9.25A51.47,51.47,0,0,1,84.45,161.71Z"/><path d="M166.74,37.65c-.29-.75-1.46-1.3-2.35-1.64a7.17,7.17,0,0,0-2.37-.08H150.26c0-4.68,0-9,0-13.37,0-1.36-.23-2.62-1.65-3.19s-2.43.16-3.4,1.14C139.13,26.63,133,32.68,127,38.87a5.52,5.52,0,0,0-1.35,3.38c-.16,4.28-.12,8.57,0,12.85a4,4,0,0,1-1.34,3.2q-15.43,15.35-30.8,30.75c-.46.46-1,.89-1.4,1.32a28.58,28.58,0,1,0-1.44,45.1A27.73,27.73,0,0,0,101.78,118c1.71-8.78-.46-16.69-5.93-23.77.26-.3.43-.55.64-.75q16-16,32-31.92a3.54,3.54,0,0,1,2.25-.82c4.41-.07,8.82.07,13.22-.1a5.86,5.86,0,0,0,3.52-1.47c5.59-5.4,11-10.94,16.54-16.44a12.27,12.27,0,0,0,2.15-2.24A3.83,3.83,0,0,0,166.74,37.65ZM92.05,126.94A23.33,23.33,0,1,1,55.81,97.56C63.89,87.83,78.87,86.2,88,94l-9.61,9.6c.36-1.8.7-3.55,1.07-5.29.62-2.85.11-4.23-1.75-4.62s-2.74.6-3.34,3.4c-1,4.83-2,9.67-3,14.5a2.67,2.67,0,0,0,3.26,3.35q7.9-1.6,15.77-3.26c2.28-.48,3.26-1.73,2.82-3.48-.39-1.52-1.75-2.09-3.87-1.66s-4.4.88-6.34,1.27l9.3-9.29C97.53,103.62,99.85,117.05,92.05,126.94ZM152,47.33c-1.05,1-2.08,2.08-3.12,3.12C143.27,56,143.27,56,135,55.21a12.17,12.17,0,0,1,.87-1.13c2.37-2.39,4.76-4.75,7.13-7.15,1.53-1.54,1.71-3.19.53-4.31s-2.72-.89-4.18.57c-2.68,2.67-5.32,5.36-8,8.05l-.48-.23c0-2.67,0-5.35,0-8a1.85,1.85,0,0,1,.44-1.14C135.75,37.38,140.2,33,145,28.17v9.11c0,3.12.81,3.93,3.89,3.93h9.28C155.83,43.5,153.89,45.41,152,47.33Z"/><path d="M138.37,69.46c-5-4.27-7.72-9.52-5.11-16.57a14.43,14.43,0,0,1-16.57-5c-2.77-3.46-2.62-8.26.39-13.08,3.6-5.76,7-7.12,14.09-5.52-.56-1.72-1.15-3.32-1.62-5a16.57,16.57,0,0,1,2.57-14.79,25.75,25.75,0,0,1,9.43-8.31c5.06-2.52,8.5-1.3,10.86,3.83A24.25,24.25,0,0,1,154,19.48c-.92,5.45-2.24,10.84-3.42,16.39l1.94-.62c6.95-2.26,14-4.08,21.37-3.3a27.06,27.06,0,0,1,9,2.8c3.13,1.56,3.8,4.18,2.8,7.59a20.35,20.35,0,0,1-26.36,13.4l-2.65-1c2.77,7.22-.5,11.73-6.4,14.94C146.29,71.83,142.07,72.64,138.37,69.46Z"/></g></g></svg>