<svg xmlns="http://www.w3.org/2000/svg" viewBox="0 0 499.97 469.54"><g id="Calque_2" data-name="Calque 2"><g id="Calque_1-2" data-name="Calque 1"><path d="M494.49,45c-11-25.2-30.17-40.68-57.41-44.21C407.62-3.09,384,8.07,366.73,32.33c-1.47,2.06-2.47,3.76-5.69,3C343,31.2,324.89,27.63,307,23.23c-12.09-3-21.5-.18-30.39,8.74Q143.45,165.59,9.92,298.82c-1.38,1.38-2.8,2.73-4.06,4.22-7.72,9-7.88,21.88-.09,30.79,4.17,4.76,8.76,9.18,13.37,13.54,3.6,3.4,7.8,3.23,10.81,0,2.81-3,2.74-7.08-.44-10.49-2.87-3.1-5.94-6-8.93-9-7.64-7.65-7.65-10.93,0-18.54L287.29,42.56c1.15-1.15,2.13-2.76,3.52-3.31,2.71-1.09,5.9-2.69,8.48-2.14,33,7,65.85,14.57,98.89,21.32,8.3,1.69,12.27,5.61,13,13.61a19.35,19.35,0,0,0,.5,2.38l12.23,56A54.79,54.79,0,0,1,393,119.26c.69-1.14,1.21-2,1.7-2.8,7.73-13.18,4.68-29.52-7.17-38.43-11.33-8.52-28.38-6.76-38.65,4-8.27,8.65-9.93,22.27-4,33a29,29,0,0,0,30.44,14.6c2.06-.39,4.94-1,6.27,0a77.67,77.67,0,0,0,42.72,16c1.28.09,3.14,2,3.51,3.33,1.81,6.73,3.26,13.55,4.72,20.37a11.09,11.09,0,0,1-3.39,11c-9.55,9.3-19,18.78-28.31,28.27-3.66,3.71-3.73,8.14-.52,11.22s7.24,3,10.85-.57c10.19-10,20.38-20.11,30.3-30.43a21.69,21.69,0,0,0,5.92-20.21c-1.64-8.06-3.33-16.11-5-24.06a5.75,5.75,0,0,1,1-.68c1.24-.38,2.51-.68,3.75-1.07,25.79-8.15,42.7-25.09,50.41-51.08.91-3.06,1.61-6.19,2.41-9.29V62.92C498.18,56.91,497,50.65,494.49,45ZM381.72,108.66c-2-3.11-3.66-5.67-5.38-8.17-2.51-3.69-6.6-4.83-10.09-2.89-3.71,2.06-4.82,6.3-2.62,10.49,1.05,2,2.3,3.89,3.49,5.88-4.85-.09-9.18-3.94-10.51-9.27a14.33,14.33,0,0,1,6.5-15.5,13.63,13.63,0,0,1,16.57,1.86C384.44,95.52,385.38,101.78,381.72,108.66ZM485,76.73c-2.29,27-22.36,49.45-46.11,52.31q-5.08-23.16-10.2-46.37c-1.35-6.17-2.56-12.37-4-18.52-2.37-10-8.4-16.63-18.63-19-8.49-2-17-3.85-25.58-5.79,11.68-19.82,41-29.46,64.65-21.74A57.44,57.44,0,0,1,485,76.73Z"/><path d="M383.59,246.86Q276.8,353.66,170.05,460.47c-5.41,5.42-11.44,9-19.26,9.07a23.84,23.84,0,0,1-16.6-7.07q-45-45-90-90.06c-3.93-3.94-4.15-8.39-.84-11.55s7.4-2.84,11.51,1.26q43.68,43.62,87.31,87.28c7.22,7.21,10.63,7.2,17.9-.07L372.91,236.45c6-6,9.89-6.8,13.64-2.89C390.09,237.24,389.2,241.25,383.59,246.86Z"/><path d="M307.89,216.29c-2,3.85-5.53,4.65-9.59,3.91q-23.43-4.3-46.88-8.53c-.94-.17-1.89-.23-2.84-.34-.15.32-.29.65-.43,1L272,235.91c1.15,1.15,2.35,2.26,3.41,3.49,3.13,3.63,3.11,8,0,10.89s-7.1,2.75-10.51-.37c-2.76-2.52-5.31-5.26-8-7.9-11.95-12-23.87-23.94-35.88-35.84-3-3-5.05-6.18-2.82-10.33s5.82-4.35,10.1-3.53c16.85,3.23,33.74,6.21,50.62,9.28.6-.69,1.21-1.38,1.82-2.06-1.51-.66-3.37-.95-4.49-2-8.21-7.88-16.3-15.87-24.36-23.91-3.64-3.63-3.93-8.12-.95-11.19s7.54-3,11.25.58c14.55,14.18,29,28.46,43.5,42.69C308.86,208.75,309.94,212.35,307.89,216.29Z"/><path d="M153.78,356.67c-2.73-13-11.94-19.95-27.36-20.48-.31-.72-.56-1.31-.8-1.9-6.79-17.41-25-21.35-38.34-8.26-3.71,3.64-7.41,7.3-11,11-4.25,4.39-4.28,8.32.06,12.69q21.82,21.94,43.79,43.77c4.15,4.11,7.8,4.23,11.9.28,5.49-5.31,10.95-10.68,16-16.36A22.87,22.87,0,0,0,153.78,356.67Zm-43.93-11.35c-2.5,2.95-5.34,5.61-8.3,8.67L90.79,343.18c2.92-2.74,5.7-5.61,8.75-8.14s6.58-2.52,9.68.24A7,7,0,0,1,109.85,345.32Zm27.24,22c-3.28,3.77-7.15,7-11.06,10.8l-13.85-14.29c3.58-3.36,7.25-7.18,11.31-10.53a9.83,9.83,0,0,1,13.6,14Z"/><path d="M196.55,310.84c-8-.62-16.09-1.21-23.53-1.77.84-5.16,2.4-9.94,2.21-14.64-.39-9.55-5.42-16.64-14.29-20.33-9.39-3.91-18.22-2.09-25.9,4.4-4,3.35-7.47,7.23-11.15,10.9-6.39,6.38-6.41,9.16-.16,15.43q15.33,15.35,30.69,30.68c4.14,4.14,8,8.6,12.55,12.24a10.38,10.38,0,0,0,7.89,1.8c1.93-.46,4.43-3.44,4.54-5.43.15-2.5-1.35-5.58-3.07-7.62-3.69-4.35-8-8.19-12.72-12.93,11.64.69,22,1.42,32.37,1.89,5.12.23,8.13-2.41,8.4-6.73C204.67,314.12,201.85,311.25,196.55,310.84Zm-38-8.9a17.22,17.22,0,0,1-1.52,1.89c-1.91,2.19-3.84,4.36-6,6.81-4.5-5.05-8.46-9.48-12.88-14.42,2-1.92,4.36-4.57,7.09-6.81,3.73-3.05,9.39-2.88,12.53,0S161.3,297.82,158.56,301.94Z"/><path d="M348.77,164.79c0-16.77-12.29-33.65-28.75-40.38q-19.65-8-35,6.64-6,5.73-11.73,11.73c-3.93,4.09-4,7.92,0,12q21.51,21.62,43.23,43c3.88,3.82,7.63,3.75,11.57-.09,4.66-4.53,9.24-9.17,13.56-14A26.78,26.78,0,0,0,348.77,164.79ZM322.54,182,289,148.25c5.44-5.24,10-13.18,19.82-11.44,12.08,2.12,19.9,9.92,24.15,21.05S329.8,175.45,322.54,182Z"/><path d="M253.39,256.81c-20-9.31-40.16-18.27-60.26-27.38-4-1.81-7.66-1.51-10.74,1.61s-3.2,6.87-1.4,10.81c3.57,7.82,7,15.69,10.57,23.53,5.52,12.28,11,24.59,16.58,36.84,2.13,4.66,6.19,6.2,10.35,4.22,4-1.9,5.14-5.56,3.18-10.32a53.05,53.05,0,0,0-3-6.65c-1.42-2.45-.78-4.07,1.15-5.91,4.59-4.37,9.24-8.73,13.39-13.51,3-3.48,5.8-4.42,9.81-1.85a23.4,23.4,0,0,0,6.71,2.78c4.68,1.18,9-2.22,9.12-8.85C257.68,261,256,258,253.39,256.81ZM210.6,271.36c-3.26-7.28-6.33-14.14-9.95-22.21l22.18,10.06Z"/></g></g></svg>