<svg xmlns="http://www.w3.org/2000/svg" viewBox="0 0 509.95 509.97"><g id="Calque_2" data-name="Calque 2"><g id="Calque_1-2" data-name="Calque 1"><path d="M509.86,109.33c-.08-22.35-19.05-41.18-41.44-41.28-24.08-.11-48.15,0-72.23,0h-5.68c-6.18-22.69-24.3-34.94-47.06-34.21-27.41.89-54.87.21-82.31.21h-5.81V51h6.11q42.49,0,85,0c12.5,0,21.62,6.08,25.21,16.72a11.76,11.76,0,0,1-1.42.23c-24.26,0-48.51,0-72.76,0A42.14,42.14,0,0,0,255,110.47q-.08,51,0,102A42.16,42.16,0,0,0,297.37,255c20,.06,40,0,60,0h5.89c-.15,1.25-.19,1.95-.33,2.63-1.9,9.33-3.85,18.66-5.7,28-.8,4-.45,7.88,3.36,10.4s7.34,1.84,10.84-.68a8.31,8.31,0,0,1,2.2-.79v33.2c-8.33-8.42-15.77-16.16-23.44-23.65-10.15-9.9-22.46-13.43-36.12-10.1-29.54,7.19-39.77,42.58-18.68,64.48,14,14.53,28.49,28.6,42.75,42.88,7.25,7.26,7.25,7.26,2.9,16.23A12.62,12.62,0,0,0,340,420c-1,4.17-3.51,5.09-7.69,5.09Q229,424.88,125.7,425H119c0,14.15,0,27.74,0,41.32,0,25.21,18.32,43.65,43.39,43.65q146.84,0,293.68,0c8.81,0,11.31-2.51,11.31-11.34q0-79.67,0-159.35c0-21.48-7.15-40.49-20.32-57.34q-9.15-11.71-18.21-23.49A23.58,23.58,0,0,1,427.1,255c14.13,0,27.57.07,41,0,22.74-.13,41.67-18.87,41.75-41.53Q510,161.39,509.86,109.33ZM335.19,493H165.36C146.13,493,136,482.8,136,463.46c0-6.89,0-13.78,0-21.07H332.94c-1.88,17.56.14,34.18,8.52,50.59Zm111.38-175.5a91.39,91.39,0,0,1,3.69,23.44c.33,49.58.17,99.16.16,148.73,0,.87-.09,1.74-.17,3.33H436.57c-23.54,0-47.09-.08-70.63.09-3.47,0-5.46-1-7.14-4-13.55-24.37-12.7-48.26,2.25-71.67,6.33-9.92,6.32-11.18-1.89-19.39-17-17-34.15-33.95-51-51.12-12.08-12.29-6.79-31.87,9.66-36.1,8.23-2.11,15.27.47,21.23,6.45q33.39,33.48,66.83,66.88a52.63,52.63,0,0,1,3.83,4.92l12.24-13.46c-8.92-8.86-18.45-18.08-27.62-27.64a12.43,12.43,0,0,1-3.22-7.69q-.4-27.35,0-54.71a9.45,9.45,0,0,1,3.25-6.38c5.78-4.61,12-8.71,18.54-13.37C424.53,283,440.84,296.81,446.57,317.48ZM491,221.72c-4,9.9-13.05,16.16-24.51,16.26-13.1.11-26.2-.16-39.29.16a18,18,0,0,0-9.21,3c-13.11,9-26,18.35-39.79,28.2,1.5-7.28,2.8-13.31,4-19.36,1.47-7.62-2.07-11.9-9.88-11.91-24.42,0-48.85,0-73.28,0-11.85,0-21-6.19-25-16.26-1.36-3.39-1.19-5.57,2.14-8q26.12-19.12,51.81-38.83c2.83-2.16,4.56-2,7.28.1,18.44,14,37,27.89,55.56,41.8,7.62,5.71,9.17,5.77,16.94.6,13.09-8.73,26.22-17.41,39.24-26.24,2.51-1.71,4.31-1.93,7-.1q17.26,11.88,34.86,23.26C492,216.39,492.32,218.38,491,221.72Zm1.95-25.3-33.84-22.53c-8.13-5.42-9.12-5.43-17.06-.14l-42.25,28.17q-20.91-15.69-41.91-31.41c-6.65-5-13.35-9.91-19.93-15-4.43-3.4-8.54-3.32-13,.06-15.93,12.07-32,24-48,36-1.35,1-2.77,1.93-5,3.48v-6q0-37.69,0-75.39C272,95.5,282.41,85,300.55,85q82,0,164,0c17.81,0,28.31,10.55,28.33,28.41C492.94,140.68,492.92,167.92,492.92,196.42Z"/><path d="M237.94,41.6C237.87,18.93,219,.09,196.25.06Q119-.06,41.78.06C19.08.09.15,19,.08,41.59q-.15,51.76,0,103.53c0,19.56,13.77,37.39,33.06,40.56,11.73,1.93,24,.83,35.94,1.43a16.37,16.37,0,0,1,8.18,2.63c17.39,12.16,34.63,24.53,51.84,36.94,3.76,2.71,7.51,4.16,11.68,1.39s4.14-7,3.22-11.38c-2-9.66-3.91-19.34-5.89-29.23a9.82,9.82,0,0,1,1.63-.4c18.93,0,37.86,0,56.79-.09,22.37-.14,41.32-19,41.41-41.31Q238.12,93.64,237.94,41.6ZM221,143.43c-.06,15.69-11.12,26.48-27,26.56-21.42.1-42.84,0-64.26,0-8.6,0-12,4.12-10.26,12.44q.9,4.41,1.78,8.82c.59,2.93,1.17,5.86,2,9.95-13.38-9.56-25.75-18.69-38.49-27.28a24,24,0,0,0-11.6-3.76c-9.71-.53-19.47-.1-29.2-.2-15.82-.16-26.8-11-26.86-26.69q-.16-49.92,0-99.85C17.14,28,28.16,17.08,43.67,17.05q75.41-.14,150.82,0c15.46,0,26.4,11,26.46,26.51Q221.16,93.51,221,143.43Z"/><path d="M220.92,314.18c-.26-17.53-8.5-30.63-24.31-37.9-7-3.21-15.15-3.89-23.59-5.91,1.36-5.61,2.78-12.14,4.54-18.58,1.24-4.53,1.85-8.82-2.36-12.07s-8.23-1.49-12.27.84c-16.67,9.63-33.34,19.28-50.18,28.61a22.91,22.91,0,0,1-10.41,2.71c-20.17.25-40.34.06-60.51.14C19.1,272.12.21,290.9.08,313.51q-.15,26.55,0,53.09c.14,22.31,19,41.29,41.36,41.34q69,.17,138,0c22.63-.05,41.39-19,41.51-41.73C221.05,348.87,221.18,331.52,220.92,314.18Zm-17,51.45c-.29,14.35-11.09,25.19-25.47,25.26q-67.92.33-135.85,0C28,390.82,17.3,379.71,17.1,365.09c-.22-16.45-.15-32.91,0-49.36.11-15.74,11-26.62,26.79-26.71,21-.11,42.1.12,63.14-.17a25.72,25.72,0,0,0,11.4-3.1c12.56-6.76,24.87-14,38.14-21.56-1.09,4.65-1.93,8.38-2.84,12.1-2,8.37,1.21,12.57,9.69,12.72,6.53.11,13.17-.3,19.55.76,12.42,2.07,20.7,11.77,20.95,24.38Q204.39,339.89,203.9,365.63Z"/><path d="M399.37,102a34,34,0,1,0,34.05,33.78A33.65,33.65,0,0,0,399.37,102Zm-.07,50.92a17.41,17.41,0,0,1-16.82-17.07c0-8.92,8.23-17,17.09-16.82,9.08.15,16.92,8.13,16.81,17.09S408.28,153.05,399.3,152.94Z"/><rect x="246.93" y="459.1" width="16.14" height="16.52"/><path d="M178.48,86.9c0-9.19-5.74-12.74-14-8.71-6.48,3.14-12.9,6.41-19.34,9.62l-1-.79a42.79,42.79,0,0,1,2.83-5A29.45,29.45,0,0,0,152.35,57c-4.85-21.52-31.58-31.37-50.27-14.4-.79-.59-1.35-1-1.89-1.41-12.49-10.06-29-9.66-40.07,1C48.82,53,47.85,69.61,57.53,82.61a11.22,11.22,0,0,1,1.92,6.21c.16,15.05.07,30.1.09,45.15,0,7.75,2.77,10.52,10.51,10.53,20.18,0,40.36.07,60.54-.06,3.44,0,7.57.1,10.11-1.67s3.45-5.83,5.22-9.15c5.83,2.91,12.11,6.11,18.46,9.18,8.35,4.06,14.08.55,14.1-8.63Q178.54,110.55,178.48,86.9ZM68.08,64.06a13.15,13.15,0,0,1,12.68-13C87.5,51,93.65,57.27,93.47,64A13.16,13.16,0,0,1,80.8,76.46,13.16,13.16,0,0,1,68.08,64.06Zm59,63.08H76.76V93.79h50.33ZM123,76.45c-6.64-.2-12.47-6.16-12.42-12.69.06-6.84,6.2-12.85,13-12.69A13.18,13.18,0,0,1,136,63.77C135.94,70.58,129.73,76.65,123,76.45Zm38.19,45.4c-5.34-2.63-10.13-4.81-14.74-7.32-3-1.61-2.87-6.49.15-8.11,4.61-2.48,9.38-4.67,14.59-7.24Z"/><rect x="34.3" y="348.87" width="152.45" height="16.33"/><rect x="34.3" y="314.77" width="92.78" height="16.36"/><rect x="144.78" y="314.75" width="41.81" height="16.39"/></g></g></svg>