<svg xmlns="http://www.w3.org/2000/svg" viewBox="0 0 186.52 173.66"><g id="Calque_2" data-name="Calque 2"><g id="Calque_1-2" data-name="Calque 1"><path d="M139.9,68.07C136,42.17,110.12,24,84.39,29.4,66.4,33.19,54,44,48.41,61.52s-1.44,33.29,10.85,47a52.71,52.71,0,0,1,7.06,10.2c3.34,6.24,3.6,13.16,3.46,20.1-.1,4.64,0,4.64,4.58,5.31,0,3.48,0,7,0,10.53a18.92,18.92,0,0,0,24.27,18.19,19.11,19.11,0,0,0,13.5-18.34c0-3.46,0-6.93,0-10.3a2.34,2.34,0,0,1,.52-.23c.31,0,.62,0,.94,0,2.77-.1,3.41-.76,3.43-3.55,0-1.58,0-3.16,0-4.74-.28-10.7,3.49-19.75,10.71-27.63C138.14,96.7,142.22,83.34,139.9,68.07ZM82.24,163.52h22C99.42,170.72,87.23,170.73,82.24,163.52Zm24.94-6.08a1.86,1.86,0,0,1-1.35,1.12q-12.57.09-25.14,0a1.85,1.85,0,0,1-1.35-1.11,17.66,17.66,0,0,1-.22-3.26h28.27A18.56,18.56,0,0,1,107.18,157.44ZM91,85.43a2.15,2.15,0,0,1-1.51,2.35,8.39,8.39,0,0,0-4.57,9.6,8.61,8.61,0,0,0,7.66,6.52A8.49,8.49,0,0,0,97,87.85a2.33,2.33,0,0,1-1.52-2.56c0-6.13,0-12.25.16-18.47,4.69,9.66,10.92,18,20.39,23.62a173.9,173.9,0,0,0-14.86,48.69H85.35A173.77,173.77,0,0,0,70.48,90.38C80,84.71,86.17,76.53,90.82,66.44c.08.86.16,1.3.16,1.74C91,73.93,91,79.68,91,85.43Zm2.34,6.33a3.7,3.7,0,0,1,3.69,3.71,3.9,3.9,0,0,1-4,3.73,3.8,3.8,0,0,1-3.63-3.81A3.58,3.58,0,0,1,93.36,91.76Zm14,52.36v5.19H79.24v-5.19Zm4.92-7.61c0,.81,0,1.62,0,2.69h-6.36a136,136,0,0,1,6.18-25.63c2.67-7.54,5.81-14.89,8.8-22.31.82-2,.72-3.08-1-4-10.71-6-17.2-15.34-21.35-26.55a93.8,93.8,0,0,1-2.86-10c-.36-1.45-1-2.35-2.5-2.29s-1.94,1-2.24,2.33c-2.63,12.09-7.54,23-17,31.37A59.82,59.82,0,0,1,67,87.05c-1.87,1.21-2.26,2.1-1.3,4.06A163.22,163.22,0,0,1,79.81,134c.3,1.66.54,3.32.84,5.1H74.42c-.14-3.12-.16-6.2-.43-9.26C73.13,120.19,69,112,62.35,105A41.12,41.12,0,0,1,51.51,84.18a42.57,42.57,0,1,1,83.74-15.3c2.11,13.42-1.34,25.53-10.59,35.54C116.21,113.57,111.91,124.09,112.23,136.51Z"/><path d="M183.57,82.6c-2.13,0-4.27,0-6.48,0a85.33,85.33,0,0,0-55.15-68.42h34.41c1.85,5.82,6.11,9.23,11.43,9.25,6,0,10.9-4.47,11.68-10.74.69-5.59-3.28-11-9.14-12.38A11.47,11.47,0,0,0,156.9,7.78a2.18,2.18,0,0,1-2.5,1.78c-15.79-.06-31.58,0-47.37,0h-2a4.53,4.53,0,0,1-.14-.64c0-1.83,0-3.66,0-5.5,0-2.48-.84-3.29-3.31-3.3-5.56,0-11.12,0-16.68,0-2.47,0-3.28.82-3.31,3.29,0,2,0,4,0,6H30.16c-1.9-6.46-6.93-10-13-9.3A11.9,11.9,0,0,0,6.92,11.5a11.9,11.9,0,0,0,9.27,11.64c6.42,1.23,11.53-2,14-8.92H64.58A85.38,85.38,0,0,0,9.51,82.6c-2.35,0-4.56,0-6.76,0-2,0-2.73.77-2.74,2.76q0,8.34,0,16.68c0,1.86.76,2.65,2.64,2.66,5.62,0,11.24,0,16.86,0a2.29,2.29,0,0,0,2.62-2.53c0-5.68,0-11.36,0-17a2.3,2.3,0,0,0-2.62-2.54c-1.68,0-3.37,0-5.06,0C15.46,69.7,23,51,36.81,37.31a80.48,80.48,0,0,1,44.8-22.67c0,2,0,3.78,0,5.53,0,2.19.85,3,3,3q8.63,0,17.25,0c2.24,0,3-.8,3.07-3.09,0-1.74,0-3.48,0-5.26,34.43,4.3,63.43,33.79,67.38,67.64-.06,0-.12.07-.18.07-1.64,0-3.28,0-4.92.08-2,.06-2.8.72-2.81,2.73q-.07,8.34,0,16.68c0,2,.77,2.69,2.82,2.7q8.24,0,16.48,0c2.13,0,2.82-.73,2.83-2.85q0-8.14,0-16.3C186.5,83.33,185.82,82.64,183.57,82.6ZM168,4.66a7,7,0,0,1,6.84,7.12,6.84,6.84,0,0,1-7.14,6.93,7,7,0,0,1-6.92-7A7.21,7.21,0,0,1,168,4.66ZM18.56,18.71a6.82,6.82,0,0,1-6.88-7,7,7,0,0,1,7.09-7.07,7.2,7.2,0,0,1,7,7.08A7,7,0,0,1,18.56,18.71ZM17.34,87.34V100H4.72V87.34ZM100,18.51H86.44V4.9H100Zm81.85,81.56H169.2V87.34h12.67Z"/></g></g></svg>