<svg xmlns="http://www.w3.org/2000/svg" viewBox="0 0 363.57 511.02"><defs><style>.cls-1{fill:#cf1136;}</style></defs><g id="Calque_2" data-name="Calque 2"><g id="Calque_1-2" data-name="Calque 1"><path class="cls-1" d="M363.43,380.13c-.11-17.43-14.52-32.72-31.9-33.72-7-.4-14.19,1.41-21.57,2.24C299.47,323,269.36,318,250.14,336l-4.73-4.17c.37-.44.53-.79.8-.94,1.62-.84,3.28-1.59,4.89-2.46,63.19-34.06,95.48-87.17,96-158.76.25-34.19-10.49-65.67-29.89-94-1.74-2.53-2-4.4-.44-7.09,4.37-7.71,5.13-16.17,3.58-24.67-3.29-18-20.23-31.43-38.29-30.79-19.32.69-34.67,15-37.06,34.62-2.13,17.51,10,35.09,27.67,40.09,9.15,2.59,18,1.55,27.2-2.32,30,46.42,36.05,95.45,15.38,146.4-19.46,47.94-56,77.3-106.33,90.68,0-16.77.12-32.73-.09-48.69-.05-3.7,1-5.38,4.53-6.88A102,102,0,0,0,274.82,160.5c-7.09-56.71-59.7-96.89-115.9-88.49a102.06,102.06,0,0,0-26.28,194.38c3.39,1.48,4.65,3.15,4.63,6.93-.14,44.91-.08,89.83-.1,134.74,0,1.54-.19,3.08-.37,5.86-4.6-7.46-8.36-13.87-12.43-20.08C115.43,380.22,99.63,374,84.51,378c-23.61,6.18-35,30.95-24.13,53.22Q77.79,467,95.83,502.49c1.63,3.23,4.74,5.71,7.16,8.53h7c7.24-6.08,7.89-9.29,3.6-18-11.63-23.51-23.33-47-34.89-70.52-5.21-10.6-.56-21.67,10.16-24.79,7.44-2.16,14.86,1,19.46,8.45,9.57,15.56,19,31.19,28.57,46.78a30.24,30.24,0,0,0,3,4.55,9.82,9.82,0,0,0,17-3.77,26.68,26.68,0,0,0,.72-7.38q0-111.3,0-222.6c0-10.78,5.94-17.46,15.39-17.49a15.53,15.53,0,0,1,15.75,14.8c.11,1.66,0,3.33,0,5V406.75c0,1.5,0,3,0,4.49.24,6.08,4.26,10.12,10,10.13s9.9-4,10-10.11c.12-16.13,0-32.27.08-48.41,0-8.73,4.63-14.92,12.11-16.7a15.26,15.26,0,0,1,19,13.37c.38,3.79.25,7.64.26,11.46,0,13.81,0,27.62,0,41.43,0,8.18,3.71,12.72,10.11,12.72s10.2-4.78,10.21-12.68c0-16.64,0-33.28,0-49.91,0-9.9,6.69-17.07,15.66-17s15.43,7.21,15.44,17.21c0,17.3,0,34.6,0,51.9,0,5.95,3,9.74,8.24,10.93a9.45,9.45,0,0,0,10.71-5.34,19.62,19.62,0,0,0,1.19-7.25c.13-10.15-.11-20.3.12-30.45s6.89-16.59,16.2-16.37c8.59.2,14.92,7,15.14,16.51.17,7.81,0,15.63,0,23.45,0,30.28.11,60.56-.1,90.84,0,5.9,1.24,10.66,6.27,14h7c4-2.45,7-5.41,7-10.61C363.5,460.32,363.69,420.22,363.43,380.13ZM282.77,68.94a17.68,17.68,0,1,1,18-17.82A17.46,17.46,0,0,1,282.77,68.94ZM195,187.31c-1.8,2.77-3.28,3.76-6.72,2.08-11.06-5.43-22.14-4.47-33.08,1.27-9.6-10.82-9.51-25.18-.17-35.12a25.62,25.62,0,0,1,40,31.77Zm17.14,10.16c10.66-15.54,9.73-35.87-1.14-50.95A45.6,45.6,0,0,0,163,128.59c-18.41,4.48-32.3,19.36-34.8,38.06-1.8,13.49,1.8,25.66,10.53,36.25.92,1.12,2.07,3.15,1.64,4.11-4,9-3.12,18.57-3.22,28,0,3.44,0,6.87,0,10.43C111.05,238.56,88.5,197.85,92.09,165a81.89,81.89,0,0,1,79.72-73.52c40.74-1.17,75.93,27.83,82.68,68.91,6.55,39.88-18.12,74.62-45.57,86,0-7.64,0-14.79,0-21.94,0-2.82.66-6.06-.46-8.39C204.93,208.63,207.92,203.57,212.11,197.47Z"/><path class="cls-1" d="M162.94.06c-9.73.94-19.55,1.93-29,4.16A173.24,173.24,0,0,0,.44,161.2c-2.7,39.37,7,75.74,29.11,108.58,2,2.94,2.52,5,.75,8.35A35.43,35.43,0,0,0,27,302.29c3.37,16.53,15.93,28.07,33.72,30.6,14.36,2,30.3-6.74,37.42-20.6,7.4-14.42,4.89-32.4-6.6-43.79C79,256,64.13,254.05,47.5,260.55c-20.19-30.24-29.43-62.91-26.69-98.9,2.61-34.31,15.25-64.43,38-90.08,27.91-31.41,63.22-48.19,105-51.64,6.7-.55,10.34-4.47,10.13-10.49S169.5-.57,162.94.06ZM64.76,277.27a17.68,17.68,0,1,1-18.34,17.59C46.49,284.81,54.51,277.12,64.76,277.27Z"/><path class="cls-1" d="M219,13.69a10.14,10.14,0,0,1-10.28,9.94,10.48,10.48,0,0,1-9.76-10.12A10.28,10.28,0,0,1,209.09,3.38,10,10,0,0,1,219,13.69Z"/></g></g></svg>