<svg xmlns="http://www.w3.org/2000/svg" viewBox="0 0 346.16 346.21"><g id="Calque_2" data-name="Calque 2"><g id="Calque_1-2" data-name="Calque 1"><path d="M309.06,66.34C282.54,32.4,247.68,11.49,205.48,3,198.79,1.59,192,1,185.17,0H160.84c-6.1.89-12.22,1.63-18.29,2.7A168.75,168.75,0,0,0,56.19,45.51Q14.16,84.14,3,140.28c-1.11,5.61-1.58,11.34-2.38,17-.13,1-.44,1.93-.66,2.88v25.69c.65,4.41,1.29,8.83,2,13.24A167.68,167.68,0,0,0,36.35,279c26,33.21,59.66,54.92,101,63.32,52.42,10.64,100.39-.44,142.6-33.49,35-27.4,56.58-63.49,63.71-107.38C351.75,151.62,340.2,106.21,309.06,66.34ZM284.47,229.23c0,13.06-9.39,22.25-22.42,22.27q-44.6.06-89.18,0c-29.28,0-58.56-.3-87.83.15-12.44.19-23.68-8.83-23.6-23.73.22-36.81.06-73.64.08-110.46,0-11.47,6.47-20,17.1-22.47A23.27,23.27,0,0,1,84,94.54q89,0,178,0c13.06,0,22.44,9.16,22.48,22.21Q284.61,173,284.47,229.23Z"/><path d="M266.78,227.13c0,5.73-1,6.7-6.6,6.7h-175c-4.63,0-5.91-1.19-5.91-5.68q0-52.2,0-104.41c0-.55.06-1.1.15-2.54l20.55,16.29q33.32,26.46,66.64,52.92c4.56,3.62,8.41,3.55,13.11-.18q41.4-32.85,82.78-65.74c1.2-.95,2.42-1.89,4.1-3.21.09,1.68.2,2.75.2,3.81Q266.78,176.12,266.78,227.13Z"/><path d="M249.1,112.35c-3.39,2.74-6.18,5-9,7.3q-32.39,25.71-64.79,51.43c-1.31,1-2.25,1.88-4,.48q-36.42-29.07-72.94-58a14.77,14.77,0,0,1-1.12-1.2Z"/></g></g></svg>