<svg xmlns="http://www.w3.org/2000/svg" viewBox="0 0 188.73 188.73"><defs><style>.cls-1{fill:#cf1136;}</style></defs><g id="Calque_2" data-name="Calque 2"><g id="Calque_1-2" data-name="Calque 1"><path class="cls-1" d="M118.93,96.68c-2.51-1.76-2.56-2.84-.05-4.53A38.56,38.56,0,0,0,134.93,70c1.94-6.92,1.35-14,1-21A14.92,14.92,0,0,0,121,35.19q-26.62,0-53.24,0A15.07,15.07,0,0,0,52.81,49.05c-.26,3.61-.17,7.25-.17,10.88,0,13.74,6,24.29,17.11,32.11,2.65,1.87,2.65,2.91-.13,4.79A38.93,38.93,0,0,0,54.45,116.7c-2.6,7.39-2,15-1.64,22.57.38,8.42,7,14.33,15.48,14.35H94.4c8.91,0,17.81,0,26.72,0a15.09,15.09,0,0,0,14.81-13.76c.27-3.68.19-7.39.18-11.09C136.1,115,130,104.5,118.93,96.68Zm3.74,41.92c0,.64-1.26,1.48-2.09,1.78a8.77,8.77,0,0,1-2.86.08H69.61c-3.2,0-3.66-.46-3.66-3.68,0-2.54.08-5.08,0-7.61-.35-9.63,4.23-16.68,11.85-21.87,9.49-6.46,9.57-19.44,0-25.76A25.52,25.52,0,0,1,66.22,64.75c-.66-3.44-.23-7.1-.27-10.66-.06-5.54-.5-5.83,5.7-5.77,7.6.07,15.21,0,22.82,0q12.44,0,24.88,0c2.92,0,3.45.54,3.45,3.47,0,2.61-.07,5.21,0,7.81.33,9.54-4.15,16.57-11.69,21.76-9.74,6.73-9.82,19.41,0,26,6,4,10.19,9.56,11.36,16.67C123.28,128.79,122.8,133.75,122.67,138.6Z"/><path class="cls-1" d="M116.33,186.16a96.08,96.08,0,0,1-33.24,1.94c-4.59-.51-7.16-3.26-6.89-7.31a6.52,6.52,0,0,1,7.35-6.06c37.06,5,72.48-15.82,85.87-49.87C180.51,96.67,176.66,70,159,45.38a15.25,15.25,0,0,0-1.16-1.24c-.38,3-.64,5.6-1,8.17-.62,4.08-3.84,6.55-7.66,6s-6-3.72-5.45-7.8q1.47-11.59,3-23.19c.65-4.9,3.34-7.1,8.33-6.48,8.08,1,16.15,2.05,24.19,3.28a6.45,6.45,0,0,1,5.17,7.48,6.83,6.83,0,0,1-7.1,5.55c-2.32-.24-4.61-.63-6.92-.94-.46-.07-.93-.11-1.68-.19.41.64.66,1.09,1,1.51A92.62,92.62,0,0,1,188,82.78,94.31,94.31,0,0,1,116.33,186.16Z"/><path class="cls-1" d="M112.48,8.64c-.56,3.66-3.94,5.72-8.16,5.26C81.44,11.41,60.85,17.17,43,31.72A78.13,78.13,0,0,0,14.33,81.46c-3.6,22.81,1.76,43.59,15.56,62.15.23.31.53.57,1,1.11l1-7.73c.47-3.67,2.38-5.9,5.57-6.47a6.3,6.3,0,0,1,7,3.49,7.85,7.85,0,0,1,.7,4c-.94,7.87-2.06,15.73-3.07,23.59-.61,4.67-3.57,7.09-8.19,6.51q-11.59-1.47-23.19-3c-4.06-.54-6.65-3.48-6.4-7.18a6.64,6.64,0,0,1,6.56-6.13c2.38.08,4.75.56,7.13.86l2.15.27c-.6-.85-1-1.39-1.36-1.92A94.33,94.33,0,0,1,106.11.74C110.6,1.28,113.12,4.48,112.48,8.64Z"/></g></g></svg>