<svg xmlns="http://www.w3.org/2000/svg" viewBox="0 0 383.25 383.31"><g id="Calque_2" data-name="Calque 2"><g id="Calque_1-2" data-name="Calque 1"><path d="M375.23,197.68H91.93c-6.42,0-8.09,1.7-8.09,8.23V345.13c0,6.52,1.68,8.23,8.09,8.23H221.57c0,7.52.15,14.61-.06,21.68-.11,3.55.74,6.33,3.8,8.26h4.49c1.63-1.51,3.31-3,4.88-4.54,7.69-7.66,15.41-15.29,23-23a7.4,7.4,0,0,1,5.87-2.4q55.95.1,111.9,0c6,0,7.8-1.83,7.8-7.77q0-70,0-140C383.24,199.41,381.49,197.68,375.23,197.68ZM371.1,341.4h-4.56q-53.52,0-107-.06a10.06,10.06,0,0,0-7.91,3.29c-5.68,5.9-11.55,11.63-18.05,18.14,0-5.2,0-9.49,0-13.78,0-5.71-1.88-7.59-7.6-7.59H96V209.92H371.1Z"/><path d="M279.58.07Q143.73.05,7.88,0C4.41,0,1.86.94,0,3.8V140c1.93,3.06,4.72,3.81,8.26,3.8,25.82-.12,51.64-.07,77.46-.07h4.11c0,7.79.08,15,0,22.24-.06,3.25.52,6.05,3.85,7.33,3.1,1.19,5.45-.24,7.63-2.44,8.16-8.26,16.45-16.37,24.55-24.68a7.83,7.83,0,0,1,6.2-2.5q73.92.1,147.83.05c5.69,0,7.58-1.9,7.58-7.62V7.79C287.43,1.88,285.58.07,279.58.07Zm-4.39,131.74h-4.34q-71.3,0-142.59-.07a11.16,11.16,0,0,0-8.86,3.73c-5.48,5.78-11.22,11.34-17.61,17.75,0-5.28,0-9.67,0-14.07,0-5.41-2-7.34-7.48-7.34H12.15V12.21h263Z"/><path d="M53.74,179.71c5.94,0,11.88,0,17.85,0v-12c-6.6,0-12.94,0-19.28,0A33,33,0,0,0,30.07,176c-8.56,7.36-12.48,16.85-12.17,28.25C8.25,207.08,2.74,213.81,0,223.12v9c2.75,9.3,8.25,16,17.85,18.83,0,.81.1,1.43.11,2,.3,15.86,9.48,29.14,24.87,32.85,9.22,2.22,19.12,1.61,28.74,2.27V275.53c-6.14,0-12,0-17.84,0-12.63-.13-22-8.51-23.69-20.95-.3-2.3,0-3.68,2.66-4.69a23.91,23.91,0,0,0,0-44.54c-2.68-1-2.95-2.4-2.65-4.7C31.68,188.21,41.16,179.79,53.74,179.71ZM35.9,227.52a12.29,12.29,0,0,1-11.86,12,11.95,11.95,0,1,1-.18-23.89A12.31,12.31,0,0,1,35.9,227.52Z"/><path d="M359.29,102.25V95.31c0-16.82-12.46-29.35-29.17-29.37q-13.67,0-27.32,0c-1.07,0-2.14.13-3.2.2V77.9h3.82c8.85,0,17.71-.07,26.56,0,8.54.09,15.11,5.35,16.76,13.68.69,3.49.54,7.15.77,10.67-10.45,3.6-17.1,10.3-18,21.11-1.11,13.2,5.78,21.57,17.72,26,.12,11.09-7.25,18.39-18.37,18.39H132v12h3.13c65.35,0,130.7.07,196-.15a29.38,29.38,0,0,0,13.12-3.48c10.54-5.57,15.21-14.95,15.15-26.82,10.35-3.65,17.06-10.52,17.74-21.72C377.94,114.62,371,106.57,359.29,102.25Zm-5.92,35.5a11.95,11.95,0,1,1,11.89-12A12.27,12.27,0,0,1,353.37,137.75Z"/><path d="M259.52,314.5c-6.4,11-19.45,17-31.53,14.43-13.06-2.77-22.81-13.06-24.27-25.65a35.12,35.12,0,0,1,0-3.57h10.8c2,4,3.2,8.17,5.69,11.36,5.08,6.51,13.94,8,21.29,4.32a17.53,17.53,0,0,0,9.41-19.63c-1.85-8.47-8.59-13.88-17.74-14.25-13.65-.55-24.28-8.47-28.25-21-5.33-16.91,4.94-34.33,22.52-38.23,16.78-3.72,33.67,8.17,35.91,25.31a32.34,32.34,0,0,1,0,3.83h-11.6c-.51-2-.84-4-1.5-5.86a17.57,17.57,0,0,0-20.6-11.3c-8.48,1.89-14.64,9.9-14,18.26.7,9.58,8.07,16.72,18,17a30,30,0,0,1,25.84,45Z"/><path d="M327.49,319.63c-8.28,9.1-18.85,12-30.62,8.51-12.08-3.62-19-12.24-21.24-24.59a22.5,22.5,0,0,1,0-3.87h10.74c2,4.12,3.28,8.28,5.79,11.47,5.11,6.49,14,7.92,21.31,4.2A17.51,17.51,0,0,0,322.81,296c-1.84-8.61-8.43-14.22-17.51-14.47-10.8-.3-19.2-4.86-25.11-13.77a29.83,29.83,0,0,1,.81-33.72,30,30,0,0,1,54.21,13.58,32.91,32.91,0,0,1,0,3.76h-11.6c-.22-.91-.46-1.83-.66-2.76-2.05-9.5-10.24-16-19-15-9.7,1.11-17,9.28-16.5,18.51.49,9.66,8,16.91,18.14,17.3,13,.5,22.38,6.62,27.38,18.52C337.83,299.51,335.87,310.41,327.49,319.63Z"/><path d="M191.64,299.65c-.24,10-4.2,18-12.06,23.8-9.78,7.2-20.55,8.23-31.34,2.74s-16.42-14.59-16.48-26.82q-.1-24.5,0-49c.1-15,13.22-28.33,28-28.73,16.66-.45,30.6,11.3,31.77,26.81.06.87,0,1.74,0,2.86H179.9c-.44-1.84-.76-3.79-1.39-5.63-2.66-7.79-10.94-13.05-18.66-12-9.16,1.3-15.89,8.18-16,17.35-.25,16.33-.28,32.66,0,49,.17,9.42,7.58,16.61,16.88,17.32,8.64.67,16.46-5.55,18.47-14.68.22-1,.42-1.94.67-3.06Z"/><path d="M203.59,36q0,38.36-.05,76.7a3.48,3.48,0,0,1-.31.89H191.69V71.33l-.7-.17c-1.7,4.45-3.47,8.87-5.08,13.35-1.09,3-2.66,5.37-6.28,5.36s-5.17-2.35-6.26-5.39a103,103,0,0,0-5.59-13.16v42.32H156a18.67,18.67,0,0,1-.3-2.41q0-37.23,0-74.46c0-4.72,3.26-7.9,7.22-6.53a9,9,0,0,1,4.68,4.68c3.68,9,7,18.1,10.39,27.17.42,1.1.91,2.18,1.73,4.16l8.92-23.68c1.1-2.91,2.11-5.85,3.31-8.72,1.28-3,3.74-4.4,6.93-3.71A5.55,5.55,0,0,1,203.59,36Z"/><polygon points="83.6 30.29 83.6 113.64 72 113.64 72 78.14 48.01 78.14 48.01 113.55 36.16 113.55 36.16 30.2 47.76 30.2 47.76 65.76 71.76 65.76 71.76 30.29 83.6 30.29"/><polygon points="143.43 30.21 143.43 41.92 125.84 41.92 125.84 113.56 113.94 113.56 113.94 42.04 96.07 42.04 96.07 30.21 143.43 30.21"/><path d="M257.24,101.87v11.84c-9.11,0-18.2.47-27.21-.14-7.43-.51-14.24-7.8-14.32-15.06-.24-22.66-.09-45.32-.09-68.35h11.93v4.13q0,29.91,0,59.81c0,6,1.79,7.75,7.8,7.76Z"/></g></g></svg>