<svg xmlns="http://www.w3.org/2000/svg" viewBox="0 0 128.32 500.89"><defs><style>.cls-1{fill:#1d1d1b;}</style></defs><g id="Calque_2" data-name="Calque 2"><g id="Calque_1-2" data-name="Calque 1"><path class="cls-1" d="M41,496C21.7,488,7,475.3,1.66,454.24c-5-19.8,1.67-37,13.75-52.5,3.35-4.29,7.11-8.25,10.47-12.52,7.35-9.35,11.54-20.1,13.7-31.72.34-1.84.69-3.69,1.12-5.51,2.1-8.75,6.94-13,14.59-12.88,8.16.13,15.18,5.47,16.37,13.53.93,6.26.63,12.7.83,19.07.14,4.12,0,8.25.32,12.37.36,5.38,2.94,9.47,7.44,12.58A113.66,113.66,0,0,1,92.18,406c3.28,3,4.88,7,2,11.09s-7,3.44-11.09,1.58c-6.5-3-6.55-3-8.17,3.71-1,4.23-2.62,8.13-7.53,8.66-4.64.5-7-2.74-8.88-6.48-.88-1.81-2-3.5-3.51-6-2.23,2.34-3.93,4.17-5.68,6-3,3-6.52,4.83-10.55,2.32-3.69-2.29-4.92-5.8-3.88-10.22C36.84,408.33,42.62,403,48.72,398A49.11,49.11,0,0,1,57,392.11c1.37-.71,3.48,0,5.25,0-.6,1.54-.77,3.54-1.87,4.52-4.17,3.77-8.86,7-12.92,10.84-3.6,3.44-6.86,7.4-5.64,13.24,4.79-2.74,9.44-7.59,13.55-7.17s7.85,6,11.64,9.31c1.94-3.3,3.47-9.09,7.12-11.21,3.39-2,9,0,14.64.29-1.87-1.89-3.36-4.3-5.53-5.44-15.18-8-19-21.09-17.56-36.94a51.8,51.8,0,0,0-.15-13.46A15.47,15.47,0,0,0,61,347.54c-5.15-4.45-11.76-2.05-13.51,4.51-1.4,5.25-2.16,10.68-3.66,15.9-3.31,11.58-9.58,21.5-17.53,30.48a122.92,122.92,0,0,0-10,12.84c-17.31,25.81-11.86,54.11,13.67,71.85,31.47,21.84,75,10,88.25-24.31,7.43-19.17,3.32-37.29-6.45-54.55-2.21-3.91-4.73-7.66-7.26-11.39-5.79-8.55-9.58-17.63-9.88-28.25-.36-12.71-7-20.93-19.46-24.45-8.66-2.45-17.22-5.25-25.82-7.89-.9-.28-1.8-.52-2.69-.83-7.51-2.58-10.68-6.52-9.1-11.28,1.51-4.54,6.17-5.89,13.55-3.85,10.84,3,21.67,6.06,32.52,9.05,1.9.52,3.85.83,5.78,1.25.15-.57.31-1.13.46-1.69C85.2,323,80.61,321,76,319.11c-8.69-3.54-17.44-6.92-26.08-10.57-5.36-2.26-7.58-6.4-5.79-10.55,2.16-5.05,6.48-5.33,10.92-4,9.37,2.71,18.64,5.73,28,8.56,1.61.49,3.3.7,5,1.05.17-.52.34-1,.52-1.54-3.11-1.47-6.18-3-9.31-4.37-6.7-2.94-13.47-5.73-20.14-8.72-4.23-1.9-7.62-4.72-6-10,1.53-5.1,5.78-5.88,10.43-5.44,2.91.28,5.82.59,8.72.89l.66-1.33a28.65,28.65,0,0,0-4.32-3.6c-6.2-3.41-8.15-8.68-8-15.5.72-37,1.26-74,1.87-110.95Q63.41,76,64.56,9a29.42,29.42,0,0,1,.62-6.71A3.59,3.59,0,0,1,67.75,0c.84,0,2,1.41,2.42,2.43a8.15,8.15,0,0,1,.19,3.33Q69,111.66,67.6,217.55c-.16,12.39-.31,24.79-.65,37.17-.13,4.25,1.31,7.25,5.14,9.12a18.09,18.09,0,0,1,2.86,1.8c3.69,2.72,6.61,5.92,4.56,10.91-2,4.75-6.23,4.82-10.49,4.49-2.76-.2-5.5-.54-8.25-.83-.2.44-.39.88-.59,1.31a47.14,47.14,0,0,0,5.69,3.39c7.41,3.18,14.89,6.2,22.34,9.27a32.81,32.81,0,0,1,3.08,1.38c4.1,2.23,7.34,5.24,5.42,10.32s-6.26,5.69-10.81,4.36c-9.36-2.72-18.63-5.77-28-8.62-2.06-.63-4.21-1-6.32-1.44l-.56,1.43a45.7,45.7,0,0,0,4.45,2.3q17,6.75,34,13.4c7.22,2.84,10.17,6.66,8.59,11.14s-6.17,6-13.55,4c-11.41-3.06-22.78-6.29-34.18-9.41-1.66-.46-3.41-.68-5.11-1l-.48,1.45c1.94.83,3.83,1.82,5.83,2.46,9.46,3,19,5.94,28.45,8.92,13.57,4.26,20.92,13.82,21.78,27.71.71,11.34,4.71,20.93,11.15,30.09,9.77,13.89,16,29.09,16.3,46.55C129,479.94,84.43,513.9,41,496Z"/></g></g></svg>