<svg xmlns="http://www.w3.org/2000/svg" viewBox="0 0 364.04 364.01"><g id="Calque_2" data-name="Calque 2"><g id="Calque_1-2" data-name="Calque 1"><path d="M325.88,70.78C298,34.41,261,12.12,216.08,3.08,210.19,1.9,204.15,1.49,198.18.7c-1.16-.16-2.3-.46-3.45-.7h-26.3c-6,.92-12.11,1.7-18.12,2.77-43,7.69-78.62,28.31-107,61.37C20.39,90.83,6.76,121.82,1.6,156.58,1,160.52.53,164.48,0,168.44v27c.7,4.76,1.36,9.53,2.09,14.29a178,178,0,0,0,46.14,95.56c27.09,29.33,60.3,48.23,99.57,55.37,53.55,9.75,102.51-1.75,145.69-35.08,34.79-26.86,57.25-62.1,66.23-105.2C371.14,165.56,360,115.29,325.88,70.78ZM128.68,274.93H85.1V142.07h43.58ZM106.94,123.49c-14.25.1-24.56-9.45-24.6-22.81,0-13.56,10-23.07,24.64-23.21,14.37-.13,24.72,9.45,24.88,23C132,113.77,121.58,123.38,106.94,123.49Zm181.72,147.4v3.9A13.36,13.36,0,0,1,287,275c-14,0-27.93,0-42.44,0v-4.25c0-23.33,0-46.66-.12-70a44.94,44.94,0,0,0-1.43-10.5c-2-8.11-6.46-14.21-15.1-16.12-9.48-2.1-17.56.44-24,7.82-4.66,5.36-6.22,11.78-6.21,18.75q.06,34.81,0,69.63v4.5H153.8V142.13h43.84v17.38l.77.2c.68-.88,1.38-1.73,2-2.63,10.37-14.31,24.8-19.53,41.85-18.22,31.19,2.4,43.25,25,45.46,46.82,1.07,10.56.8,21.27.88,31.91C288.75,235.36,288.66,253.12,288.66,270.89Z"/></g></g></svg>