<svg xmlns="http://www.w3.org/2000/svg" viewBox="0 0 363.95 364.04"><g id="Calque_2" data-name="Calque 2"><g id="Calque_1-2" data-name="Calque 1"><path d="M361.13,149.93c-7.67-42.42-28-77.71-60.49-105.94C275.07,21.76,245.34,8.09,212,2.32,206.3,1.33,200.54.76,194.81,0h-26.3c-6,.92-12.1,1.7-18.12,2.77-43,7.67-78.6,28.29-107,61.33C20.49,90.78,6.4,121.7,1.8,156.52c-6.7,50.7,5.29,96.81,36.79,137.26,26.92,34.57,62,57,105,65.94,55.23,11.48,105.76.08,150.41-34.49,35.93-27.82,57.94-64.62,66.85-109.17,1.18-5.9,1.61-11.94,2.43-17.91.15-1.15.46-2.28.69-3.42V169.15C363,162.74,362.28,156.3,361.13,149.93ZM263.24,186.7c-10.94,23.94-25.74,45.48-41.82,66.13-12.5,16-25.68,31.58-39.08,48-8-9.35-15.48-17.75-22.62-26.41-19.53-23.67-38.06-48.07-52.73-75.14-5.93-10.94-11.22-22.2-13.69-34.46-3.24-16.08-.62-31.69,6-46.39C113.18,87.58,137,69.3,170.61,64.56c48.26-6.81,93.3,27.65,100.5,76.07C273.54,157,269.94,172,263.24,186.7Z"/><path d="M216.15,152.36a34.14,34.14,0,1,1-34-34.42A33.9,33.9,0,0,1,216.15,152.36Z"/></g></g></svg>