<svg xmlns="http://www.w3.org/2000/svg" viewBox="0 0 133.16 153.86"><g id="Calque_2" data-name="Calque 2"><g id="Calque_1-2" data-name="Calque 1"><path d="M132.34,123.51c-2-2.54-3.89-5.15-6-7.59A17,17,0,0,1,121.85,103c.13-1.76-.4-3.68,1.68-4.75.24-.13.37-.49.53-.76,1-1.81,2.09-3.6,3.1-5.42,1.4-2.53.83-4.75-1.68-6.26a1.87,1.87,0,0,1-1-1.85c0-4.17,0-8.34,0-12.51,0-20.28-.07-40.55.05-60.83A10.27,10.27,0,0,0,114.44,0Q62.27,0,10.12,0A9.4,9.4,0,0,0,.88,6.26,13.35,13.35,0,0,0,0,11.13Q0,64.6,0,118.08A3.39,3.39,0,0,0,1,120.24Q17.28,136.67,33.7,153a3.15,3.15,0,0,0,2,.85q38.4.06,76.8,0a12.11,12.11,0,0,0,11.86-10.76c.35-4.61.22-9.26.25-13.89,0-1.7-.65-2.51-1.89-2.53s-2,.8-2,2.58c0,3.8-.17,7.62,0,11.41.28,5.38-3.79,9.52-9.58,9.49-24-.09-48.07,0-72.1,0H37.42c0-.6-.07-1-.07-1.32,0-7.14,0-14.28,0-21.43,0-6.56-4.26-10.71-10.8-10.71H3.93V115c0-34.66,0-69.32-.06-104,0-5,3.53-7.26,7.25-7.25q51.14.09,102.28,0c4.83,0,7.28,2.48,7.28,7.34V83a38,38,0,0,1-3.37-1.78,2.5,2.5,0,0,1-1-1.43q-1.65-8.82-3.2-17.64C111.88,55,108.39,49.29,101.86,46c-8.49-4.3-17.14-8.26-25.75-12.31a8.47,8.47,0,0,0-8.23.41c-.72.41-1.46.81-2.18,1.21-4.94,2.78-9.88,5.56-14.83,8.3a1.36,1.36,0,0,1-1.11-.09,23.14,23.14,0,0,1-3.27-1.82,10.31,10.31,0,0,0-5.9-1.63c-3.23-.13-6.45-.39-9.68-.44a3.21,3.21,0,0,0-2.37,1A2.82,2.82,0,0,0,28.86,43c1.86,3.12,3.92,6.13,5.79,9.27a7.72,7.72,0,0,0,3.47,3.38,1.76,1.76,0,0,1,1,1.18,18.91,18.91,0,0,0,2.81,8.68Q48.2,76.95,54.57,88.4a7.85,7.85,0,0,0,1.8,2.1c4.14,3.49,8.27,7,12.51,10.38,5.85,4.68,11.46,9.67,18,13.47a19.76,19.76,0,0,1,5.37,4.7c1.9,2.37,3.27,5.15,5,7.68a2.9,2.9,0,0,0,2,1.3c.57,0,1.25-1,1.58-1.63.18-.38-.18-1.09-.4-1.6a31.27,31.27,0,0,0-13.54-15,24.75,24.75,0,0,1-3.26-2.14q-12.39-10-24.73-20.13a6.22,6.22,0,0,1-1.38-1.85q-6-10.6-11.83-21.27a33.33,33.33,0,0,1-2.28-5.11c-.93-2.74-.07-3.82,2.82-3.79a8.06,8.06,0,0,1,2,.34,15.73,15.73,0,0,1,9.58,7.49c1.91,3.22,3.87,6.42,6,9.52a10,10,0,0,0,7.55,4.45c1.82.18,3.65.09,5.47.23a5.91,5.91,0,0,1,2.34.63c11.68,6.35,23.27,12.88,35,19,3,1.58,4.15,3.28,3.88,6.65a18.4,18.4,0,0,0,4.5,13.43c2.31,2.82,4.52,5.73,6.77,8.59,1.08,1.38,2.17,1.66,3.16.83S133.39,124.86,132.34,123.51Zm-124-3.07H26.59c4.46,0,6.85,2.4,6.86,6.84v19.64L7.1,120.52C7.43,120.49,7.87,120.44,8.31,120.44Zm46-74.66c5.11-2.8,10.22-5.58,15.31-8.42a5.24,5.24,0,0,1,5.07-.28c8.55,4.07,17.14,8,25.6,12.28a16.36,16.36,0,0,1,8.84,11.86c1.13,5.59,2.09,11.22,3.2,17.23L104.23,74c-6.92-3.85-13.81-7.71-20.74-11.53a2.23,2.23,0,0,1-1.41-2c-.44-6.23-9.18-13.95-15.61-12.89a72.35,72.35,0,0,0-8,2.1,4.23,4.23,0,0,1-4.63-1.39C53,47.26,53.11,46.44,54.3,45.78ZM77.87,59.29l-13-7.23C69,49.42,75.94,54.7,77.87,59.29ZM37.28,49.16c-1.15-1.85-2.22-3.54-3.35-5.34h6.34C39.18,45.75,38.28,47.37,37.28,49.16ZM105.38,88q-20.1-11-40.2-21.93a6.87,6.87,0,0,1-3-3,22.67,22.67,0,0,0-5.69-7.35,17.4,17.4,0,0,0-8.84-4c-1.72-.21-3.54.47-5.32.69a21.59,21.59,0,0,1-2.44,0c1.58-2.81,2.91-5.21,4.3-7.68,1.63.92,3.18,1.75,4.69,2.67a2.24,2.24,0,0,1,.77,1.09,8.21,8.21,0,0,0,9,5.07,2.75,2.75,0,0,1,1.61.21q25,13.86,49.88,27.78a1.93,1.93,0,0,1,.27.26c-1.23,2.23-2.44,4.46-3.71,6.78C106.2,88.41,105.77,88.23,105.38,88Zm7.25,4-2.56-1.41,3.74-6.89,2.61,1.38C115.13,87.41,113.9,89.64,112.63,92Zm6.94,3.75c-1.17-.52-2.28-1.19-3.58-1.9L119.77,87l4.5,2.55c-1.22,2.07-2.32,4-3.51,5.89A1.26,1.26,0,0,1,119.57,95.72Z"/><path d="M53.34,110.78c-.87,1-2,.87-3.63-.58C41.35,102.87,34,94.72,28.89,84.7A53.31,53.31,0,0,1,23,61.88c.4-3.19.78-6.39,1.2-9.59a1.92,1.92,0,0,1,2.07-1.9c1.25,0,1.88,1.17,1.73,2.63a89.26,89.26,0,0,0-.86,9.77c.05,10,3.67,18.88,9.19,27.07a89.1,89.1,0,0,0,15.83,17.42C53.8,108.68,54.17,109.78,53.34,110.78Z"/><path d="M52.21,14.57A9.75,9.75,0,0,1,51,16.34a79.32,79.32,0,0,0-16.24,19c-.6,1-1.43,1.63-2.58.86s-1.09-1.75-.43-2.85a77.49,77.49,0,0,1,17-19.8,2.81,2.81,0,0,1,2.08-.45C51.3,13.23,51.67,14,52.21,14.57Z"/></g></g></svg>