<svg xmlns="http://www.w3.org/2000/svg" viewBox="0 0 429.04 465.72"><g id="Calque_2" data-name="Calque 2"><g id="Calque_1-2" data-name="Calque 1"><path d="M403.19,103.12H376.74V96q0-42.15,0-84.28C376.73,1.9,374.82,0,365.1,0H63.85C54.21,0,52.32,1.93,52.31,11.76q0,42.15,0,84.28v7.08c-9.48,0-18.31,0-27.15,0C8.89,103.15,0,112,0,128.13Q0,254,0,379.77c0,15.12,7.61,22.77,22.69,22.78h147c-5.63,12-11.66,22.65-15.6,34-4,11.62-10.31,17.11-22.83,14.8a8.51,8.51,0,0,0-6.8,2.62c-1.36,1.64-2.14,5.7-1.09,7,1.87,2.27,5.31,4.55,8.11,4.57,35.55.3,71.11.2,106.67.2,20,0,40,0,60,0,5.22,0,8.72-3.14,8.3-7.46-.46-4.73-3.28-7.14-8.15-7.06-4,.07-8.14.43-12.1-.16-2.1-.31-4.81-1.89-5.76-3.69-3.86-7.29-7.15-14.9-10.64-22.39-3.37-7.24-6.73-14.48-10.4-22.36h147c15,0,22.62-7.72,22.62-22.86q0-125.52,0-251C429,111.71,420.33,103.13,403.19,103.12ZM338.07,14.85h23.17v16H338.07ZM243.64,174.49c4.52-9,9.12-17.47,13-26.26,1.21-2.76,1.55-7,.28-9.52-2.57-5.19-9.81-4-12.9,2q-7.65,14.78-14.88,29.76c-1.47,3-3.16,4.52-6.84,4.51q-75.45-.19-150.9-.1c-1,0-2-.14-3.41-.25V46.29H361.18v128.2Zm117.46,16.1v15.19H338c-.11-1.67-.28-3.05-.29-4.43,0-3.42,0-6.83,0-10.76Zm-38.85,0v15.26H299.44V190.61Zm-38.46,0V205.9H261V190.57Zm-38.38.22v15.1H228.59C233,190.94,235.18,189,245.41,190.79Zm-26.32-.71c-2.81,5.55-5.05,10.31-7.65,14.85-.49.87-2.42,1.25-3.69,1.27-7.83.11-15.66.06-24.09.06V190.54c1.52-.18,2.68-.44,3.85-.45C197.55,190.06,207.58,190.08,219.09,190.08Zm-51.06.45V206H145.4V190.53Zm-38.65-.25v15.48H106.8V190.28Zm-38.52.29V206H67.92V190.57ZM299.56,14.71h22.58V30.92H299.56Zm-38.62.14h22.79v16H260.94Zm-38.7.12h23.25V30.75H222.24Zm-38.61.09h23.13V30.91H183.63Zm-38.31-.21h22.8v16h-22.8ZM106.93,15h22.66V30.84H106.93Zm-39-.21h23v16h-23ZM265.64,451H163.5L174,428.45c3.4-7.3,6.61-14.7,10.37-21.82,1-1.81,3.64-3.8,5.57-3.83,16.34-.3,32.69-.26,49-.05,1.76,0,4.4,1.26,5.1,2.68C251.32,420.25,258.23,435.21,265.64,451ZM414,382.78c-.07,1.68-3.09,3.63-5.15,4.69-1.44.74-3.56.2-5.37.2H25.52c-10.31,0-10.77-.48-10.78-11V350.7H414.21C414.21,361.53,414.44,372.17,414,382.78Zm.34-53.44v6.25H14.73v-6.86q0-99.12,0-198.25c0-10.75,1.93-12.67,12.71-12.68H52.3v7q0,42.43,0,84.87c0,9.27,2.1,11.4,11.38,11.4q66,0,132,0h7.72c-3.54,7.15-6.61,13.38-9.7,19.6-.89,1.8-1.87,3.57-2.72,5.4-4.08,8.77-7.48,16.15-20.24,16.9-14.67.86-25.11,16.28-25.21,31.14-.1,14.58,10.17,28.16,24.15,31.94a32.86,32.86,0,0,0,31.85-55.07c-1.28-1.27-2.65-2.45-4.4-4.07,5.55-11.08,11.11-22.16,17.35-34.59l17.71,35a58.16,58.16,0,0,0-5.49,4.53,32.8,32.8,0,0,0,36,53c13.93-5.59,22.89-20.87,20.49-34.95-2.77-16.21-15-27.8-30.86-28.05-5.38-.08-7.69-2.07-9.78-6.54-5.19-11.12-10.87-22-16.84-33.94,2.85-.13,4.92-.3,7-.3q65.68,0,131.39,0c10.95,0,12.61-1.67,12.61-12.61q0-41.84,0-83.66v-7c10.4,0,20.06-.16,29.7.07,4.67.12,7.3,3,7.78,7.72.14,1.4.08,2.83.08,4.24Q414.32,229.62,414.31,329.34ZM196.42,294.58a18,18,0,1,1-17.88-18.14A17.85,17.85,0,0,1,196.42,294.58Zm36.2,0a17.87,17.87,0,0,1,17.88-18.13,18,18,0,1,1-17.88,18.13Z"/><path d="M249.82,103.42q-22.71-15-45.64-29.66c-7.22-4.61-12.59-1.49-12.66,7.17-.08,9.7,0,19.39,0,29.08,0,10.1-.06,20.2,0,30.29.07,8.09,5.71,11.47,12.43,7.19q23.2-14.79,46.11-30C256.35,113.26,256.21,107.63,249.82,103.42Zm-43.27,24.73V92.91l26.94,17.61Z"/></g></g></svg>