<svg xmlns="http://www.w3.org/2000/svg" viewBox="0 0 253.97 340.51"><defs><style>.cls-1{fill:#cf1136;}</style></defs><g id="Calque_2" data-name="Calque 2"><g id="Calque_1-2" data-name="Calque 1"><path class="cls-1" d="M235.14,49.42c-13.41,0-26.83,0-40.24,0-1.17,0-2.35-.1-3.83-.17V31c0-10.79-.22-11-10.93-11H159.3c0-2,0-3.66,0-5.3a14.16,14.16,0,0,0-8.17-13.07C150,1.06,148.77.55,147.6,0H106.37a5.7,5.7,0,0,1-1.05.68C98,3.43,94.78,7.92,94.69,15.73c0,1.31,0,2.62,0,4.3H91.14q-10.48,0-21,0c-5.67,0-7.24,1.58-7.25,7.34s0,11.52,0,17.29v4.76H58.77c-13.3,0-26.6,0-39.9,0C7,49.44,0,56.43,0,68.18v253.7c0,11.66,7,18.62,18.57,18.62H235.36c11.64,0,18.6-6.95,18.6-18.58q0-126.86,0-253.71C254,56.44,247,49.44,235.14,49.42ZM73.39,30.68c1.19-.06,2.35-.17,3.51-.17,7.1,0,14.19,0,21.28,0,5.12,0,6.83-1.69,6.86-6.69,0-2.77.06-5.55,0-8.31-.07-3.13,1.46-5,4.51-5q17.46-.15,34.91,0c2.84,0,4.49,1.65,4.48,4.65q0,4,0,8c0,5.77,1.54,7.34,7.21,7.35q10.47,0,20.94,0h3.47V65.69H73.39ZM243.51,322.39c0,5.6-2.32,7.74-8.36,7.75q-38.73,0-77.48,0h-137a41.47,41.47,0,0,1-4.32-.12,6.23,6.23,0,0,1-5.84-6.12c-.09-1.21-.05-2.44-.05-3.66V69.5c0-7.93,1.77-9.67,9.82-9.67H62.93c0,3.7,0,6.9,0,10.1.08,4.45,1.87,6.37,6.24,6.37q57.87.06,115.73,0c4.18,0,6-1.94,6.12-6.17.08-3.3,0-6.6,0-10.07,1.19-.09,2-.22,2.89-.22q20.78,0,41.57,0c5.55,0,8,2.37,8,7.82Q243.53,195,243.51,322.39Z"/><path class="cls-1" d="M167.11,136.13a4.85,4.85,0,0,1-4.65,4.78,22.77,22.77,0,0,1-3,.05h-126a17.38,17.38,0,0,1-3-.08,4.94,4.94,0,0,1-4.35-4.76A4.61,4.61,0,0,1,29.61,131a16.3,16.3,0,0,1,4.58-.5q62.48,0,125,0a17.38,17.38,0,0,1,4.27.39A4.64,4.64,0,0,1,167.11,136.13Z"/><path class="cls-1" d="M167.16,184.26c0,3-2.22,5.15-5.65,5.22-3.76.07-7.53,0-11.3,0H33.89a21.26,21.26,0,0,1-3-.06,5,5,0,0,1-4.71-4.78c-.22-2.75,1.34-4.64,4-5.36a13.71,13.71,0,0,1,3.63-.26H159.44c.78,0,1.56,0,2.33,0C165,179.33,167.13,181.39,167.16,184.26Z"/><path class="cls-1" d="M167.12,233.19a5,5,0,0,1-4.69,4.78,19.85,19.85,0,0,1-3,.06H33.81a16.66,16.66,0,0,1-3.32-.12,5,5,0,0,1-4.32-4.81A4.84,4.84,0,0,1,30,227.9a14.76,14.76,0,0,1,3.94-.33H159.53a17.41,17.41,0,0,1,3.31.16A5.07,5.07,0,0,1,167.12,233.19Z"/><path class="cls-1" d="M167.14,281.36a5,5,0,0,1-4.39,5.08,15.83,15.83,0,0,1-3.31.12H34.13a19.2,19.2,0,0,1-3.31-.08c-2.86-.52-4.67-2.3-4.64-5.21s1.83-4.66,4.72-5.11a19.85,19.85,0,0,1,3-.07H159.53a22.77,22.77,0,0,1,3,.07A5.14,5.14,0,0,1,167.14,281.36Z"/><path class="cls-1" d="M218.37,262.34c-1.78,2.1-3.83,4-5.78,6-5.23,5.25-10.45,10.52-15.73,15.73-3.46,3.42-5.86,3.38-9.35-.07s-7.06-7-10.57-10.56c-3.1-3.13-3.48-6-1.16-8.38s5.39-2,8.62,1.16c2.37,2.33,4.71,4.68,7.08,7a5.64,5.64,0,0,0,1,.53q8.13-8.16,16.19-16.24a27.42,27.42,0,0,1,2.41-2.29,5.19,5.19,0,0,1,6.94.23A5.09,5.09,0,0,1,218.37,262.34Z"/><path class="cls-1" d="M216.26,216.12,205.7,226.7c-3.06,3.05-6.07,6.15-9.18,9.14s-5.58,3-8.64,0q-5.82-5.69-11.5-11.51c-2.65-2.72-2.77-5.69-.49-7.9s5.18-2,7.89.69,5.24,5.66,8.16,8.85c4.33-4.41,7.89-8,11.47-11.67,1.78-1.81,3.59-3.61,5.4-5.41,3.82-3.81,6.87-4.42,9.33-1.87S219.92,212.45,216.26,216.12Z"/><path class="cls-1" d="M219.29,163.6a7.75,7.75,0,0,1-2,3Q207.1,176.83,196.84,187c-3.38,3.35-5.82,3.38-9.12.14q-5.7-5.58-11.28-11.29c-2.67-2.74-2.85-5.64-.62-7.9s5.16-2.16,7.89.56,5.31,5.61,8.32,8.81c6.58-6.63,12.56-12.7,18.59-18.73a5,5,0,0,1,6.64-.81A4.74,4.74,0,0,1,219.29,163.6Z"/><path class="cls-1" d="M218,117.24c-3.42,3.63-7,7.09-10.53,10.62-3.68,3.69-7.32,7.41-11.06,11-3,2.86-5.49,2.89-8.4.06-4-3.85-7.89-7.78-11.75-11.75-2.53-2.6-2.65-5.44-.54-7.66s5.15-2.26,7.89.42,5.42,5.53,8.52,8.72c5.82-5.88,11.27-11.37,16.72-16.86.62-.63,1.22-1.29,1.89-1.87,2.36-2,5.14-2.06,7.18-.14A5.11,5.11,0,0,1,218,117.24Z"/></g></g></svg>