<svg xmlns="http://www.w3.org/2000/svg" viewBox="0 0 321.64 327.51"><g id="Calque_2" data-name="Calque 2"><g id="Calque_1-2" data-name="Calque 1"><path d="M321.64,76.55c0-3.43-1.58-5.4-4.82-6.36-3.72-1.11-7.43-2.29-11.06-3.66a6.18,6.18,0,0,1-2.83-2.4c-4.68-7.77-5.32-15.47.78-22.91a10.74,10.74,0,0,0,.86-1.61c1.55-2.74,1-5.07-1.22-7.22-3.57-3.49-7.08-7-10.61-10.58-6.88-6.88-7.05-7.18-15.32-2.42-5.43,3.12-10.36,4.76-15.92.75-.94-.68-2.41-.64-3.36-1.32-1.24-.9-2.68-2-3.22-3.33-1.5-3.7-2.58-7.58-3.81-11.39A5.35,5.35,0,0,0,245.4,0c-6.82.08-13.64.07-20.47,0-3,0-4.81,1.18-5.7,4C218,8,216.75,11.93,215.3,15.79a5.36,5.36,0,0,1-2.4,2.75c-3.73,1.76-7.64,4.61-11.38,4.45s-7.64-3.32-11.45-5.17c-.55-.27-1.09-.54-1.63-.83a5.49,5.49,0,0,0-7.25,1.12c-3.15,3.24-6.38,6.38-9.56,9.58-8.73,8.76-8.62,7-2.67,18,2.42,4.47,2.68,8.1.78,13.1-2.18,5.7-5.38,8.7-11,9.79-6.72,1.29-12.13,3.78-9.8,12.68H24.5c-15.34,0-24.37,9-24.38,24.21C.12,157.59.3,209.74,0,261.89c-.07,13.32,9.11,24.6,24.39,24.33,25.94-.45,51.9-.12,77.85-.12H107a111.7,111.7,0,0,1-24,30.46,5.58,5.58,0,0,1-3.38.8c-7.19.07-14.38,0-21.57,0-4.17,0-6.68,2-6.64,5.15s2.5,4.95,6.74,4.95H221.55c3.95,0,6.37-1.84,6.48-4.84s-2.43-5.21-6.51-5.26c-2.68,0-5.36,0-8.05,0-18.65,0-18.73.06-30.17-14.83-3.87-5-7.23-10.44-11.35-16.46h5.19c26,0,51.91-.35,77.85.13,15.91.29,24.6-11.78,24.44-24.27-.45-34.23-.16-68.47-.16-102.71v-4.59c3.44,1.4,6.39,3.29,9.27.43q7.66-7.59,15.26-15.24a5,5,0,0,0,1-6.34c-1.35-2.59-2.48-5.31-4.05-7.75-2.3-3.58-3-6.91-.35-10.68,1.14-1.65,1.35-3.92,2.37-5.69a7.64,7.64,0,0,1,3.27-3.27,114.4,114.4,0,0,1,11.05-3.67,5.77,5.77,0,0,0,4.58-6.16C321.6,89.71,321.58,83.13,321.64,76.55ZM180.89,317.2H97.34c3.25-4,6.49-7.62,9.19-11.57,3.76-5.51,7.21-11.25,10.58-17,1-1.8,2.09-2.58,4.23-2.56,12.3.1,24.59,0,36.89.12a4.82,4.82,0,0,1,3.51,1.66C168.25,297.6,174.58,307.48,180.89,317.2Zm79.32-41.57a27.5,27.5,0,0,1-5.44.45q-115.07,0-230.13,0c-8.93,0-13.53-3.66-14.17-11.36H268.61C269.22,269.65,265.49,274.56,260.21,275.63Zm8.69-21.45H10.26V105.28c0-9.36,4.53-13.9,13.85-13.9h124c.25.56.44.77.43,1-.41,10.47,2.46,9.68,9.31,11.42,6.26,1.59,10.11,4.5,12.16,11,1.31,4.15,2.06,7.32-.47,11a64.78,64.78,0,0,0-4,7.76,5.08,5.08,0,0,0,1.06,6.33l15,15c2,2,4.26,2.11,6.68.89,3.26-1.63,6.5-3.29,9.76-4.93a22,22,0,0,1,2.29-1.12c2.12-.8,14.41,5.09,15.14,7.26,1.27,3.79,2.55,7.59,3.71,11.42.86,2.8,2.57,4.28,5.56,4.26,6.95,0,13.89,0,20.83,0a5.35,5.35,0,0,0,5.64-4.2l.66-2.08c4.07-12.33,4.07-12.33,17.09-16.81ZM311.38,91.36a4.18,4.18,0,0,1-2.23,2.92,87.57,87.57,0,0,1-10,3.35c-2.75.78-4.17,2.5-5.13,5.12-1.71,4.66-4,9.12-5.52,13.82a11.78,11.78,0,0,0-.12,6.83,38.1,38.1,0,0,0,4.41,8.76c1.52,2.38.92,3.83-1,5.56-2.69,2.45-5.11,5.19-7.66,7.83-4.12-2.08-8-3.89-11.68-5.94a7.18,7.18,0,0,0-7.21-.05c-4.59,2.19-9.47,3.77-14,6a12.54,12.54,0,0,0-4.65,4.53c-1.12,1.79-1.45,4.09-2.13,6.16-2.06,6.31-2.06,6.31-8.83,6.31-7.85,0-7.85,0-10.27-7.44-.45-1.39-1-2.76-1.3-4.17-.73-3.17-2.66-4.82-5.77-5.86a103.51,103.51,0,0,1-13.07-5.44c-2.67-1.32-4.94-1.46-7.54,0-3.6,2-7.34,3.77-11.91,6.1-2.78-3-5.8-6.19-8.58-9.54a3.62,3.62,0,0,1,0-3.11c1.45-3.2,3.1-6.32,4.78-9.42,1.34-2.47,1.16-4.73,0-7.28-2.09-4.49-3.62-9.26-5.84-13.68a11.4,11.4,0,0,0-4.76-4.84c-3.23-1.6-6.92-2.25-10.27-3.63a4.24,4.24,0,0,1-2.18-3c-.26-3.88-.1-7.78-.1-12.08,4-1.31,7.91-2.73,11.93-3.91,3.1-.91,4.73-2.76,5.73-5.9a87.28,87.28,0,0,1,5.31-12.73,7.8,7.8,0,0,0,0-7.93c-2-3.6-3.75-7.32-5.81-11.37,3-2.91,5.91-5.87,9-8.56a3.9,3.9,0,0,1,3.39-.37c3.34,1.44,6.43,3.53,9.83,4.74a10.53,10.53,0,0,0,6.45,0,119.07,119.07,0,0,0,14.39-6c1.86-.92,3.17-2.94,4.69-4.5.23-.23.25-.67.38-1q2-5.61,4-11.22H242.5c1.27,3.84,2.69,7.69,3.81,11.64a7.55,7.55,0,0,0,5.27,5.43c4.78,1.72,9.34,4.06,14.13,5.73a10,10,0,0,0,6.13.08c3.4-1.23,6.47-3.35,9.83-4.73a4.67,4.67,0,0,1,4,.52,51.51,51.51,0,0,1,7,7,4.28,4.28,0,0,1,.47,3.66c-1.37,3.23-3.48,6.18-4.61,9.48a11.57,11.57,0,0,0,0,6.82,104,104,0,0,0,5.81,14.08A11,11,0,0,0,299,74.94c3.94,1.78,8.21,2.8,12.45,4.17C311.48,83.35,311.64,87.37,311.38,91.36Z"/><path d="M96.93,112.46c-2-2-4.72-2.4-6.53-.42-2.67,2.94-5.49,3.15-9.22,3-12.77-.37-25.55-.2-38.33-.12-6.75.05-10.64,4-10.66,10.7q-.07,18.06,0,36.13c0,6.76,3.89,10.65,10.59,10.7,6.33,0,12.66,0,19,0H80.38c7.78,0,11.62-3.84,11.65-11.66,0-8.64,0-17.28,0-25.92,0-5.85-1-11.85,5.09-16C99.32,117.46,98.89,114.47,96.93,112.46Zm-15.1,49.63H42.58V125.28H74.94L58.66,142.56c-1.28-1.59-2.59-3.28-4-4.91-2-2.35-4.37-3.06-7.07-1.23-2.48,1.69-2.86,4.55-.85,7.36,2.19,3.06,4.51,6,6.87,9,2.9,3.58,5.55,3.76,8.92.51C68,148,73.32,142.69,78.7,137.4c.84-.84,1.73-1.63,3.13-2.93Z"/><path d="M251.64,179.77c-2.42-2.09-4.83-1.75-7.22.26-1.32,1.11-2.78,2.81-4.23,2.86-7.77.29-15.56.14-23.35.14v-.42c-6.09,0-12.18,0-18.27,0-8.12,0-11.52,3.43-11.55,11.58q-.06,17,0,34c0,8.32,3.43,11.74,11.75,11.77q18.09.06,36.18,0c8.36,0,11.92-3.65,12-12.1,0-10.72.1-21.44-.06-32.15,0-2.8.6-5,2.85-6.64a12.32,12.32,0,0,0,1.82-1.79C253.68,184.79,253.79,181.62,251.64,179.77Zm-15.1,49.82H197.32V192.85h32.74l-16.43,17.46c-1.3-1.63-2.4-3-3.52-4.44-2.41-3-5.44-3.69-7.85-1.78s-2.51,4.71-.26,7.74c2.11,2.83,4.24,5.65,6.44,8.41,2.8,3.54,5.66,3.75,8.94.57,5.42-5.25,10.76-10.59,16.15-15.89.84-.83,1.74-1.61,3-2.79Z"/><path d="M97,180c-1.92-2.23-4.88-2.17-7.45,0-.73.63-1.33,1.45-2.11,2a4.08,4.08,0,0,1-2.14.92c-14-.09-28-.3-41.94-.36-7.59,0-11.17,3.62-11.19,11.14q0,17.52,0,35c0,7.36,3.56,11,10.86,11.12,6.33.1,12.66,0,19,0s12.42,0,18.62,0c7.63-.08,11.36-3.86,11.39-11.5,0-9.61.21-19.23-.07-28.84-.15-5,.29-9.19,4.68-12.48C99.06,185.3,99.1,182.45,97,180ZM81.72,229.61H42.51V192.88h33L58.85,210.42c-1.37-1.74-2.52-3.23-3.7-4.71-2.26-2.81-5.2-3.47-7.59-1.72s-2.79,4.65-.55,7.68,4.39,5.84,6.66,8.69c2.69,3.37,5.56,3.6,8.67.6,5.69-5.5,11.29-11.09,16.94-16.63.67-.66,1.38-1.26,2.44-2.2Z"/><path d="M169.46,193.75c-.05-7.24-3.85-11.08-11-11.12q-19-.1-38,0c-7.19,0-10.83,3.64-10.87,10.74q-.1,17.88,0,35.77c0,7.08,3.69,10.69,10.85,10.8,6.32.09,12.65,0,19,0h19c7.18-.19,11-3.93,11-11.15Q169.57,211.28,169.46,193.75Zm-10.3,35.89H120V192.86h39.15Z"/><path d="M235.59,37.32c-27.49-.06-49.72,22-49.62,49.14a49.17,49.17,0,0,0,98.34-.19C284.27,59.53,262.22,37.38,235.59,37.32Zm19.71,16.3c8.62,3.25,18,17.43,18.08,27.42H255.3Zm-40.15-.72V81H196.5C198.61,68.79,204.58,59.71,215.15,52.9Zm.11,66.3c-8.45-2.76-17.8-16.63-18.5-27.65h18.5Zm29.35,5.48H225.8V91.6h18.81Zm0-43.76H225.77V48h18.86Zm10.52,38.94V91.63h18.54C271.92,103.74,265.8,112.76,255.15,119.86Z"/><path d="M154,224.82c-2.22,2.39-5,2.2-7.93-.7-1.81-1.79-3.46-3.75-5.83-6.33-2.38,2.63-4.15,4.8-6.15,6.74-2.55,2.49-5.24,2.54-7.41.39s-2.14-4.84.34-7.4c1.94-2,4.11-3.76,6.79-6.18-2.61-2.41-4.83-4.27-6.82-6.34-2.47-2.57-2.47-5.26-.28-7.4s4.81-2.09,7.4.43c2,1.94,3.74,4.12,6,6.68,2.3-2.45,4-4.45,5.93-6.31,2.94-2.88,5.7-3.07,7.95-.69s1.89,4.91-.78,7.71c-1.76,1.85-3.56,3.67-5.33,5.5a4.6,4.6,0,0,0-.16.9c1.67,1.61,3.62,3.4,5.48,5.29C156,219.87,156.19,222.51,154,224.82Z"/></g></g></svg>