<svg xmlns="http://www.w3.org/2000/svg" viewBox="0 0 153.62 190.25"><g id="Calque_2" data-name="Calque 2"><g id="Calque_1-2" data-name="Calque 1"><path d="M133.66,121.74a57.34,57.34,0,0,0,5.72-7.48,3.29,3.29,0,0,0-.91-4.67c-1.71-1.15-3-.37-4.22,1-.36.4-.66.84-1,1.27A144.28,144.28,0,0,1,112.19,134c-.72.61-1.54,1.12-2.53,1.83-.91-5.95-1.54-11.61-2.67-17.16C103.31,100.55,97.73,83,91.7,65.49c-6-17.32-14.34-33.2-26.71-46.87-6.38-7-13.44-13-22.48-16.38-15.72-5.86-30.15,0-37.16,15.13C-.23,29.43-.94,42.15.91,55A158.23,158.23,0,0,0,21.5,113.67c1,1.68.79,2.61-.45,3.92-4.42,4.63-8.42,9.56-10.84,15.6-2,5-3.24,10.1-2.3,15.49,1.75,10.1,8.17,16.3,17.33,19.83,13.16,5.06,26.84,6.15,40.77,4.41,4.17-.52,8.3-1.33,12.6-2-.17.58-.26,1-.41,1.41-1.46,3.88-3,7.72-4.36,11.63-1,2.71,0,5.29,2.1,6.1,1.84.73,3.25-.33,4.58-3.42.12-.28.25-.56.36-.84,1.71-4.19,3.34-8.41,5.15-12.55,2.07-4.75,5.86-7,11-7.5,7.19-.64,14.4-1.19,21.51-2.35,6.32-1,12.34-3.21,17-8.05s2.92-12.56-3.66-14.3a35.19,35.19,0,0,0-10.21-.66c-2.4.09-4.76,1-7.14,1.51l-.48-.72a16.87,16.87,0,0,0,2-1.48C121.94,133.72,127.89,127.82,133.66,121.74ZM73.75,164.23c-15.54,3.92-30.81,2.62-45.8-2.34-9.15-3-14.12-10.58-12.87-19.18s5.61-15.27,12.16-20.58c3.09,2.87,5.9,5.84,9.07,8.34,5.28,4.16,11.22,7,18.06,7.33a28.39,28.39,0,0,0,8-.67,11.86,11.86,0,0,0,9.32-9.51c1.11-5.41-.75-10-5.24-13.37-5.57-4.21-12.08-5-18.76-5.14a50.18,50.18,0,0,0-18.78,3.39c-3.1-6.15-6.4-12.12-9.18-18.31A144.48,144.48,0,0,1,7.36,47.48a53.15,53.15,0,0,1,4.47-27.2C17.19,8.55,28.46,4.17,40.4,9a44,44,0,0,1,14.35,9.43A113,113,0,0,1,81.67,59.51a399.23,399.23,0,0,1,18.45,61.82c1.09,5.25,1.86,10.58,2.49,15.91.46,3.87,2,6.56,6.08,7.39-.12.29-.14.55-.27.66C97.94,153.58,87,160.9,73.75,164.23Zm-39.7-45.78a38.49,38.49,0,0,1,19.64-1.37c3.2.59,6.27,1.43,8.76,3.72,3.59,3.3,2.77,7.86-1.89,9.3a14.12,14.12,0,0,1-6.34.56A32,32,0,0,1,34.05,118.45Zm88,29.09a19.31,19.31,0,0,1,6.81.21c2.32.39,2.55,1.7.75,3.28a10.25,10.25,0,0,1-3.22,2.16,82.72,82.72,0,0,1-21.76,4.56C109.66,152.89,115.19,148.94,122.08,147.54Z"/><path d="M153.62,36.32c-.05,13.38-4.18,25.69-10.15,37.42-6.33,12.43-13,24.69-19.55,37a10.33,10.33,0,0,1-1.29,1.91,3.42,3.42,0,0,1-5.85-3.4,23.63,23.63,0,0,1,1.79-3.46,372.05,372.05,0,0,0,22.59-44.47c4-9.53,6.05-19.49,4.91-29.88a30.7,30.7,0,0,0-2.07-8c-2-5-7.22-7.3-12.76-6.13a31.24,31.24,0,0,0-18.9,11.87c-3.65,4.81-6.81,10-10.1,15.07-1.2,1.87-2.06,4-3.26,5.82a2.91,2.91,0,0,1-4.07,1,2.78,2.78,0,0,1-1.35-3.92c5.7-11.62,11.64-23.09,22.66-30.81,5.46-3.81,11.42-6.42,18.15-6.45,7.25,0,12.62,3.44,15.85,9.92A35.2,35.2,0,0,1,153.62,36.32Z"/></g></g></svg>