<svg xmlns="http://www.w3.org/2000/svg" viewBox="0 0 204.28 128.99"><defs><style>.cls-1{fill:#fff;}</style></defs><g id="Calque_2" data-name="Calque 2"><g id="Calque_1-2" data-name="Calque 1"><path class="cls-1" d="M182.73,55.54h0c1.85,0,3.7.1,5.55.16C186.44,55.64,184.58,55.57,182.73,55.54Z"/><path d="M203.49,48.86a4.78,4.78,0,0,0-3.37.07c-.35.11-.29,1.54-.51,3,1.23-1.18,1.84-1.8,2.52-2.33.06,0,1,.75.9.88a6.46,6.46,0,0,1-1.57,2.43,7.19,7.19,0,0,1-3.52,1.63c-4.45.19-8.9.07-13.35.07a6,6,0,0,1,2.26-1.7c2.58-1.42,5.42-2.54,7.62-4.4,1.5-1.27,2.16-3.59,3.07-5.5.1-.22-.58-1-1-1.23a1.36,1.36,0,0,0-1.27.45,2.9,2.9,0,0,0-.21,1.63c2.46.68.79,2,.16,2.44-3.63,2.42-7.39,4.65-11.11,6.94-.17-.26-.34-.52-.5-.78a42.87,42.87,0,0,0,2.36-4.17c5.49-12.69,5.09-25.68,1.45-38.66a16.37,16.37,0,0,0-4.86-7.17c-4.7-4.17-10.3-2.82-13.58,2.53a53.87,53.87,0,0,1-5.08,6.14c-2.09-1.49-3.54-2.58-5-3.59-5.94-4-12.26-6.79-19.67-5.9-5.74.7-7.91,4.14-6,9.49.41,1.14.77,2.31,1.26,3.42,2.75,6.23,4.23,12.25.48,18.92-2.21,3.94-.24,6.56,4.32,7.63l7.4,1.74c4,.94,6.07,3.83,8,7.62-4.46-1.25-8.45-2.33-12.43-3.48A23.71,23.71,0,0,0,123.59,49c-5.07,2.75-7.73,7.11-7,12.76,1.06,7.84,5.13,14.3,12.78,16.72,4.88,1.55,9.68,2.42,13.45,6.27,1,1,3,1.06,4.54,1.57.69.23,1.37.5,2.4.88-8.64,7.25-16.37,15.12-25.4,21C109,118.3,91.66,123.36,73,122.08c-7-.48-13.9-2.06-19.78-6.26-5-3.56-7.86-8.29-7.23-14.93,5.12-.61,10.06-1.09,14.95-1.83C69.6,97.75,78,95.45,85.39,90.47c3-2,5.71-4.75,5.27-8.67-.49-4.45-4-6.6-7.93-7.9a13.35,13.35,0,0,0-2-.51C71.07,72,63,75.64,55.47,81.07a25.44,25.44,0,0,0-9.56,13.39c-1.69,5.44-1.64,5.46-7.31,5.82l-.61,0C20.13,101.5,8,110.92.38,126.65A7.09,7.09,0,0,0,0,128.27l.66.72c8.49-19.13,23.1-28.27,43.82-27.57,0,7.93,3.86,13.65,10.85,17.14a42.73,42.73,0,0,0,10.29,3.58c14.68,3,29,.92,42.67-4.56a91.49,91.49,0,0,0,18.78-9.83c7.43-5.25,14.1-11.59,21-17.54a13,13,0,0,1,7.45-3.5,14.15,14.15,0,0,0,6.94-3.32,24,24,0,0,0,5.67-6.7,45.36,45.36,0,0,1,12.46-13.91c2.38-1.82,3.56-4.2,2.11-7.23,1.85,0,3.7.1,5.55.16l.82,0a71.75,71.75,0,0,0,9.28-.16c2.05-.2,4-2.4,5.76-4C204.52,51.27,204.07,49.15,203.49,48.86ZM48.4,91.68c5-10.9,20.41-19,32-17a13,13,0,0,1,1.77.4c3.3,1.06,6.38,2.54,7,6.35s-1.92,6.25-4.73,8.17c-6.93,4.72-14.88,6.78-23,8.19-4.87.84-9.82,1.19-15.8,1.89A82.18,82.18,0,0,1,48.4,91.68Zm128.8-42c-1.55-13.91-6.78-25.74-14.58-36.53C176.62,22.08,184.12,36.58,177.2,49.66ZM136.68,69.29c1.25-2.49,3.34-1.83,5.53-1.7,7.06.43,14.14.59,21.21.83.55,0,1.1-.06,1.65-.09l.22.87q-13,4.39-26,8.74a2,2,0,0,1-1.62-.23C136.23,76.6,135.66,71.33,136.68,69.29Zm18.08,16.53-.58-.68,14.08-11.89.52.61C164.89,78.77,162,84.91,154.76,85.82ZM181,60.61c-1.77,1.91-3.84,3.53-5.78,5.27l-.81-.72a61.08,61.08,0,0,1,4.07-6.93c.54-.71,2.25-.54,3.42-.77C181.58,58.53,181.62,59.9,181,60.61Zm1.24-5.06-.29,0h-.13l-.32,0-.35,0-.18,0-.16,0h0l-.23.05-.28.07-.14,0h-.06l-.12,0-.33.11-.06,0-.2.07-.14.06-.34.16-.24.12-.41.24-.2.14a1.88,1.88,0,0,0-.18.12l-.15.12a.31.31,0,0,0-.09.07h0l-.23.2c-.12.1-.23.21-.34.32l-.19.2,0,.06-.16.18v0a.69.69,0,0,0-.11.13l-.1.12-.1.14-.12.16c0,.05-.07.11-.11.17a9.08,9.08,0,0,0-.89,1.7,1.34,1.34,0,0,0-.07.18L175,61l-.09.25a.49.49,0,0,0,0,.11l-.12.36a21.15,21.15,0,0,1-7.86,11.2,102.14,102.14,0,0,0-11.84,10c-3,3-6.08,3.37-9.56,1.6-2.35-1.19-4.5-2.76-7.29-4.5,6.08-2.15,11.23-3.89,16.32-5.78s10.29-3.38,14.88-6.28c-.06-.32-.12-.65-.17-1a18.82,18.82,0,0,0-3-.17,84.66,84.66,0,0,1-25.47-.63c-3.19-.62-5.24.9-5.52,4.1a63.82,63.82,0,0,0,.31,8.13,21.63,21.63,0,0,1-2.27,0c-8.26-.72-16.42-10.82-15.43-19,.43-3.52,1.9-6.48,5-8.34,4.86-3,10.1-4.88,15.89-3.55,4.74,1.09,9.36,2.64,14.08,3.83a7,7,0,0,1,5,4c1.81,3.76,5.29,5.22,9.09,5.86,1.21.2,2.58-.54,4.77-1.06a50.23,50.23,0,0,0-4-3.94,11.83,11.83,0,0,0-3.71-2c-4.93-1.47-8.77-4.1-11.34-8.74-.78-1.42-2.71-2.39-4.32-3.1a27.85,27.85,0,0,0-6.4-1.88c-8.49-1.45-7.51-4.14-4.62-9.87a11.48,11.48,0,0,0,.34-10.64c-1.35-3.05-2.23-6.3-3.34-9.45-1.47-4.15.05-7,4.53-7.4,3.27-.26,6.88-.27,9.87.85,4.76,1.8,9.14,4.63,13.67,7l-.87.78c.22,1.31,0,3,.73,3.89A67,67,0,0,1,176.09,50.7a17.86,17.86,0,0,0,.35,1.77c0,.06.16.09.63.31a23.09,23.09,0,0,0,4.15-14.62,25.83,25.83,0,0,0-5.62-14.85c-3.24-4.12-7.08-7.77-10.43-11.38,2-2.64,4-5.43,6.12-8.13a7.19,7.19,0,0,1,11.19.3,24.59,24.59,0,0,1,4.87,9.59,62.18,62.18,0,0,1-.06,27.45,25.73,25.73,0,0,1-8,13.76l.28.06.33.06.63.12.22,0,.84.17.37.07.61.11ZM159,53.11q5.18,2.67,10.37,5.32c-.16.33-.33.66-.5,1C164.76,60.58,160.59,58.29,159,53.11Z"/><path class="cls-1" d="M182.73,55.53l-.07,0-.08,0Z"/></g></g></svg>