<svg xmlns="http://www.w3.org/2000/svg" viewBox="0 0 1045.69 102.21"><defs><style>.cls-1{fill:#fff;}</style></defs><g id="Calque_2" data-name="Calque 2"><g id="Calque_1-2" data-name="Calque 1"><path class="cls-1" d="M557.24,27.85c0,.12,0,.25,0,.38h0C557.28,28.1,557.26,28,557.24,27.85Z"/><path d="M483.5,82.62c-.13.32-.25.64-.37,1-13.8-.54-27.59-1.48-41.38-1.53-49.67-.2-99.35-.85-149,.13-38.2.74-76.34,3.91-114.54,5.54-27.6,1.18-55.23,2.33-82.84,2.19A436,436,0,0,1,5.57,79.58,15.27,15.27,0,0,1,0,77.28l41.82,3.48c52.23,4.32,104.48,2.15,156.66-.57,57.17-3,114.31-6.76,171.6-5.34,28.61.71,57.21,2,85.78,3.61C465.12,79,474.29,81.18,483.5,82.62Z"/><path d="M1045.69,97.69c-4.07-.48-8.14-1.13-12.23-1.41-30.54-2.09-61.06-4.76-91.64-6-50.6-2.07-101.23-4-151.86-4.46-27-.25-53.93,3.09-80.93,4-20.73.7-41.51.14-62.27.14,0-.22-.07-.43-.1-.65,22.47-2.06,45-4,67.41-6.19,42.32-4.13,84.76-4.69,127.19-3.47,46.81,1.34,93.64,3.17,140.37,6.2,20.23,1.31,40.24,6.16,60.34,9.44A5.49,5.49,0,0,1,1045.69,97.69Z"/><path d="M602,75.19c-1.16,2.39-1.71,5.54-3.58,7.06-11.86,9.65-24.93,16.6-41,15.76,13.62-3.6,26.14-9.2,37.41-19.93-16.78-1.83-31.1,1-44.16,10.33C569.8,69.59,580,46,588.78,20.67c-20.67,5.79-53.3,24.8-58.54,55.05a29.72,29.72,0,0,1,5.57-22.23c6.53-8.87,14.24-16.88,21.46-25.25h0c1.34-.66,2.67-1.33,4-2,0,0,0,0,0,0l8-4,4-2,8-4q4-2,8.08-3.91c1.76-.84,4.11-.46,6.18-.64.15,2,.78,4.16.37,6.07-4.42,21-15.81,38.6-28.06,55.73-.88,1.23-1.89,2.37-2.14,2.69,9.27-1.17,19-2.62,28.83-3.46C597,72.5,599.51,74.31,602,75.19Z"/><path d="M557.16,27.22c0,.2.05.41.07.62C553.12,21,549,14.09,544.52,6.6c-14.13,21.23-24.25,42.28-18.11,67.76C515.88,51.61,524.65,15.2,544.49,0c5.17,8,10.5,15.77,12.34,25.24.12.64.23,1.3.33,2Z"/><path d="M557.39,28.1l-.1.12h0c0-.13,0-.26,0-.38Z"/><path d="M555.35,102.21,514.83,73.3c4.49,1.71,10.29,4,16.13,6.1a29,29,0,0,0,4.39.91v0a31.51,31.51,0,0,0,3,4.06C544.22,90.17,550.15,95.89,555.35,102.21Z"/><path d="M562.94,43.65c-11.8,10.3-24,20.19-27.59,36.63.41-3.64.12-7.53,1.36-10.85C541.4,56.84,551.1,49.11,562.94,43.65Z"/><path d="M537.37,30.81q-3.32,11.33-6.64,22.65l-1.76-.2q3.21-11.5,6.43-23Z"/><path d="M577.49,87.42l-23.73,8.21c-.18-.54-.37-1.09-.56-1.63L577,85.83Z"/></g></g></svg>