<svg xmlns="http://www.w3.org/2000/svg" xmlns:xlink="http://www.w3.org/1999/xlink" viewBox="0 0 1084.13 1078.62"><defs><style>.cls-1,.cls-2,.cls-3{fill:none;}.cls-2{stroke:#008081;}.cls-2,.cls-3{stroke-miterlimit:10;}.cls-3{stroke:#aa2f47;}.cls-4{fill:#008081;}.cls-5{fill:#aa2f47;}.cls-6{fill:url(#Nouvelle_nuance_de_motif_2);}</style><pattern id="Nouvelle_nuance_de_motif_2" data-name="Nouvelle nuance de motif 2" width="310" height="340" patternUnits="userSpaceOnUse" viewBox="0 0 310 340"><rect class="cls-1" width="310" height="340"/><circle class="cls-2" cx="232.35" cy="374.85" r="40.36"/><circle class="cls-2" cx="229.5" cy="370.44" r="40.36"/><circle class="cls-2" cx="226.64" cy="366.03" r="40.36"/><circle class="cls-2" cx="223.79" cy="361.61" r="40.36"/><circle class="cls-3" cx="220.93" cy="357.2" r="40.36"/><circle class="cls-3" cx="218.08" cy="352.79" r="40.36"/><circle class="cls-3" cx="215.22" cy="348.38" r="40.36"/><circle class="cls-3" cx="212.37" cy="343.96" r="40.36"/><path class="cls-4" d="M328.14,296.68c-15.61,10.74-28.13,24.05-36.29,41.45,3.06-20.34,11.46-38.23,24.33-53.95,3.9-4.77,9.28-5.68,13.85-1C334.81,288,333.24,293.16,328.14,296.68Z"/><path class="cls-4" d="M281.3,337.67c-8-17.84-20.26-31.83-36.26-42.74-5.2-3.55-7.93-8.39-2.67-14,4.32-4.64,10.35-3.75,15.13,2.38C270,299.34,278.45,317.28,281.3,337.67Z"/><path class="cls-5" d="M289.36,365.35c15.62-10.72,28.15-24,36.34-41.4-3.08,20.34-11.51,38.21-24.4,53.91-3.91,4.77-9.29,5.67-13.86,1C282.67,374,284.25,368.86,289.36,365.35Z"/><circle class="cls-2" cx="99.45" cy="332.84" r="38.55"/><circle class="cls-2" cx="96.72" cy="328.63" r="38.55"/><circle class="cls-2" cx="93.99" cy="324.41" r="38.55"/><circle class="cls-2" cx="91.26" cy="320.2" r="38.55"/><circle class="cls-3" cx="88.54" cy="315.98" r="38.55"/><circle class="cls-3" cx="85.81" cy="311.77" r="38.55"/><circle class="cls-3" cx="83.08" cy="307.55" r="38.55"/><circle class="cls-3" cx="80.36" cy="303.34" r="38.55"/><path class="cls-4" d="M18.14,296.68C2.53,307.42-10,320.73-18.15,338.13c3.06-20.34,11.46-38.23,24.33-53.95,3.9-4.77,9.28-5.68,13.85-1C24.81,288,23.24,293.16,18.14,296.68Z"/><path class="cls-5" d="M-20.64,365.35C-5,354.63,7.51,341.34,15.7,324c-3.08,20.34-11.51,38.21-24.4,53.91-3.91,4.77-9.29,5.67-13.86,1C-27.33,374-25.75,368.86-20.64,365.35Z"/><path class="cls-5" d="M26.26,324.43c8,17.85,20.2,31.86,36.19,42.79,5.2,3.56,7.92,8.4,2.64,14C60.77,385.89,54.74,385,50,378.86,37.49,362.77,29.07,344.82,26.26,324.43Z"/><circle class="cls-2" cx="254.45" cy="162.84" r="38.55"/><circle class="cls-2" cx="251.72" cy="158.63" r="38.55"/><circle class="cls-2" cx="248.99" cy="154.41" r="38.55"/><circle class="cls-2" cx="246.26" cy="150.2" r="38.55"/><circle class="cls-3" cx="243.54" cy="145.98" r="38.55"/><circle class="cls-3" cx="240.81" cy="141.77" r="38.55"/><circle class="cls-3" cx="238.08" cy="137.55" r="38.55"/><circle class="cls-3" cx="235.36" cy="133.34" r="38.55"/><circle class="cls-2" cx="77.35" cy="204.85" r="40.36"/><circle class="cls-2" cx="74.5" cy="200.44" r="40.36"/><circle class="cls-2" cx="71.64" cy="196.03" r="40.36"/><circle class="cls-2" cx="68.79" cy="191.61" r="40.36"/><circle class="cls-3" cx="65.93" cy="187.2" r="40.36"/><circle class="cls-3" cx="63.08" cy="182.79" r="40.36"/><circle class="cls-3" cx="60.22" cy="178.38" r="40.36"/><circle class="cls-3" cx="57.37" cy="173.96" r="40.36"/><path class="cls-4" d="M173.14,126.68c-15.61,10.74-28.13,24-36.29,41.45,3.06-20.34,11.46-38.23,24.33-53.95,3.9-4.77,9.28-5.68,13.85-1C179.81,118,178.24,123.16,173.14,126.68Z"/><path class="cls-4" d="M126.3,167.67c-8-17.84-20.26-31.83-36.26-42.74-5.2-3.55-7.93-8.39-2.67-14,4.32-4.64,10.35-3.75,15.13,2.38C115,129.34,123.45,147.28,126.3,167.67Z"/><path class="cls-5" d="M134.36,195.35c15.62-10.72,28.15-24,36.34-41.4-3.08,20.34-11.51,38.21-24.4,53.91-3.91,4.77-9.29,5.67-13.86,1C127.67,204,129.25,198.86,134.36,195.35Z"/><path class="cls-5" d="M181.26,154.43c8,17.85,20.2,31.86,36.19,42.79,5.2,3.56,7.92,8.4,2.64,14.05-4.32,4.62-10.35,3.73-15.12-2.41C192.49,192.77,184.07,174.82,181.26,154.43Z"/><circle class="cls-2" cx="232.35" cy="34.85" r="40.36"/><circle class="cls-2" cx="229.5" cy="30.44" r="40.36"/><circle class="cls-2" cx="226.64" cy="26.03" r="40.36"/><circle class="cls-2" cx="223.79" cy="21.61" r="40.36"/><circle class="cls-3" cx="220.93" cy="17.2" r="40.36"/><circle class="cls-3" cx="218.08" cy="12.79" r="40.36"/><circle class="cls-3" cx="215.22" cy="8.38" r="40.36"/><circle class="cls-3" cx="212.37" cy="3.96" r="40.36"/><path class="cls-5" d="M289.36,25.35C305,14.63,317.51,1.34,325.7-16c-3.08,20.34-11.51,38.21-24.4,53.91-3.91,4.77-9.29,5.67-13.86,1C282.67,34,284.25,28.86,289.36,25.35Z"/><circle class="cls-2" cx="99.45" cy="-7.16" r="38.55"/><circle class="cls-2" cx="96.72" cy="-11.37" r="38.55"/><circle class="cls-2" cx="93.99" cy="-15.59" r="38.55"/><circle class="cls-2" cx="91.26" cy="-19.8" r="38.55"/><circle class="cls-3" cx="88.54" cy="-24.02" r="38.55"/><circle class="cls-3" cx="85.81" cy="-28.23" r="38.55"/><circle class="cls-3" cx="83.08" cy="-32.45" r="38.55"/><circle class="cls-3" cx="80.36" cy="-36.66" r="38.55"/><path class="cls-5" d="M-20.64,25.35C-5,14.63,7.51,1.34,15.7-16,12.62,4.29,4.19,22.16-8.7,37.86c-3.91,4.77-9.29,5.67-13.86,1C-27.33,34-25.75,28.86-20.64,25.35Z"/><path class="cls-5" d="M26.26-15.57c8,17.85,20.2,31.86,36.19,42.79,5.2,3.56,7.92,8.4,2.64,14.05C60.77,45.89,54.74,45,50,38.86,37.49,22.77,29.07,4.82,26.26-15.57Z"/></pattern></defs><g id="Calque_2" data-name="Calque 2"><g id="Calque_1-2" data-name="Calque 1"><rect class="cls-6" width="1084.13" height="1078.62"/></g></g></svg>