<svg xmlns="http://www.w3.org/2000/svg" viewBox="0 0 321.47 321.35"><defs><style>.cls-1{fill:#cf1136;}</style></defs><g id="Calque_2" data-name="Calque 2"><g id="Calque_1-2" data-name="Calque 1"><path class="cls-1" d="M321.41,226.25c0-5.83-2-7.83-8-7.83H260.39c4.25-8,2.53-15.39-.59-22.9-6.21-14.93-12.14-30-18.12-45a23.48,23.48,0,0,0-10.37-12.14c-5.62-3.21-11.16-6.57-16.82-9.7a4,4,0,0,1-2.33-4.21c.14-5.64.05-11.29.05-16.94V84.4c.5-.17.78-.31,1.07-.37,2-.41,4.09-.78,6.13-1.23a114.23,114.23,0,0,0,58.64-32.41,20.22,20.22,0,0,0-4.74-31.89c-8.06-4.51-17.53-3.1-24.71,3.93A76,76,0,0,1,216,41.67c-3.81,1.1-7.75,1.76-12.29,2.77,3.88-8,4-15.56,2.78-23.19A25.69,25.69,0,0,0,182.07,0C169-.17,158,8.23,155.74,20.51c-1.48,8.1-1.38,16.21,2.59,23.84-6.89.73-13.57,1.08-20.13,2.19A114.62,114.62,0,0,0,74.11,80.12a18.71,18.71,0,0,0-5.35,16.4c1.19,8.12,5.67,13.88,13.48,16.58s14.94.8,21.15-4.77a134.36,134.36,0,0,1,11.82-9.77,68,68,0,0,1,24.67-10.85c.07,1.16.16,2.06.16,3,0,11.51,0,23,0,34.52,0,1.24.37,2.47.37,3.71,0,1.43.18,3.06-.41,4.28-5.14,10.72-10.49,21.35-15.65,32.07a8.72,8.72,0,0,1-4.52,4.37c-14.46,6.77-28.94,13.51-43.26,20.56a21.52,21.52,0,0,0,18.28,38.95c4.89-2.1,9.65-4.5,14.45-6.78,4.53-2.14,9.1-4.2,13.55-6.5a6.08,6.08,0,0,0,2.75-8.3c-1.52-3.13-4.78-4.33-8.21-3-.78.3-1.53.67-2.28,1-8.21,3.88-16.38,7.84-24.63,11.64-6,2.77-12-.3-13.1-6.59-.69-3.93,1.59-7.59,6.22-9.79,15-7.12,29.94-14.27,45-21.31a11.21,11.21,0,0,0,5.64-5.53c6.21-12.76,12.55-25.46,18.74-38.23.84-1.74,1.77-2.47,3.75-2.45,12.76.08,25.53,0,38.29.09a9.33,9.33,0,0,1,4.41,1.19c8.36,4.75,16.6,9.68,24.94,14.45a12.22,12.22,0,0,1,5.6,6.45c3.84,9.8,7.83,19.55,11.76,29.32,2.6,6.49,5.29,12.94,7.77,19.47,2.37,6.23-1.21,12.07-7.51,12.54-4.07.3-7.31-1.87-9.09-6.27C227,196.05,221.26,181.51,215.32,167c-.71-1.72-2-3.74-3.53-4.49-10.54-5-21.21-9.81-31.87-14.57a5.53,5.53,0,0,0-7.09,1.62c-5.56,7.45-11.09,14.94-16.2,22.7-1,1.49-.51,4.46.22,6.4a4.65,4.65,0,0,0,5.77,2.68,11,11,0,0,0,5.2-3.48c4.11-5.24,7.88-10.74,11.81-16.19,7.43,3.37,14.52,6.67,21.69,9.77a6.75,6.75,0,0,1,3.89,4.09c5.21,13.18,10.55,26.32,15.78,39.5,2,5,5,9.31,9.91,11.66,2.4,1.14,2.67,2.62,2.66,4.85-.05,27.2,0,54.4-.09,81.59,0,3.77,1,6.52,4.45,8.18H317c3.26-1.62,4.46-4.18,4.45-7.86C321.36,284.41,321.41,255.33,321.41,226.25ZM168,24.22a13.19,13.19,0,0,1,13.34-11.66c6.84.2,12.22,5.38,12.92,12.51.12,1.24,0,2.51,0,3.76l.28,0a43.58,43.58,0,0,1-.82,6.5c-1.62,5.95-7.12,9.61-13.58,9.32a12.53,12.53,0,0,1-12-10.49A35.75,35.75,0,0,1,168,24.22ZM199.64,79.1c0,12.55,0,25.09,0,37.64v3.7H152.78V117c0-11.71,0-23.42,0-35.13,0-6.6-2.7-8.85-9.17-7.83A87.11,87.11,0,0,0,95.48,98.24c-2.19,2.12-4.5,3.84-7.71,3.28a7.16,7.16,0,0,1-6-4.94,7.76,7.76,0,0,1,2.08-8.32A103.88,103.88,0,0,1,158.6,57.59c10.88.1,21.75-.06,32.63,0,25.64.22,47.88-8.15,66.3-26.18,2.39-2.35,5.11-3.3,8.27-2.36a7.25,7.25,0,0,1,5.14,5.8A7.38,7.38,0,0,1,268.55,42c-15.38,15.32-33.64,25.16-55.06,29-2.56.46-5.14.84-7.73,1.2C201.75,72.73,199.65,75,199.64,79.1Zm109,229.49H246.25V231.11h62.38Z"/><path class="cls-1" d="M204.64,246.09c0-5.43-2.14-7.58-7.56-7.59H124.33c-5.42,0-7.56,2.15-7.56,7.59,0,22.47.06,44.94-.06,67.41,0,3.68,1.19,6.23,4.45,7.85h79.1c3.25-1.62,4.46-4.17,4.45-7.86C204.59,291,204.65,268.56,204.64,246.09ZM192,308.63H129.57V251.27H192Z"/><path class="cls-1" d="M87.88,267.75c0-5.86-2-7.91-7.87-7.91-23.71,0-47.43.08-71.14-.08-3.75,0-6.67.81-8.87,3.84v57.75H83.49c3.44-1.66,4.5-4.4,4.46-8.17C87.79,298,87.89,282.89,87.88,267.75ZM75.09,308.58H12.7v-36H75.09Z"/><path class="cls-1" d="M151.85,198.21a6.54,6.54,0,0,1-6.44,6.34,6.29,6.29,0,0,1-6.17-6.5,6.07,6.07,0,0,1,6.5-6.08A6.25,6.25,0,0,1,151.85,198.21Z"/></g></g></svg>