<svg xmlns="http://www.w3.org/2000/svg" viewBox="0 0 464 431.36"><g id="Calque_2" data-name="Calque 2"><g id="Calque_1-2" data-name="Calque 1"><path d="M215.24,116.29a99.38,99.38,0,1,0,99.48,99.39A99.08,99.08,0,0,0,215.24,116.29Zm47.93,62.85q-24.09,40.68-48.57,81.14c-3.73,6.18-9,6.76-14.13,1.7Q184.6,246.36,169,230.51c-4.18-4.24-4.31-8.79-.73-12.32s8-3.37,12.32.89c8.21,8.11,16.27,16.37,24.76,24.95L214.4,229q17.29-28.8,34.57-57.61c2-3.35,4.81-6.15,8.7-5a11.94,11.94,0,0,1,6.52,5.66C265.09,173.79,264.34,177.16,263.17,179.14Z"/><path d="M208,66.49c-9,1.45-17.48,2.46-25.81,4.24-58.81,12.58-105.77,63.19-114,122.85a17.06,17.06,0,0,1-6.66,12C52,213.2,42.93,221.39,33.2,229.74c-7-5.84-13.78-11.58-20.63-17.28C-.85,201.29-.75,201.32,1.87,184.13c7.71-50.61,30.59-93.2,68.26-127.66,32.52-29.73,70.79-47.79,114.5-54C191.87,1.4,199.17.8,206.44,0c.15.49.3,1,.44,1.46q-10.35,12.24-20.7,24.48c-5.25,6.2-5.23,9,.16,15.22C193.5,49.5,200.64,57.86,208,66.49Z"/><path d="M431.21,206.66l-1.34.72c-1.9-1.59-3.8-3.17-5.68-4.76q-9.69-8.18-19.37-16.36c-5.8-4.89-8.7-4.92-14.45,0-8.51,7.25-17,14.55-25.31,21.69-2.62-12.37-4-24.64-7.85-36.06-19.57-58-59.68-92.64-120.11-103.36-4.53-.8-8.11-2.15-11.21-6.06-7.78-9.84-16.21-19.16-24.61-29,9-10.73,17.61-21.25,26.6-31.43C229.09.69,232.25.43,234.41.63c32.18,2.94,62.47,12.22,90.1,29,55.54,33.76,89.84,82.73,102.73,146.46C429.27,186.15,429.92,196.47,431.21,206.66Z"/><path d="M429.61,233.06a205.85,205.85,0,0,1-34.84,101.33c-34.94,52-83.6,83.28-145.28,94.15-8.28,1.46-16.74,1.91-25.11,2.82-.21-.45-.43-.89-.64-1.34q10.11-12,20.23-24c5.93-7,5.92-9.5-.07-16.43-7-8.16-14-16.37-21.1-24.66,10.16-1.81,20-2.66,29.29-5.37,62-18.05,99-58.87,110.44-122.53.79-4.43,2.27-7.76,6-10.71,9.78-7.87,19.15-16.26,29.07-24.77,10.52,9,20.88,17.78,31,26.78C429.57,229.23,429.72,231.49,429.61,233.06Z"/><path d="M229.44,397.85c-9.26,10.81-18.13,21.34-27.29,31.63-1.07,1.2-3.69,1.44-5.6,1.44q-75.81.12-151.64.06c-9.32,0-18.63,0-27.95,0C7,430.91.1,424,0,414.07q-.08-16.31,0-32.6c.06-9.72,6.9-16.7,16.55-16.71q90.32-.06,180.63.06c1.82,0,4.25.67,5.37,1.94C211.53,376.81,220.21,387.08,229.44,397.85Z"/><path d="M146.3,347.85c-1.82.13-3.05.3-4.28.3-30.7,0-61.39,0-92.09.08a7.54,7.54,0,0,1-6.84-3.42C17,309.7,3,270.26.28,226.68c0-.78.06-1.57.15-3.42,8.25,7.05,15.82,13.45,23.32,19.93,8.56,7.39,10.2,7.4,18.73.06,7.82-6.73,15.7-13.41,24.13-20.61C71.23,278.48,97.82,319.73,146.3,347.85Z"/><path d="M459.24,405.47c-10.88,7.58-21.81,15.12-32.95,22.32a18.87,18.87,0,0,1-9.6,3c-37.26.21-74.53.14-111.79.13-.65,0-1.3-.1-3.48-.27,35.65-14.84,64.94-35.82,89.3-63.7,1.06-1.22,3.16-1.55,4.79-2.24.29-.12.69,0,1,0,17.35-2.39,32.5,2.07,45.76,13.74,5.14,4.52,11.36,7.78,17,11.79C465.57,394.77,465.6,401,459.24,405.47Z"/></g></g></svg>