<svg xmlns="http://www.w3.org/2000/svg" viewBox="0 0 121.43 141.49"><g id="Calque_2" data-name="Calque 2"><g id="Calque_1-2" data-name="Calque 1"><path d="M111.63,130.75c-5.81,9.33-18.31,13.3-28.7,9A22.93,22.93,0,0,1,70,126.9a23.63,23.63,0,0,1,.14-18.34L32.81,87.24a18.93,18.93,0,0,1-9.27,6.29,18.35,18.35,0,0,1-23-13.15,18.12,18.12,0,0,1,14.15-22.2c2.65-.48,5.5,0,8.25.17.71,0,1.21.27,1.65-.6q8.48-17.07,17-34.11a1,1,0,0,0,0-.3C35.22,17.49,35.87,9.92,39.41,5.2a13.05,13.05,0,1,1,7,20.48l-2.44,4.85Q36.68,45,29.4,59.51c-.48,1-.58,1.48.39,2.32,6.14,5.28,8.08,11.92,5.94,19.72-.22.84-.27,1.3.57,1.78q18.08,10.28,36.14,20.59a2.77,2.77,0,0,0,.3.07c5-6.19,11.39-9.74,19.53-9.52a23.36,23.36,0,0,1,15,5.67C115.88,107.57,117.74,120.92,111.63,130.75Z"/><path d="M120.73,65.35c-1.13,1.19-2.58,1.08-4.13-.39a36,36,0,0,0-49.07-.51c-.36.32-.67.67-1,1a2.59,2.59,0,0,1-3.68-.1A2.47,2.47,0,0,1,63,61.68a38.91,38.91,0,0,1,10-7.27,42.81,42.81,0,0,1,20.1-4.51c9.48.14,19,3.87,27,11.35C121.62,62.65,121.84,64.19,120.73,65.35Z"/><path d="M114,75.6c-.25,2.13-2.76,2.67-4.49,1.05a24.25,24.25,0,0,0-8.3-5.33c-9.75-3.57-18.58-1.94-26.46,4.79-2.08,1.77-3.42,2-4.6.62s-.71-2.79,1.14-4.44a30.61,30.61,0,0,1,21.14-7.94,29.33,29.33,0,0,1,20.47,8.52A3.8,3.8,0,0,1,114,75.6Z"/><path d="M106.06,88.14c-1,1.16-2.41,1.21-3.78.13l-.47-.41A14.57,14.57,0,0,0,91.46,84a15.35,15.35,0,0,0-9.76,3.82,4.19,4.19,0,0,1-2.75,1,2.75,2.75,0,0,1-1.85-1.8A3.3,3.3,0,0,1,78,84.45,19.2,19.2,0,0,1,91.59,78.9a19.7,19.7,0,0,1,14.11,5.58A2.57,2.57,0,0,1,106.06,88.14Z"/></g></g></svg>