<svg xmlns="http://www.w3.org/2000/svg" viewBox="0 0 144.68 144.69"><g id="Calque_2" data-name="Calque 2"><g id="Calque_1-2" data-name="Calque 1"><path d="M91.18,74.12c-1.92-1.35-2-2.18,0-3.47a29.57,29.57,0,0,0,12.3-17c1.49-5.31,1-10.75.75-16.13A11.43,11.43,0,0,0,92.75,27q-20.41,0-40.82,0A11.54,11.54,0,0,0,40.49,37.6c-.2,2.77-.13,5.57-.13,8.35,0,10.53,4.61,18.61,13.11,24.61,2,1.44,2,2.24-.09,3.68A29.79,29.79,0,0,0,41.74,89.46c-2,5.67-1.51,11.52-1.25,17.31.29,6.45,5.4,11,11.86,11q10,0,20,0c6.83,0,13.66,0,20.49,0a11.56,11.56,0,0,0,11.35-10.55c.2-2.82.14-5.66.14-8.5C104.34,88.18,99.68,80.11,91.18,74.12Zm2.87,32.14c0,.49-1,1.13-1.61,1.36a6.63,6.63,0,0,1-2.19.07H53.36c-2.45,0-2.8-.36-2.8-2.83,0-1.94.06-3.89,0-5.83-.27-7.39,3.24-12.79,9.09-16.77,7.27-5,7.33-14.9,0-19.75a19.55,19.55,0,0,1-8.86-12.87c-.51-2.64-.18-5.44-.21-8.17-.05-4.25-.38-4.47,4.37-4.43,5.83.06,11.66,0,17.49,0q9.54,0,19.08,0c2.24,0,2.64.41,2.65,2.66,0,2-.06,4,0,6,.25,7.31-3.18,12.7-9,16.68-7.47,5.16-7.53,14.88,0,19.93,4.62,3.09,7.82,7.33,8.71,12.78C94.51,98.74,94.15,102.54,94.05,106.26Z"/><path d="M89.18,142.72A73.81,73.81,0,0,1,63.7,144.2c-3.52-.39-5.49-2.49-5.28-5.6A5,5,0,0,1,64.05,134a61.73,61.73,0,0,0,65.84-38.23c8.5-21.61,5.55-42-8-60.93a12.43,12.43,0,0,0-.89-.95c-.29,2.31-.5,4.29-.8,6.26a5.09,5.09,0,0,1-5.87,4.58c-2.86-.44-4.58-2.85-4.18-6q1.13-8.89,2.31-17.78c.5-3.75,2.56-5.44,6.38-5,6.19.76,12.38,1.58,18.55,2.52a4.93,4.93,0,0,1,4,5.73,5.23,5.23,0,0,1-5.44,4.26c-1.78-.19-3.54-.48-5.3-.73l-1.29-.14c.31.49.5.84.74,1.16a71,71,0,0,1,14.08,34.72A72.31,72.31,0,0,1,89.18,142.72Z"/><path d="M86.23,6.62c-.43,2.81-3,4.39-6.25,4-17.55-1.91-33.33,2.5-47,13.66A59.89,59.89,0,0,0,11,62.45C8.23,79.94,12.33,95.87,22.91,110.1c.18.24.41.43.8.85.27-2.14.52-4,.76-5.93.36-2.81,1.82-4.52,4.27-5a4.83,4.83,0,0,1,5.35,2.68,6,6,0,0,1,.54,3c-.72,6-1.58,12.06-2.36,18.09-.46,3.58-2.73,5.44-6.27,5q-8.89-1.12-17.78-2.31c-3.11-.41-5.1-2.67-4.91-5.51a5.09,5.09,0,0,1,5-4.7c1.83.06,3.64.43,5.47.66l1.65.21c-.46-.65-.75-1.07-1.05-1.47A72.32,72.32,0,0,1,81.35.57C84.79,1,86.72,3.43,86.23,6.62Z"/></g></g></svg>