<svg xmlns="http://www.w3.org/2000/svg" viewBox="0 0 344.39 322.17"><g id="Calque_2" data-name="Calque 2"><g id="Calque_1-2" data-name="Calque 1"><path d="M344.33,26.24a26.54,26.54,0,0,0-1.3-8C339.24,6.46,329.4,0,315.61,0H27.38C11,.21,0,11.33,0,27.64V214.47C0,230.62,11.36,242,27.5,242q57.47,0,114.92,0h5.09c0,9.47-.17,18.56.08,27.63.1,3.55-.88,5.12-4.45,6.16-22.32,6.54-44.54,13.36-66.8,20.1-5,1.52-5.77,4.1-2.37,8.16,4.32,5.17,8.85,10.17,13.06,15.42,2.13,2.64,4.36,3.21,7.52,2.22,8.3-2.61,16.68-4.93,25-7.48,31.48-9.65,31.47-9.67,64.38-9.67a31.09,31.09,0,0,1,3.74,0,62.81,62.81,0,0,1,9.53,1.47c17.56,5.09,35,10.44,52.61,15.48,1.86.53,5,.42,6.08-.74,5.48-5.79,10.58-12,15.62-18.14,2-2.43,1-5-2-6.31a35.88,35.88,0,0,0-3.56-1.12c-21.89-6.61-43.77-13.26-65.69-19.76-2.59-.77-3.56-1.8-3.49-4.58.2-8.48.06-17,.08-25.46,0-1.07.14-2.14.22-3.4h4.75q58,0,116,0a26.28,26.28,0,0,0,26.47-26.31Q344.43,121,344.33,26.24ZM147.41,295.94a3.2,3.2,0,0,1-1.95,2.15q-25.12,7.61-50.34,15a4.16,4.16,0,0,1-3.5-.86c-2.9-3.05-5.52-6.37-8.55-9.94l64.43-19.42C147.5,287.54,147.6,291.75,147.41,295.94Zm49.47-13.17,64.47,19.48c-3.14,3.68-6,7.18-9.07,10.49-.53.56-2.09.59-3,.32q-25-7.33-50-14.91a3.83,3.83,0,0,1-2.33-2.57C196.74,291.51,196.88,287.41,196.88,282.77Zm-8.3,13.53H155.86V242.23h32.72ZM336.3,213.9c0,12.61-7.41,20-20,20H172.21c-47.91,0-95.83-.22-143.74.16-11.19.08-20.6-8.11-20.53-20.48Q8.4,120.92,8,28.24c0-10.88,7.52-20.33,20.29-20.31q143.93.24,287.86,0c12.87,0,20.38,9.47,20.34,20.27C336.17,90.1,336.32,152,336.3,213.9Z"/><path d="M315.35,18.79H29c-7.93,0-10.28,2.35-10.28,10.21V212.82c0,8.05,2.41,10.46,10.49,10.46H315.56c7.53,0,10.1-2.58,10.1-10.11V29C325.66,21.13,323.31,18.79,315.35,18.79Zm2,196.1H27.05V27.06H317.33Z"/><path d="M252.15,132.65c-1.05,13-13.7,22.88-26.68,22.36-13.79-.56-25.05-11.4-25.59-24.93-.24-6.23,0-12.47,0-18.71h-.1c0-6.37,0-12.73,0-19.1,0-2.81.72-5.15,4-5.14s4,2.44,4,5.18c0,11.73-.06,23.46.05,35.19.09,9.45,5.42,16.61,13.64,18.72,12,3.09,23.12-5.52,23.33-18.38.18-11.72.08-23.46,0-35.19,0-2.92.49-5.5,4-5.5s4.16,2.63,4.12,5.5C252.71,106,253.22,119.38,252.15,132.65Z"/><path d="M95.84,128.32a26.48,26.48,0,0,1-52.94,1.37c-.47-12.58-.14-25.18-.13-37.77,0-2.7,1.13-4.8,4.06-4.78,3.15,0,4.08,2.21,4.07,5.09,0,12.09-.09,24.18,0,36.27.08,9.59,7.15,17.19,16.83,18.36,8.45,1,17.06-5,19.39-13.67a26.41,26.41,0,0,0,.62-6.66c.06-10.72,0-21.44,0-32.16a24.8,24.8,0,0,1,0-3c.29-2.5,1.43-4.39,4.21-4.26s3.83,1.91,3.82,4.55c0,6.6,0,13.21,0,19.82C95.85,117.1,95.9,122.71,95.84,128.32Z"/><path d="M148.21,147.77c1.49,2.42,1.92,4.79-.8,6.48s-4.64.09-6.09-2.29c-4.59-7.53-9.19-15.05-14.16-23.18-5,8.12-9.44,15.73-14.25,23.14a6.62,6.62,0,0,1-4.64,2.78c-3,0-4.18-3.49-2.35-6.55,4.74-7.9,9.45-15.82,14.44-23.56,1.75-2.72,1.62-4.68-.09-7.34-4.84-7.53-9.33-15.3-14.06-22.91-1.6-2.59-2.12-5,.84-6.71s4.62.15,6,2.5c4.56,7.51,9.16,15,14.07,23.05l12.49-20.47c.72-1.17,1.39-2.37,2.16-3.5,1.37-2,3.2-2.9,5.44-1.61s2.73,3.51,1.41,5.76c-3.09,5.27-6.35,10.43-9.47,15.67-2.4,4-6.5,8.13-6.52,12.22,0,3.94,4.2,7.91,6.59,11.85Q143.71,140.45,148.21,147.77Z"/><path d="M301.49,150.87c.07,2.83-2,4.17-4.7,4.18q-14.22,0-28.44,0c-2.65,0-4.75-1-4.76-4.06s1.94-4.06,4.7-4c3.23,0,6.46,0,10,0V95.15c-3.43,0-6.66,0-9.88,0-2.65,0-4.76-1-4.78-4.06s1.92-4,4.69-4c9.48,0,19,0,28.44,0,2.84,0,4.77,1.22,4.77,4s-2.07,4.07-4.8,4.1c-3.22,0-6.43,0-9.85,0V147c3.35,0,6.57.07,9.77,0C299.43,146.86,301.42,148.05,301.49,150.87Z"/><path d="M188.86,74.16q-7.38,27.74-14.8,55.46Q168.63,150,163.15,170.3c-1,3.81-4.07,5.29-6.54,3.22a11.12,11.12,0,0,1-1.86-2.87c.63-2.38,1.17-4.42,1.72-6.45Q168.82,118.12,181.13,72c.72-2.68,1.8-4.76,5-4.36C188.83,68,189.84,70.51,188.86,74.16Z"/></g></g></svg>