<svg width="53" height="54" viewBox="0 0 53 54" fill="none" xmlns="http://www.w3.org/2000/svg">
<path d="M53.0001 12.6255C53.0001 12.06 52.7397 11.7351 52.2058 11.5769C51.5928 11.3938 50.9815 11.1993 50.3834 10.9734C50.1911 10.8924 50.0283 10.7543 49.917 10.5777C49.1458 9.29656 49.0404 8.02698 50.0455 6.80027C50.1002 6.71597 50.1476 6.62716 50.1873 6.53482C50.4427 6.08304 50.352 5.69887 49.9862 5.34438C49.398 4.76895 48.8196 4.19022 48.2379 3.59994C47.1042 2.46557 47.0762 2.4161 45.7135 3.20093C44.8187 3.71536 44.0063 3.98576 43.0902 3.32459C42.9353 3.21247 42.693 3.21907 42.5365 3.10695C42.3322 2.95856 42.0949 2.77719 42.0059 2.5579C41.7587 1.94784 41.5808 1.3081 41.3781 0.67991C41.3293 0.472537 41.2071 0.289844 41.0342 0.165583C40.8612 0.0413229 40.6492 -0.016108 40.4372 0.00390048C39.3134 0.0170909 38.1896 0.0154421 37.0641 0.00390048C36.5698 0.00390048 36.2715 0.198459 36.1249 0.663422C35.9222 1.32294 35.7162 1.97092 35.4773 2.60736C35.4026 2.80014 35.2626 2.96059 35.0818 3.06078C34.4672 3.35097 33.8229 3.82088 33.2066 3.7945C32.5904 3.76812 31.9477 3.2471 31.3199 2.94207C31.2293 2.89755 31.1403 2.85303 31.0513 2.80522C30.8645 2.68316 30.6391 2.6345 30.4186 2.66858C30.1981 2.70267 29.998 2.8171 29.8566 2.98989C29.3376 3.5241 28.8053 4.04182 28.2813 4.56944C26.8428 6.01379 26.8609 5.7236 27.8414 7.53729C28.2401 8.2743 28.283 8.87282 27.9699 9.69722C27.6107 10.637 27.0834 11.1317 26.1573 11.3114C25.05 11.5241 24.1585 11.9347 24.5425 13.4021H4.03719C1.50945 13.4021 0.021487 14.886 0.0198392 17.3938C0.0198392 25.9874 0.0494996 34.5859 6.5495e-05 43.1844C-0.0114691 45.3807 1.50122 47.2405 4.01906 47.196C8.29347 47.1218 12.5712 47.1762 16.8472 47.1762H17.6316C16.6161 49.0682 15.2776 50.7679 13.6768 52.1985C13.5099 52.3006 13.3148 52.3468 13.1199 52.3304C11.9351 52.3419 10.7503 52.3304 9.56557 52.3304C8.87844 52.3304 8.46484 52.6601 8.47143 53.1795C8.47802 53.6989 8.88338 53.9957 9.58205 53.9957H36.5072C37.1581 53.9957 37.5568 53.6923 37.575 53.1976C37.5931 52.703 37.1745 52.3386 36.5022 52.3304C36.0606 52.3304 35.619 52.3304 35.1758 52.3304C32.1026 52.3304 32.0894 52.3403 30.2043 49.8852C29.5666 49.0608 29.013 48.1638 28.3341 47.1713H29.1893C33.4736 47.1713 37.743 47.1135 42.0174 47.1927C44.6391 47.2405 46.071 45.2504 46.0447 43.191C45.9705 37.5472 46.0183 31.9017 46.0183 26.2562V25.4994C46.5852 25.7302 47.0713 26.0418 47.5458 25.5703C48.3873 24.736 49.2255 23.8984 50.0604 23.0575C50.2061 22.9303 50.3024 22.7559 50.3325 22.5648C50.3627 22.3737 50.3246 22.178 50.2252 22.0121C50.0027 21.5851 49.8165 21.1366 49.5578 20.7343C49.1788 20.144 49.0635 19.595 49.5001 18.9734C49.688 18.7013 49.7226 18.3271 49.8907 18.0352C50.0103 17.8041 50.1985 17.6158 50.4295 17.4961C51.0258 17.2636 51.6335 17.0616 52.2503 16.891C52.4787 16.8437 52.6818 16.7142 52.8209 16.5269C52.9601 16.3396 53.0256 16.1077 53.005 15.8753C52.9935 14.7953 52.9902 13.7104 53.0001 12.6255ZM29.8072 52.304H16.0398C16.5753 51.6445 17.1092 51.0476 17.5541 50.3963C18.1737 49.4878 18.7422 48.5414 19.2975 47.5933C19.4623 47.2966 19.6419 47.168 19.9945 47.1713C22.0213 47.1877 24.0465 47.1713 26.0733 47.191C26.1834 47.194 26.2917 47.2199 26.3912 47.267C26.4908 47.3142 26.5795 47.3815 26.6517 47.4647C27.7244 49.0723 28.7674 50.7013 29.8072 52.304ZM42.8776 45.4499C42.582 45.5043 42.2817 45.5292 41.9812 45.5241C29.3403 45.5241 16.7 45.5241 4.06026 45.5241C2.58877 45.5241 1.83078 44.9206 1.72532 43.6511H44.2618C44.3623 44.4639 43.7476 45.2735 42.8776 45.4499ZM44.3095 41.9132H1.69071V17.3625C1.69071 15.8192 2.43717 15.0707 3.97292 15.0707H24.4057C24.4469 15.163 24.4782 15.1976 24.4766 15.2356C24.409 16.9619 24.8819 16.8316 26.0107 17.1185C27.0422 17.3807 27.6766 17.8605 28.0144 18.9322C28.2303 19.6164 28.3538 20.1391 27.937 20.7459C27.6887 21.157 27.4685 21.5845 27.2778 22.0253C27.1825 22.1928 27.1478 22.3881 27.1796 22.5783C27.2114 22.7684 27.3078 22.9417 27.4525 23.069L29.9242 25.5422C30.2538 25.872 30.6262 25.8901 31.0249 25.689C31.5621 25.4202 32.096 25.1465 32.6332 24.8761C32.7553 24.8073 32.8813 24.7457 33.0105 24.6915C33.3599 24.5595 35.385 25.5307 35.5053 25.8885C35.7146 26.5134 35.9255 27.1399 36.1167 27.7714C36.2584 28.2331 36.5401 28.4771 37.0328 28.4738C38.1781 28.4738 39.3216 28.4738 40.4652 28.4738C40.6776 28.4902 40.8887 28.4291 41.0596 28.3018C41.2304 28.1745 41.3494 27.9896 41.3946 27.7813L41.5033 27.4384C42.174 25.4054 42.174 25.4054 44.3194 24.6667L44.3095 41.9132ZM51.3094 15.0674C51.2889 15.1703 51.2451 15.2672 51.1814 15.3507C51.1177 15.4341 51.0358 15.5019 50.942 15.5488C50.4043 15.7659 49.854 15.9504 49.2942 16.1012C48.841 16.2298 48.607 16.5134 48.4488 16.9454C48.167 17.7137 47.7897 18.4491 47.5392 19.224C47.4216 19.5892 47.4148 19.9811 47.5195 20.3501C47.6985 20.8609 47.9427 21.3464 48.2461 21.7945C48.4966 22.1869 48.3977 22.426 48.0814 22.7112C47.6381 23.1152 47.2393 23.567 46.8191 24.0023C46.1403 23.6593 45.5009 23.3609 44.8945 23.0229C44.7148 22.9168 44.5102 22.8601 44.3016 22.8587C44.0929 22.8572 43.8876 22.911 43.7064 23.0146C42.9501 23.3757 42.146 23.6362 41.3995 24.0039C41.083 24.1813 40.8187 24.4389 40.6333 24.7508C40.4487 25.0459 40.3944 25.4252 40.2823 25.7665C39.9429 26.8069 39.9429 26.8069 38.8273 26.8069C37.5338 26.8069 37.5338 26.8069 37.135 25.5802C37.0608 25.351 36.9702 25.1251 36.9208 24.8926C36.8005 24.3699 36.4825 24.0979 35.97 23.9264C35.2325 23.677 34.5129 23.3773 33.8163 23.0295C33.3764 22.8118 33.0023 22.7887 32.5739 23.0295C31.9807 23.3592 31.3644 23.6511 30.6113 24.0352C30.1532 23.5406 29.6556 23.0146 29.1975 22.4623C29.1594 22.3822 29.1397 22.2946 29.1397 22.2059C29.1397 22.1172 29.1594 22.0296 29.1975 21.9495C29.4365 21.4219 29.7083 20.9074 29.9852 20.3963C30.206 19.9891 30.1763 19.6164 29.9852 19.196C29.6408 18.4557 29.3887 17.6692 29.0229 16.9404C28.8485 16.6009 28.5749 16.3225 28.2385 16.1424C27.7063 15.8786 27.0982 15.7714 26.5462 15.5439C26.4528 15.4941 26.3719 15.4236 26.3097 15.3379C26.2475 15.2523 26.2055 15.1535 26.187 15.0492C26.1441 14.4095 26.1705 13.7665 26.1705 13.0575C26.8296 12.8415 27.4739 12.6074 28.1363 12.4128C28.6472 12.2628 28.9157 11.9577 29.0805 11.44C29.3164 10.7184 29.609 10.0165 29.9555 9.34108C30.0723 9.14305 30.134 8.91729 30.134 8.68733C30.134 8.45737 30.0723 8.23161 29.9555 8.03358C29.6259 7.44001 29.3376 6.82665 28.9981 6.15889C29.4925 5.67909 29.972 5.19104 30.4812 4.74751C30.5636 4.69567 30.6567 4.66325 30.7534 4.65268C30.8502 4.64211 30.9481 4.65368 31.0398 4.68651C31.5901 4.92393 32.0993 5.26853 32.6596 5.46804C33.0051 5.57928 33.3768 5.57928 33.7224 5.46804C34.5335 5.19046 35.3256 4.86 36.0936 4.47876C36.4001 4.32707 36.6159 3.99401 36.8664 3.73679C36.9043 3.69887 36.9076 3.62632 36.929 3.57191C37.1487 2.95526 37.3684 2.33861 37.5881 1.72195H39.9593C40.1686 2.3551 40.4026 2.98989 40.5872 3.64116C40.6404 3.85365 40.7487 4.04833 40.9012 4.20553C41.0536 4.36273 41.2449 4.47688 41.4555 4.53646C42.2432 4.82006 42.9946 5.20588 43.7839 5.48123C44.1109 5.59133 44.4642 5.59595 44.794 5.49442C45.3542 5.29162 45.8601 4.94207 46.4138 4.71454C46.5231 4.67863 46.639 4.66769 46.7531 4.68253C46.8671 4.69736 46.9764 4.7376 47.0729 4.80027C47.4935 5.14705 47.8798 5.53355 48.2264 5.95444C48.2835 6.04287 48.32 6.14297 48.3334 6.24739C48.3468 6.35181 48.3367 6.4579 48.3038 6.5579C48.0781 7.09046 47.7304 7.57686 47.5442 8.12097C47.4313 8.48728 47.4313 8.87914 47.5442 9.24545C47.8062 10.0417 48.1262 10.8176 48.5016 11.567C48.6689 11.9048 48.9373 12.182 49.2694 12.36C49.9187 12.6535 50.6223 12.8217 51.321 13.0476C51.3259 13.7467 51.3523 14.4095 51.3094 15.0674Z" fill="white"/>
<path d="M15.9722 18.5464C15.6427 18.2166 15.1945 18.1507 14.8962 18.4771C14.4563 18.9619 13.9916 18.9965 13.3769 18.9718C11.2727 18.9108 9.16681 18.9388 7.06091 18.952C5.94864 18.9602 5.30765 19.6115 5.30435 20.7162C5.29666 22.7014 5.29666 24.6871 5.30435 26.6733C5.30435 27.7879 5.94535 28.4293 7.04938 28.4375C8.09244 28.4375 9.1355 28.4375 10.1802 28.4375H13.2451C14.5271 28.4375 15.1599 27.8044 15.1648 26.515C15.1648 25.0905 15.1648 23.6659 15.1648 22.2413C15.1648 21.2768 15 20.2875 16.0035 19.6032C16.3661 19.3708 16.2952 18.8778 15.9722 18.5464ZM13.4841 26.7294H7.01642V20.6601H12.3487L9.66609 23.5093C9.45517 23.2471 9.23931 22.9685 9.00697 22.6997C8.67741 22.3122 8.28688 22.1952 7.84197 22.4969C7.43332 22.7755 7.3707 23.2471 7.70191 23.7104C8.06278 24.215 8.44507 24.6997 8.83395 25.1943C9.31181 25.7846 9.74848 25.8143 10.3038 25.2784C11.2051 24.4062 12.0818 23.5307 12.9683 22.6585C13.1067 22.52 13.2534 22.3897 13.4841 22.1754V26.7294Z" fill="white"/>
<path d="M41.4654 29.6444C41.0667 29.2998 40.6695 29.3559 40.2757 29.6873C40.0582 29.8703 39.8176 30.1506 39.5787 30.1589C38.2984 30.2067 37.0147 30.1819 35.7311 30.1819V30.1127C34.7276 30.1127 33.724 30.1127 32.7205 30.1127C31.3825 30.1127 30.8223 30.6782 30.8173 32.022C30.8107 33.8907 30.8107 35.7593 30.8173 37.6279C30.8173 38.9997 31.3825 39.5636 32.7535 39.5686C34.7407 39.5752 36.728 39.5752 38.7152 39.5686C40.0928 39.5686 40.6794 38.9668 40.6926 37.5735C40.6926 35.806 40.7091 34.0385 40.6827 32.2726C40.6827 31.811 40.7816 31.4482 41.1524 31.1778C41.2623 31.0901 41.3628 30.9912 41.4523 30.8827C41.8016 30.4721 41.8197 29.9495 41.4654 29.6444ZM38.9772 37.8588H32.5146V31.8011H37.9095L35.2021 34.6799C34.9879 34.4111 34.8067 34.1852 34.6221 33.9478C34.225 33.4532 33.7257 33.3394 33.3286 33.6543C32.9315 33.9692 32.915 34.4309 33.2857 34.9305C33.6334 35.3971 33.9844 35.8621 34.3469 36.3171C34.8083 36.9008 35.2796 36.9354 35.8201 36.4111C36.7132 35.5455 37.5931 34.665 38.4813 33.7912C38.6197 33.6543 38.768 33.5257 38.9756 33.3312L38.9772 37.8588Z" fill="white"/>
<path d="M15.9837 29.6824C15.6674 29.3147 15.1796 29.3246 14.7561 29.6824C14.6358 29.7863 14.537 29.9215 14.4084 30.0122C14.3081 30.0959 14.1856 30.1487 14.0558 30.1639C11.7489 30.149 9.44196 30.1144 7.14492 30.1045C5.89424 30.1045 5.30432 30.7014 5.30103 31.9413C5.30103 33.8671 5.30103 35.7907 5.30103 37.7121C5.30103 38.9256 5.88764 39.5258 7.09054 39.5456C8.1336 39.562 9.17666 39.5456 10.2214 39.5456C11.2661 39.5456 12.2679 39.5456 13.2896 39.5456C14.5469 39.5324 15.1615 38.9091 15.1664 37.6494C15.1664 36.0649 15.201 34.4788 15.1549 32.8943C15.1302 32.0699 15.2027 31.379 15.9261 30.8366C16.3232 30.5563 16.3298 30.0864 15.9837 29.6824ZM13.4659 37.8621H7.00486V31.8061H12.4426L9.69737 34.6981C9.47162 34.4112 9.28212 34.1655 9.08768 33.9215C8.71528 33.4582 8.23082 33.3493 7.837 33.6379C7.44317 33.9264 7.37726 34.4046 7.74637 34.9042C8.11548 35.4038 8.46975 35.8671 8.84381 36.337C9.28707 36.8926 9.75999 36.9306 10.2725 36.4359C11.2101 35.5291 12.1328 34.6074 13.0638 33.6939C13.1742 33.5851 13.2912 33.4862 13.4659 33.3312V37.8621Z" fill="white"/>
<path d="M27.9238 31.9495C27.9155 30.7558 27.2894 30.1226 26.1112 30.116C24.024 30.105 21.9367 30.105 19.8495 30.116C18.6647 30.116 18.0649 30.7162 18.0583 31.8868C18.0474 33.8522 18.0474 35.8181 18.0583 37.7846C18.0583 38.952 18.6664 39.5472 19.8462 39.5653C20.8876 39.5802 21.9307 39.5653 22.977 39.5653H26.1079C27.291 39.534 27.9205 38.9173 27.9205 37.7269C27.9347 35.8022 27.9358 33.8764 27.9238 31.9495ZM26.2265 37.8671H19.7737V31.8028H26.2249L26.2265 37.8671Z" fill="white"/>
<path d="M38.8207 6.15725C34.2909 6.14735 30.6278 9.78462 30.6443 14.2595C30.6484 16.4096 31.506 18.4701 33.0284 19.9875C33.7823 20.7389 34.6766 21.3343 35.6604 21.7399C36.6442 22.1454 37.6982 22.353 38.7622 22.351C39.8262 22.3489 40.8794 22.1372 41.8616 21.7279C42.8438 21.3185 43.7359 20.7196 44.4868 19.9654C45.2377 19.2111 45.8328 18.3162 46.238 17.3318C46.6433 16.3474 46.8509 15.2928 46.8488 14.2281C46.8422 9.81924 43.2088 6.16714 38.8207 6.15725ZM42.0685 8.8448C43.4889 9.38066 45.0346 11.7187 45.0477 13.3658H42.0685V8.8448ZM35.4526 8.72608V13.3592H32.3794C32.7271 11.346 33.7108 9.84892 35.4526 8.72608ZM35.4707 19.6577C34.0783 19.2026 32.5376 16.9157 32.4223 15.0987H35.4707V19.6577ZM40.307 20.5612H37.2075V15.107H40.307V20.5612ZM40.307 13.346H37.2025V7.91817H40.3103L40.307 13.346ZM42.0405 19.7665V15.1119H45.0955C44.8072 17.1086 43.7987 18.5958 42.0438 19.7665H42.0405Z" fill="white"/>
<path d="M25.3763 37.0723C25.0104 37.4664 24.5524 37.435 24.0696 36.9569C23.7713 36.6617 23.4994 36.3386 23.1089 35.9132C22.7167 36.3468 22.425 36.7046 22.0955 37.0245C21.6753 37.435 21.232 37.4433 20.8745 37.0888C20.5169 36.7343 20.5218 36.2908 20.9305 35.8687C21.2502 35.5389 21.6077 35.2487 22.0493 34.8497C21.6193 34.4523 21.2535 34.1457 20.9255 33.8044C20.5185 33.3806 20.5185 32.9371 20.8794 32.5843C21.2403 32.2314 21.672 32.2397 22.0988 32.6552C22.4283 32.975 22.7151 33.3345 23.0875 33.7566C23.4665 33.3526 23.7466 33.0228 24.0646 32.7162C24.5491 32.2413 25.0039 32.21 25.3746 32.6024C25.7454 32.9948 25.6861 33.412 25.2461 33.8736C24.9561 34.1786 24.6595 34.4787 24.3678 34.7805C24.3541 34.8289 24.3453 34.8786 24.3414 34.9289C24.6166 35.1943 24.9379 35.4894 25.2444 35.8011C25.7058 36.2561 25.7371 36.6914 25.3763 37.0723Z" fill="white"/>
</svg>
