<svg width="208" height="59" viewBox="0 0 208 59" fill="none" xmlns="http://www.w3.org/2000/svg">
<path d="M64.3789 50.7367H59.3926V13.2205H66.5173C69.3291 13.1857 72.0981 13.918 74.5314 15.34C76.8785 16.7047 78.8689 18.6149 80.3371 20.9117C81.7722 18.6005 83.7555 16.6864 86.1078 15.3423C88.5548 13.9227 91.3343 13.1908 94.1569 13.2229H101.212V50.7367H96.2952V18.18H94.1569C92.6393 18.1681 91.1356 18.4728 89.7402 19.0749C88.3898 19.6548 87.1665 20.4984 86.1405 21.5569C85.1209 22.6115 84.3013 23.8454 83.722 25.1976C83.1209 26.5909 82.8171 28.0961 82.8303 29.6155V34.2876H77.8439V29.606C77.8558 28.0898 77.552 26.5879 76.9522 25.1976C76.3704 23.849 75.55 22.6186 74.5314 21.5664C73.5065 20.5051 72.284 19.6584 70.934 19.0749C69.5389 18.4714 68.0352 18.1652 66.5173 18.1753H64.3789V50.7367Z" fill="#008081"/>
<path d="M107.052 29.6719C107.041 27.4739 107.478 25.2971 108.334 23.2759C109.157 21.3104 110.355 19.5275 111.861 18.0292C113.362 16.5362 115.125 15.3382 117.06 14.4968C119.074 13.624 121.246 13.183 123.438 13.2016H148.869V50.7366H143.955V36.7931H118.743V31.763H143.955V18.1799H123.438C121.92 18.1675 120.416 18.4722 119.021 19.0748C116.281 20.2539 114.098 22.455 112.928 25.2187C112.332 26.6257 112.029 28.1416 112.039 29.6719V50.7295H107.052V29.6719Z" fill="#008081"/>
<path d="M178.934 13.2205C181.369 13.2043 183.782 13.6941 186.021 14.6593C190.375 16.5108 193.839 20.0051 195.674 24.3969C196.632 26.659 197.118 29.096 197.101 31.5558C197.116 34.1131 196.606 36.646 195.604 38.995C194.639 41.2687 193.262 43.3405 191.542 45.1037C189.818 46.8547 187.773 48.2518 185.522 49.2177C183.194 50.2287 180.684 50.7426 178.15 50.7272H155.272V25.0068H160.259V45.7772H178.14C180.013 45.7919 181.869 45.4125 183.589 44.6633C186.951 43.1956 189.625 40.481 191.059 37.0805C191.8 35.3318 192.176 33.448 192.163 31.5464C192.172 29.7664 191.82 28.0033 191.129 26.3656C189.785 23.1387 187.241 20.5718 184.042 19.2161C182.418 18.5187 180.671 18.1637 178.906 18.1729H155.282V13.2205H178.934Z" fill="#008081"/>
<path d="M203.011 50.7366V13.2205H207.998V50.7366H203.011Z" fill="#008081"/>
<path d="M20.8791 31.4687C15.8814 30.2486 11.3266 27.6301 7.73873 23.9145C4.15083 20.1989 1.67553 15.537 0.597595 10.4652C2.35471 10.5233 4.09753 10.805 5.7847 11.3036C6.28893 11.4496 6.78383 11.6168 7.27173 11.8004C8.2872 14.732 9.92825 17.4029 12.079 19.6246C14.2298 21.8463 16.8378 23.5647 19.7189 24.6583C20.4735 26.8488 20.8655 29.1497 20.8791 31.4687Z" fill="#008081"/>
<path d="M7.27176 11.7934C6.78386 11.6097 6.28896 11.4425 5.78473 11.2965C4.09725 10.8003 2.35444 10.521 0.597624 10.4652C0.1987 8.57321 -0.00160883 6.6441 9.73049e-06 4.70979C9.73049e-06 4.4743 9.73049e-06 4.21761 9.73049e-06 3.97035H0.0933869C2.11481 3.96849 4.13015 4.19359 6.10221 4.6415V4.83696C6.10249 6.78471 6.36959 8.72308 6.89591 10.5971C7.0033 10.9951 7.13403 11.3977 7.27176 11.7934Z" fill="#AA2F47"/>
<path d="M27.642 31.4852C27.642 31.7325 27.642 31.9798 27.642 32.227C27.5463 32.227 27.4529 32.227 27.3572 32.227C27.3572 31.9915 27.3572 31.7325 27.3572 31.4852C27.3691 29.6405 27.1979 27.7992 26.8459 25.9889H27.0794C27.4529 25.9889 27.8241 25.9889 28.1929 25.9583C27.8252 27.7772 27.6406 29.6289 27.642 31.4852Z" fill="#AA2F47"/>
<path d="M53.951 10.4677C53.1032 14.4954 51.3661 18.2786 48.869 21.5357C45.0915 26.4756 39.7627 29.9746 33.7559 31.4594C33.7628 30.2457 33.8721 29.0348 34.0827 27.8398C34.2887 26.6802 34.5917 25.5403 34.9884 24.4323C37.711 23.3111 40.17 21.6263 42.2067 19.4865C44.2434 17.3468 45.8124 14.7998 46.8123 12.0101C47.4847 11.7327 48.1712 11.4914 48.869 11.2872C50.5235 10.8057 52.2302 10.5305 53.951 10.4677Z" fill="#AA2F47"/>
<path d="M54.5486 4.70985C54.5501 6.64337 54.3498 8.57168 53.951 10.4629C52.2301 10.5265 50.5234 10.8025 48.8689 11.2848C48.1712 11.4897 47.4847 11.7318 46.8123 12.0101C46.9804 11.5391 47.1298 11.0681 47.2652 10.5971C47.7862 8.73028 48.0501 6.79999 48.0496 4.86056C50.17 4.30594 52.3489 4.01102 54.5393 3.98218C54.5463 4.22002 54.5486 4.47435 54.5486 4.70985Z" fill="#AA2F47"/>
<path d="M20.8185 33.2302C20.6244 35.8312 19.9523 38.373 18.8366 40.7259C14.3667 42.7999 10.7581 46.3877 8.63743 50.8662C7.71646 51.2906 6.76619 51.6472 5.79409 51.9329C4.361 52.348 2.88829 52.6085 1.4007 52.7101C2.65102 48.0262 5.105 43.7583 8.51458 40.3378C11.9242 36.9173 16.1685 34.4655 20.8185 33.2302Z" fill="#AA2F47"/>
<path d="M8.63742 50.8661C7.54175 53.1727 6.87323 55.6619 6.66483 58.2111C4.64503 58.713 2.57493 58.98 0.494934 59.007C0.535471 57.5063 0.697868 56.0114 0.980495 54.5374C1.105 53.9204 1.24506 53.3113 1.40069 52.71C2.88556 52.6039 4.35511 52.3395 5.78475 51.9211C6.75971 51.6396 7.71311 51.287 8.63742 50.8661Z" fill="#AA2F47"/>
<path d="M54.1051 52.7501C51.5263 52.6771 48.9833 52.123 46.6045 51.1158C44.4041 46.3137 40.5055 42.5135 35.6724 40.4598C34.6019 38.1137 33.9688 35.5887 33.8049 33.0112C38.65 34.1262 43.1017 36.5536 46.6805 40.0318C50.2593 43.5101 52.8296 47.9074 54.1144 52.7501H54.1051Z" fill="#008081"/>
<path d="M55.0085 58.9976H54.9175C52.7398 58.9984 50.5699 58.7375 48.4534 58.2205C48.2544 55.7613 47.6286 53.3565 46.6046 51.1157C48.9833 52.1229 51.5263 52.677 54.1051 52.75C54.2615 53.3388 54.3969 53.9275 54.5136 54.5351C54.7989 56.0065 54.9644 57.499 55.0085 58.9976Z" fill="#AA2F47"/>
<path d="M27.3782 31.4852C27.3782 31.7325 27.3782 31.9821 27.3782 32.227C27.3782 32.26 27.3782 32.2906 27.3782 32.3212V32.3377C27.3094 34.5426 26.9779 36.7311 26.3907 38.8561C25.0932 43.5546 22.5825 47.8214 19.1152 51.2207C15.6479 54.62 11.3482 57.0298 6.65544 58.2041C6.86762 55.6568 7.53929 53.17 8.63737 50.8662C13.108 48.7969 16.7196 45.2144 18.8458 40.7401C19.9616 38.3871 20.6337 35.8453 20.8278 33.2444C20.8667 32.709 20.8869 32.1682 20.8885 31.6218V31.4829C20.8733 29.1611 20.479 26.8578 19.7212 24.6654C18.7055 21.734 17.0643 19.0633 14.9136 16.8416C12.7629 14.6199 10.155 12.9015 7.27407 11.8076C7.134 11.3978 7.00327 10.9951 6.89589 10.5972C6.37357 8.72576 6.10963 6.79062 6.11152 4.84646V4.651C11.2359 5.81935 15.9174 8.45374 19.595 12.2384C23.2726 16.023 25.7902 20.7973 26.8459 25.9889C27.2049 27.7985 27.3832 29.6398 27.3782 31.4852Z" fill="#008081"/>
<path d="M48.4534 58.2228C42.6541 56.8023 37.4778 53.4996 33.7203 48.8225C29.9629 44.1454 27.8322 38.3528 27.656 32.3353C27.656 32.3353 27.656 32.3353 27.656 32.3211C27.656 32.307 27.656 32.2599 27.656 32.2269C27.656 31.9915 27.656 31.7324 27.656 31.4851C27.6499 25.3938 29.6494 19.473 33.3406 14.6523C37.0318 9.83159 42.2056 6.38407 48.0496 4.85107C48.051 6.79366 47.7871 8.72717 47.2652 10.5971C47.1298 11.068 46.9804 11.5555 46.8123 12.01C44.0907 13.1316 41.6324 14.8163 39.5962 16.9556C37.56 19.0948 35.9911 21.641 34.9908 24.4298C34.5931 25.5385 34.2893 26.6793 34.0827 27.8397C33.872 29.0308 33.7619 30.2377 33.7535 31.4475C33.7535 31.5016 33.7535 31.5558 33.7535 31.6076C33.7535 32.0786 33.7691 32.5496 33.8002 33.0206C34.0549 36.9408 35.388 40.7118 37.6499 43.9099C39.9118 47.108 43.0127 49.6067 46.6046 51.1251C47.6278 53.3637 48.2536 55.766 48.4534 58.2228Z" fill="#008081"/>
<path d="M37.54 4.47438C33.8352 7.06479 30.8658 10.2416 28.9283 14.4074C29.6473 9.53744 31.6479 5.25621 34.7013 1.4907C35.6351 0.348572 36.905 0.13192 37.9905 1.25521C39.125 2.41148 38.7515 3.64074 37.54 4.47438Z" fill="#008081"/>
<path d="M26.4211 14.2991C24.5115 10.0272 21.6145 6.67856 17.8164 4.06696C16.5744 3.21684 15.9348 2.05822 17.1837 0.7065C18.2085 -0.405019 19.6396 -0.193077 20.7764 1.27403C23.7411 5.12196 25.7464 9.41968 26.4211 14.2991Z" fill="#008081"/>
</svg>
