<svg width="54" height="47" viewBox="0 0 54 47" fill="none" xmlns="http://www.w3.org/2000/svg">
<path d="M53.9986 33.0742C53.9986 32.2218 53.6626 31.9294 52.6546 31.9294H43.7469C44.461 30.7598 44.172 29.6793 43.6478 28.5814C42.6045 26.3985 41.6082 24.1953 40.6035 22.0022C40.2789 21.2516 39.6625 20.6237 38.8613 20.2273C37.9171 19.758 36.9864 19.2667 36.0355 18.8091C35.9023 18.7574 35.7921 18.6693 35.7215 18.5583C35.6509 18.4473 35.6237 18.3193 35.644 18.1936C35.6675 17.369 35.6524 16.543 35.6524 15.7169V12.3352C35.7364 12.3104 35.7835 12.2899 35.8322 12.2811C36.1682 12.2212 36.5193 12.1671 36.8621 12.1013C40.6164 11.4143 44.048 9.76378 46.7139 7.36286C47.0811 7.03667 47.3565 6.64088 47.5185 6.20653C47.6805 5.77218 47.7246 5.31108 47.6475 4.85939C47.5703 4.4077 47.374 3.97771 47.0739 3.60313C46.7737 3.22855 46.3779 2.91958 45.9176 2.70043C44.5634 2.04106 42.9724 2.2472 41.7661 3.27501C40.2423 4.59965 38.3582 5.56732 36.2892 6.08797C35.6491 6.24879 34.9871 6.34528 34.2244 6.49295C34.8762 5.32332 34.8964 4.21802 34.6914 3.10249C34.5209 2.25366 34.0201 1.48167 33.2731 0.916003C32.5261 0.350336 31.5784 0.0253925 30.5887 -0.00432926C28.3929 -0.0291838 26.5448 1.19892 26.1652 2.9943C25.9165 4.17855 25.9333 5.36426 26.6003 6.47979C25.4427 6.58652 24.3205 6.63769 23.2183 6.79998C19.1142 7.38187 15.3368 9.10422 12.4509 11.7095C12.091 12.0171 11.8214 12.3955 11.665 12.8128C11.5085 13.2302 11.4698 13.6741 11.552 14.1072C11.752 15.2944 12.5046 16.1365 13.8168 16.5313C15.1289 16.926 16.3268 16.6482 17.3701 15.8339C18.0002 15.3252 18.6632 14.8483 19.3559 14.4055C20.602 13.6414 22.0112 13.102 23.5006 12.8192C23.5124 12.9888 23.5275 13.1203 23.5275 13.2578C23.5275 14.9406 23.5275 16.6205 23.5275 18.3047C23.5275 18.486 23.5896 18.6658 23.5896 18.8471C23.5896 19.0562 23.6199 19.2945 23.5208 19.4729C22.6572 21.0402 21.7584 22.5943 20.8915 24.1616C20.7384 24.4494 20.4677 24.6771 20.1321 24.8005C17.7027 25.7903 15.27 26.7757 12.8642 27.8065C12.0208 28.1738 11.3758 28.8133 11.0666 29.5887C10.7575 30.364 10.8087 31.2138 11.2094 31.9568C11.6101 32.6997 12.3285 33.277 13.2114 33.5655C14.0942 33.854 15.0717 33.8309 15.9353 33.5011C16.7568 33.1941 17.5566 32.8432 18.363 32.5098C19.124 32.197 19.8918 31.8958 20.6395 31.5595C20.763 31.5078 20.8733 31.435 20.9638 31.3454C21.0543 31.2558 21.1231 31.1513 21.1662 31.0381C21.2094 30.9248 21.2258 30.8052 21.2147 30.6863C21.2036 30.5674 21.1651 30.4517 21.1015 30.346C20.8461 29.8884 20.2984 29.713 19.7221 29.9074C19.5911 29.9513 19.4651 30.0054 19.3391 30.0536C17.9598 30.6209 16.5872 31.1999 15.2011 31.7554C14.1931 32.1604 13.1851 31.7116 13.0002 30.792C12.8843 30.2174 13.2674 29.6823 14.0452 29.3606C16.5653 28.3197 19.0753 27.2743 21.6055 26.245C22.0236 26.0845 22.3604 25.7971 22.553 25.4365C23.5964 23.571 24.6615 21.7142 25.7015 19.8472C25.8426 19.5928 25.9988 19.486 26.3315 19.489C28.4752 19.5007 30.6207 19.489 32.7644 19.5021C33.0241 19.5058 33.2787 19.5656 33.5053 19.6761C34.9098 20.3706 36.2942 21.0914 37.6954 21.7887C38.1291 21.9944 38.4632 22.3292 38.6362 22.7318C39.2813 24.1646 39.9517 25.59 40.6119 27.0184C41.0488 27.9673 41.5007 28.9103 41.9173 29.865C42.3155 30.7759 41.7141 31.6297 40.6556 31.6984C39.9718 31.7423 39.4275 31.425 39.1285 30.7817C38.1372 28.6588 37.1729 26.533 36.1749 24.4116C36.0556 24.1602 35.8389 23.8648 35.5819 23.7552C33.8111 23.0242 32.0185 22.3209 30.2275 21.625C30.0296 21.5325 29.7999 21.5055 29.5809 21.5491C29.3619 21.5926 29.1685 21.7037 29.0364 21.8618C28.1023 22.9511 27.1732 24.0461 26.3147 25.1807C26.1467 25.3985 26.229 25.8327 26.3516 26.1164C26.4258 26.2766 26.5672 26.4063 26.7473 26.4791C26.9273 26.5519 27.1325 26.5623 27.321 26.5082C27.6627 26.4158 27.9662 26.239 28.1947 25.9994C28.8852 25.2333 29.5185 24.4292 30.1788 23.6324C31.4271 24.1251 32.6182 24.6075 33.8228 25.0608C33.9749 25.1135 34.1121 25.1942 34.2249 25.2975C34.3377 25.4007 34.4235 25.5239 34.4764 25.6588C35.3517 27.5857 36.2488 29.5068 37.1275 31.4338C37.4635 32.1648 37.9675 32.7949 38.7924 33.1385C39.1957 33.3052 39.241 33.5216 39.2393 33.8476C39.2309 37.8243 39.2393 41.8011 39.2242 45.7763C39.2242 46.3275 39.3922 46.7296 39.9718 46.9723H53.2577C53.8054 46.7354 54.007 46.3612 54.0053 45.8231C53.9902 41.5774 53.9986 37.3258 53.9986 33.0742ZM28.2249 3.53672C28.2886 3.06115 28.5534 2.62322 28.9676 2.30813C29.3819 1.99304 29.916 1.82332 30.4661 1.83199C31.6153 1.86123 32.5191 2.61856 32.6367 3.66099C32.6569 3.84228 32.6367 4.02796 32.6367 4.21071H32.6838C32.6653 4.53005 32.6193 4.84772 32.546 5.16104C32.2738 6.03095 31.3498 6.56605 30.2645 6.52365C29.7761 6.51131 29.3079 6.35154 28.9401 6.07173C28.5723 5.79192 28.3278 5.40949 28.2484 4.98998C28.1628 4.50887 28.1549 4.01973 28.2249 3.53672ZM33.5406 11.5604C33.5406 13.3952 33.5406 15.2286 33.5406 17.0635V17.6044H25.6679V17.1015C25.6679 15.3894 25.6679 13.6774 25.6679 11.9653C25.6679 11.0004 25.2142 10.6714 24.1272 10.8206C21.07 11.2268 18.2392 12.4654 16.0411 14.3587C15.6732 14.6686 15.2851 14.9201 14.7458 14.8382C14.5157 14.8151 14.2982 14.7346 14.1194 14.6065C13.9406 14.4784 13.8081 14.3081 13.7378 14.116C13.6522 13.9058 13.6397 13.6783 13.7019 13.462C13.764 13.2456 13.8981 13.05 14.0872 12.8996C15.7302 11.4601 17.688 10.3216 19.845 9.55148C22.0019 8.78133 24.3143 8.39507 26.6457 8.41552C28.4736 8.43014 30.2998 8.40675 32.1277 8.41552C36.4353 8.44769 40.1718 7.22397 43.2664 4.58792C43.668 4.24434 44.1249 4.10545 44.6558 4.24288C44.8772 4.29865 45.0759 4.40793 45.2287 4.55803C45.3816 4.70814 45.4824 4.8929 45.5194 5.09086C45.5666 5.28042 45.5542 5.47756 45.4836 5.66152C45.4129 5.84548 45.2866 6.00947 45.1179 6.13621C42.5339 8.37605 39.4662 9.81469 35.8675 10.3761C35.4374 10.4434 35.0039 10.4989 34.5688 10.5516C33.8951 10.629 33.5423 10.9609 33.5406 11.5604ZM51.8532 45.1126H41.3713V33.7847H51.8515L51.8532 45.1126Z" fill="white"/>
<path d="M34.3806 35.9749C34.3806 35.181 34.0211 34.8666 33.1105 34.8652H20.8881C19.9775 34.8652 19.618 35.1795 19.618 35.9749C19.618 39.26 19.6281 42.5452 19.6079 45.8304C19.6079 46.3685 19.8078 46.7413 20.3555 46.9781H33.6448C34.1908 46.7413 34.3941 46.3685 34.3924 45.829C34.3722 42.5408 34.3823 39.26 34.3806 35.9749ZM32.257 45.1184H21.7685V36.7322H32.257V45.1184Z" fill="white"/>
<path d="M14.7643 39.1416C14.7643 38.2849 14.4283 37.9851 13.4421 37.9851C9.45871 37.9851 5.47362 37.9968 1.49021 37.9734C0.860188 37.9734 0.369612 38.0919 0 38.5349V46.9781H14.0268C14.6047 46.7354 14.7828 46.3348 14.7761 45.7836C14.7492 43.5643 14.766 41.3551 14.7643 39.1416ZM12.6155 45.1111H2.13367V39.8478H12.6155V45.1111Z" fill="white"/>
<path d="M25.5117 28.9747C25.503 29.2206 25.3858 29.4543 25.1842 29.6269C24.9827 29.7996 24.7125 29.8979 24.4297 29.9016C24.2896 29.8993 24.1514 29.8729 24.0232 29.8237C23.895 29.7745 23.7793 29.7037 23.6828 29.6152C23.5864 29.5268 23.5111 29.4226 23.4613 29.3086C23.4116 29.1946 23.3884 29.0731 23.3931 28.9513C23.3925 28.8291 23.4209 28.7082 23.4765 28.596C23.5321 28.4839 23.6137 28.3829 23.7163 28.2995C23.8188 28.216 23.94 28.1519 24.0723 28.1111C24.2046 28.0703 24.3451 28.0537 24.4851 28.0623C24.7592 28.0677 25.0201 28.1661 25.2119 28.3366C25.4037 28.5071 25.5113 28.7361 25.5117 28.9747Z" fill="white"/>
</svg>
