<svg width="44" height="40" viewBox="0 0 44 40" fill="none" xmlns="http://www.w3.org/2000/svg">
<path d="M4.00146 16.1448C4.00146 8.91705 4.00146 5.30221 6.63889 3.0578C9.27632 0.813379 13.5183 0.811462 22.0044 0.811462H25.3799C33.866 0.811462 38.1102 0.811462 40.7454 3.0578C43.3806 5.30413 43.3828 8.91705 43.3828 16.1448V23.8115C43.3828 31.0392 43.3828 34.654 40.7454 36.8985C38.108 39.1429 33.866 39.1448 25.3799 39.1448H22.0044C13.5183 39.1448 9.27407 39.1448 6.63889 36.8985C4.00372 34.6521 4.00146 31.0392 4.00146 23.8115V16.1448Z" stroke="white" stroke-width="1.5" stroke-linecap="round" stroke-linejoin="round"/>
<path d="M17.0536 19.9283C16.0927 18.5023 15.6291 17.3389 15.35 16.1582C14.936 14.4141 15.8834 12.7082 17.4496 11.6196C18.1135 11.1596 18.8719 11.3167 19.2634 11.9166L20.1478 13.2679C20.8477 14.3374 21.1987 14.8741 21.129 15.4414C21.0615 16.0087 20.5889 16.4706 19.6437 17.3964L17.0536 19.9283ZM17.0536 19.9283C19.0791 22.8845 21.9675 25.3446 25.4384 27.0698M25.4384 27.0698C27.1127 27.8882 28.4787 28.2831 29.8649 28.5207C31.9127 28.8734 33.9155 28.0665 35.1937 26.7325C35.7338 26.1671 35.5493 25.5211 34.8449 25.1876L33.2607 24.4344C32.0005 23.8383 31.3726 23.5393 30.7065 23.5987C30.0404 23.6562 29.4981 24.0587 28.4112 24.8637L25.4384 27.0698ZM6.25182 8.47815H0.625916M6.25182 19.9781H0.625916M6.25182 31.4781H0.625916" stroke="white" stroke-width="1.5" stroke-linecap="round" stroke-linejoin="round"/>
</svg>
