<svg width="46" height="40" viewBox="0 0 46 40" fill="none" xmlns="http://www.w3.org/2000/svg">
<path d="M17.8893 0.833313C10.5531 0.833313 6.88051 0.833313 4.3331 2.36281C3.60814 2.79582 2.96015 3.31545 2.40904 3.90573C0.500733 5.9489 0.500732 8.88906 0.500732 14.7732V19.6511C0.500732 25.3302 0.500733 28.1707 1.55615 30.4381C3.25293 34.0856 6.84001 36.9606 11.3902 38.3214C14.2189 39.1666 17.7588 39.1666 24.8474 39.1666C28.8936 39.1666 30.9189 39.1666 32.5347 38.6836C35.1338 37.9055 37.1839 36.2629 38.1538 34.1795C38.7569 32.8838 38.7569 31.2604 38.7569 28.0155V26.7083M29.7555 11.375C29.7555 11.375 30.8806 11.375 32.0058 13.2916C32.0058 13.2916 35.5794 8.49998 38.7569 7.54165" stroke="white" stroke-width="1.5" stroke-linecap="round" stroke-linejoin="round"/>
<path d="M0.500732 20C0.500732 21.6942 1.29096 23.3191 2.69757 24.5172C4.10418 25.7152 6.01195 26.3882 8.00119 26.3882C9.49994 26.3882 11.2665 26.1659 12.7225 26.4975C13.3587 26.6433 13.9387 26.929 14.4043 27.326C14.87 27.7229 15.205 28.2172 15.3756 28.7591C15.7649 29.9992 15.5039 31.5038 15.5039 32.7803C15.5045 34.4742 16.295 36.0986 17.7015 37.2962C19.1081 38.4939 21.0155 39.1666 23.0044 39.1666M45.508 10.4166C45.508 12.9583 44.3225 15.3959 42.2124 17.1931C40.1023 18.9903 37.2404 20 34.2562 20C31.272 20 28.4101 18.9903 26.2999 17.1931C24.1898 15.3959 23.0044 12.9583 23.0044 10.4166C23.0044 7.87499 24.1898 5.43743 26.2999 3.64021C28.4101 1.84298 31.272 0.833313 34.2562 0.833313C37.2404 0.833313 40.1023 1.84298 42.2124 3.64021C44.3225 5.43743 45.508 7.87499 45.508 10.4166Z" stroke="white" stroke-width="1.5" stroke-linecap="round" stroke-linejoin="round"/>
</svg>
