<svg width="46" height="46" viewBox="0 0 46 46" fill="none" xmlns="http://www.w3.org/2000/svg">
<path d="M37.8542 19.1666C37.8542 18.7854 37.7028 18.4197 37.4332 18.1502C37.1636 17.8806 36.7979 17.7291 36.4167 17.7291C36.0354 17.7291 35.6698 17.8806 35.4002 18.1502C35.1306 18.4197 34.9792 18.7854 34.9792 19.1666H37.8542ZM11.0209 19.1666C11.0209 18.7854 10.8694 18.4197 10.5998 18.1502C10.3302 17.8806 9.96461 17.7291 9.58336 17.7291C9.20212 17.7291 8.83648 17.8806 8.5669 18.1502C8.29731 18.4197 8.14586 18.7854 8.14586 19.1666H11.0209ZM39.2342 24.0158C39.3658 24.157 39.5245 24.2703 39.7008 24.3489C39.8772 24.4274 40.0675 24.4697 40.2605 24.4731C40.4535 24.4765 40.6453 24.441 40.8243 24.3687C41.0033 24.2964 41.1659 24.1888 41.3024 24.0523C41.4389 23.9158 41.5465 23.7532 41.6188 23.5742C41.6911 23.3952 41.7266 23.2035 41.7232 23.0105C41.7198 22.8174 41.6775 22.6271 41.5989 22.4508C41.5204 22.2744 41.4071 22.1157 41.2659 21.9841L39.2342 24.0158ZM23 5.74996L24.0159 4.73412C23.7463 4.46493 23.381 4.31372 23 4.31372C22.6191 4.31372 22.2537 4.46493 21.9842 4.73412L23 5.74996ZM4.7342 21.9841C4.59296 22.1157 4.47968 22.2744 4.40112 22.4508C4.32255 22.6271 4.2803 22.8174 4.2769 23.0105C4.27349 23.2035 4.309 23.3952 4.38129 23.5742C4.45359 23.7532 4.5612 23.9158 4.69771 24.0523C4.83421 24.1888 4.99681 24.2964 5.1758 24.3687C5.3548 24.441 5.54652 24.4765 5.73953 24.4731C5.93255 24.4697 6.1229 24.4274 6.29923 24.3489C6.47556 24.2703 6.63426 24.157 6.76586 24.0158L4.7342 21.9841ZM13.4167 41.6875H32.5834V38.8125H13.4167V41.6875ZM37.8542 36.4166V19.1666H34.9792V36.4166H37.8542ZM11.0209 36.4166V19.1666H8.14586V36.4166H11.0209ZM41.2659 21.9841L24.0159 4.73412L21.9842 6.76579L39.2342 24.0158L41.2659 21.9841ZM21.9842 4.73412L4.7342 21.9841L6.76586 24.0158L24.0159 6.76579L21.9842 4.73412ZM32.5834 41.6875C33.9813 41.6875 35.3219 41.1321 36.3104 40.1437C37.2989 39.1552 37.8542 37.8145 37.8542 36.4166H34.9792C34.9792 37.7391 33.9059 38.8125 32.5834 38.8125V41.6875ZM13.4167 38.8125C12.0942 38.8125 11.0209 37.7391 11.0209 36.4166H8.14586C8.14586 37.8145 8.70118 39.1552 9.68965 40.1437C10.6781 41.1321 12.0188 41.6875 13.4167 41.6875V38.8125Z" fill="white"/>
</svg>
